<svg xmlns="http://www.w3.org/2000/svg" xmlns:xlink="http://www.w3.org/1999/xlink" xmlns:lucid="lucid" width="1760" height="1863.81"><g transform="translate(0 0)" lucid:page-tab-id="0_0"><path d="M959.8 55.34c0 11.05-8.97 20-20 20-11.06 0-20-8.95-20-20 0-11.04 8.94-20 20-20 11.03 0 20 8.96 20 20z" stroke="#666"/><path d="M939.8 76.34v34.02" stroke="#333" fill="none"/><path d="M939.76 75.84h.53v.52h-1v-.58z" stroke="#333" stroke-width=".05" fill="#333"/><path d="M939.8 125.12l-4.65-14.26h9.27z" stroke="#333" fill="#333"/><path d="M875.8 126.74c-8.85 0-16 7.16-16 16v48c0 8.84 7.15 16 16 16h128c8.82 0 16-7.16 16-16v-48c0-8.84-7.18-16-16-16z" stroke="#000" stroke-opacity="0" fill="#00b098"/><use xlink:href="#a" transform="matrix(1,0,0,1,867.7852966476246,134.74075457323988) translate(39.50617283950618 26.488888888888887)"/><use xlink:href="#b" transform="matrix(1,0,0,1,867.7852966476246,134.74075457323988) translate(21.65432098765432 47.822222222222216)"/><path d="M899.8 258.64v28.8c0 6.62-5.4 12-12 12h-316c-6.64 0-12 5.37-12 12v12.9" stroke="#333" fill="none"/><path d="M900.3 258.65h-1 1z" stroke="#333" stroke-width=".05" fill="#333"/><path d="M559.8 339.1l-4.65-14.25h9.27z" stroke="#333" fill="#333"/><path d="M351.68 395.07h-39.65l-3 .4-2.77 1.14-2.4 1.84-1.82 2.4-1.14 2.74-.4 3.02v17.02h-1v-17.08l.42-3.22 1.24-3 2-2.6 2.6-2 3-1.23 3.2-.43h39.72zm129.56 0h-96.6v-1h96.6z" stroke="#333" stroke-width=".05" fill="#333"/><path d="M481.68 395.07h-.45v-1h.58z" fill="#333"/><path d="M481.7 395.1h-.5v-1.06h.63zm-.44-1v.94h.4l.12-.95z" stroke="#333" stroke-width=".05" fill="#333"/><path d="M300 438.38l-4.64-14.26h9.28z" fill="#333"/><path d="M300 440l-5.32-16.38h10.64zm-3.95-15.38l3.95 12.14 3.95-12.14z" stroke="#333" stroke-width=".05" fill="#333"/><use xlink:href="#c" transform="matrix(1,0,0,1,351.68111184569824,383.7680618031366) translate(0.004999999999999005 14.4)"/><path d="M236 440c-8.84 0-16 7.16-16 16v48c0 8.84 7.16 16 16 16h128c8.84 0 16-7.16 16-16v-48c0-8.84-7.16-16-16-16z" stroke="#000" stroke-opacity="0" fill="#00b098"/><use xlink:href="#d" transform="matrix(1,0,0,1,228,448) translate(33.061728395061735 26.488888888888887)"/><use xlink:href="#e" transform="matrix(1,0,0,1,228,448) translate(24.666666666666668 47.822222222222216)"/><path d="M553.18 344.5c3.65-2.48 9.56-2.48 13.2 0l66.8 45.56c3.65 2.5 3.65 6.53 0 9.02l-66.8 45.55c-3.64 2.5-9.55 2.5-13.2 0l-66.8-45.55c-3.64-2.5-3.64-6.53 0-9.02z" stroke="#009985" stroke-width="4" fill="#fff"/><path d="M514.8 369.17c0-4.42 3.57-8 8-8h74c4.4 0 8 3.58 8 8v50.8c0 4.42-3.6 8-8 8h-74c-4.43 0-8-3.58-8-8z" stroke="#000" stroke-opacity="0" fill="#fff" fill-opacity="0"/><use xlink:href="#f" transform="matrix(1,0,0,1,519.7852966476246,366.16806180313665) translate(6.713271604938271 12.722222222222221)"/><use xlink:href="#g" transform="matrix(1,0,0,1,519.7852966476246,366.16806180313665) translate(27.75030864197531 12.722222222222221)"/><use xlink:href="#h" transform="matrix(1,0,0,1,519.7852966476246,366.16806180313665) translate(-2.0083333333333258 31.65555555555556)"/><use xlink:href="#i" transform="matrix(1,0,0,1,519.7852966476246,366.16806180313665) translate(-3.366975308641976 50.58888888888889)"/><path d="M761.03 394.5l3 1.23 2.6 2 2 2.6 1.23 3 .43 3.2v17.1h-1V406.6l-.4-3.02-1.15-2.75-1.84-2.4-2.38-1.82-2.75-1.14-3.02-.4h-15.78v-1h15.85zm-122.7.57v-1h72.74v1z" stroke="#333" stroke-width=".05" fill="#333"/><path d="M638.34 395.07h-.58l.13-1h.44z" fill="#333"/><path d="M638.36 395.1h-.62l.13-1.06h.5zm-.45-1l-.1.94h.5v-.95z" stroke="#333" stroke-width=".05" fill="#333"/><path d="M769.8 438.38l-4.65-14.26h9.27z" fill="#333"/><path d="M769.8 440l-5.34-16.38h10.65zm-3.96-15.38l3.95 12.14 3.93-12.14z" stroke="#333" stroke-width=".05" fill="#333"/><use xlink:href="#j" transform="matrix(1,0,0,1,711.0718331499356,383.7680618031366) translate(0.005000000000000782 14.4)"/><path d="M705.8 440c-8.85 0-16 7.16-16 16v48c0 8.84 7.15 16 16 16h128c8.82 0 16-7.16 16-16v-48c0-8.84-7.18-16-16-16z" stroke="#000" stroke-opacity="0" fill="#00b098"/><use xlink:href="#k" transform="matrix(1,0,0,1,697.7852966476246,448) translate(39.925925925925924 26.488888888888887)"/><use xlink:href="#e" transform="matrix(1,0,0,1,697.7852966476246,448) translate(24.666666666666668 47.822222222222216)"/><path d="M368.4 1020.45c3.64-2.5 9.56-2.5 13.2 0l66.8 45.55c3.64 2.5 3.64 6.52 0 9l-66.8 45.57c-3.64 2.5-9.56 2.5-13.2 0L301.6 1075c-3.64-2.48-3.64-6.5 0-9z" stroke="#009985" stroke-width="4" fill="#fff"/><path d="M330 1045.1c0-4.4 3.58-8 8-8h74c4.42 0 8 3.6 8 8v50.8c0 4.42-3.58 8-8 8h-74c-4.42 0-8-3.58-8-8z" stroke="#000" stroke-opacity="0" fill="#fff" fill-opacity="0"/><use xlink:href="#f" transform="matrix(1,0,0,1,334.99999999999994,1042.105453989595) translate(6.713271604938271 23.309722222222224)"/><use xlink:href="#g" transform="matrix(1,0,0,1,334.99999999999994,1042.105453989595) translate(27.75030864197531 23.309722222222224)"/><use xlink:href="#l" transform="matrix(1,0,0,1,334.99999999999994,1042.105453989595) translate(1.4540123456790184 42.24305555555556)"/><path d="M320 600c0 11.05-8.95 20-20 20s-20-8.95-20-20 8.95-20 20-20 20 8.95 20 20z" stroke="#666" fill="#fff"/><path d="M312 600c0 6.63-5.37 12-12 12s-12-5.37-12-12 5.37-12 12-12 12 5.37 12 12z" stroke="#666"/><path d="M300 520.5v42.62" stroke="#333" fill="none"/><path d="M300.5 520.5h-1v-.5h1z" stroke="#333" stroke-width=".05" fill="#333"/><path d="M300 577.88l-4.64-14.26h9.28z" stroke="#333" fill="#333"/><path d="M1396 720c-8.84 0-16 7.16-16 16v48c0 8.84 7.16 16 16 16h128c8.84 0 16-7.16 16-16v-48c0-8.84-7.16-16-16-16z" stroke="#000" stroke-opacity="0" fill="#00b098"/><use xlink:href="#m" transform="matrix(1,0,0,1,1388,728) translate(3.5999999999999943 24.799999999999997)"/><use xlink:href="#n" transform="matrix(1,0,0,1,1388,728) translate(73.55 24.799999999999997)"/><use xlink:href="#o" transform="matrix(1,0,0,1,1388,728) translate(11.574999999999996 46.4)"/><use xlink:href="#p" transform="matrix(1,0,0,1,1388,728) translate(36.574999999999996 46.4)"/><path d="M689.8 588c0-4.42 3.57-8 8-8h144c4.4 0 8 3.58 8 8v4c0 4.42-3.6 8-8 8h-144c-4.43 0-8-3.58-8-8z" stroke="#333"/><path d="M769.8 520.5v42.62" stroke="#333" fill="none"/><path d="M770.3 520.5h-1v-.5h1z" stroke="#333" stroke-width=".05" fill="#333"/><path d="M769.8 577.88l-4.65-14.26h9.27z" stroke="#333" fill="#333"/><path d="M729.8 600.5V638c0 6.63-5.4 12-12 12H507c-6.63 0-12 5.37-12 12v21.62" stroke="#333" fill="none"/><path d="M730.3 600.5h-1 1z" stroke="#333" stroke-width=".05" fill="#333"/><path d="M495 698.38l-4.64-14.26h9.28z" stroke="#333" fill="#333"/><path d="M809.8 600.5V628c0 6.63 5.36 12 12 12h607.37c6.63 0 12 5.37 12 12v51.62" stroke="#333" fill="none"/><path d="M810.3 600.5h-1 1z" stroke="#333" stroke-width=".05" fill="#333"/><path d="M1441.17 718.38l-4.64-14.26h9.27z" stroke="#333" fill="#333"/><path d="M1396 900c-8.84 0-16 7.16-16 16v48c0 8.84 7.16 16 16 16h128c8.84 0 16-7.16 16-16v-48c0-8.84-7.16-16-16-16z" stroke="#000" stroke-opacity="0" fill="#00b098"/><use xlink:href="#q" transform="matrix(1,0,0,1,1388,908) translate(6.275000000000006 24.799999999999997)"/><use xlink:href="#r" transform="matrix(1,0,0,1,1388,908) translate(88.72500000000001 24.799999999999997)"/><use xlink:href="#o" transform="matrix(1,0,0,1,1388,908) translate(20.525 46.4)"/><use xlink:href="#s" transform="matrix(1,0,0,1,1388,908) translate(45.525 46.4)"/><path d="M1460 800.5v83.12" stroke="#333" fill="none"/><path d="M1460.5 800.5h-1v-.5h1z" stroke="#333" stroke-width=".05" fill="#333"/><path d="M1460 898.38l-4.64-14.26h9.28z" stroke="#333" fill="#333"/><path d="M1480 1040c0 11.05-8.95 20-20 20s-20-8.95-20-20 8.95-20 20-20 20 8.95 20 20z" stroke="#666" fill="#fff"/><path d="M1472 1040c0 6.63-5.37 12-12 12s-12-5.37-12-12 5.37-12 12-12 12 5.37 12 12z" stroke="#666"/><path d="M1460.45 980.5v22.67" stroke="#333" fill="none"/><path d="M1460.95 980.5h-1v-.5h1z" stroke="#333" stroke-width=".05" fill="#333"/><path d="M1460.45 1017.93l-4.64-14.26h9.28z" stroke="#333" fill="#333"/><path d="M96 1135.94c-8.84 0-16 7.16-16 16v48c0 8.83 7.16 16 16 16h128c8.84 0 16-7.17 16-16v-48c0-8.84-7.16-16-16-16z" stroke="#000" stroke-opacity="0" fill="#00b098"/><use xlink:href="#t" transform="matrix(1,0,0,1,88,1143.9373921864585) translate(32.574999999999996 24.799999999999997)"/><use xlink:href="#s" transform="matrix(1,0,0,1,88,1143.9373921864585) translate(33.025 46.4)"/><path d="M211.2 1071h-39.17l-3 .4-2.77 1.14-2.4 1.84-1.82 2.4-1.14 2.74-.4 3.02v37h-1v-37.07l.42-3.2 1.24-3 2-2.6 2.6-2 3-1.24 3.2-.42h39.25zm85.26 0h-52.3v-1h52.3z" stroke="#333" stroke-width=".05" fill="#333"/><path d="M296.9 1071h-.45v-1h.57z" fill="#333"/><path d="M296.92 1071.03h-.5v-1.05h.63zm-.45-1v.95h.4l.12-.95z" stroke="#333" stroke-width=".05" fill="#333"/><path d="M160 1134.32l-4.64-14.27h9.28z" fill="#333"/><path d="M160 1135.94l-5.32-16.4h10.64zm-3.95-15.4l3.95 12.16 3.95-12.15z" stroke="#333" stroke-width=".05" fill="#333"/><use xlink:href="#u" transform="matrix(1,0,0,1,211.2122752303566,1059.7054539895946) translate(0.004999999999999005 14.4)"/><path d="M431 700c-8.84 0-16 7.16-16 16v48c0 8.84 7.16 16 16 16h128c8.84 0 16-7.16 16-16v-48c0-8.84-7.16-16-16-16z" stroke="#000" stroke-opacity="0" fill="#00b098"/><use xlink:href="#m" transform="matrix(1,0,0,1,423.00000000000006,708) translate(12.549999999999997 35.6)"/><use xlink:href="#v" transform="matrix(1,0,0,1,423.00000000000006,708) translate(82.5 35.6)"/><path d="M1035.8 900c-8.85 0-16 7.16-16 16v48c0 8.84 7.15 16 16 16h128c8.82 0 16-7.16 16-16v-48c0-8.84-7.18-16-16-16z" stroke="#000" stroke-opacity="0" fill="#00b098"/><use xlink:href="#w" transform="matrix(1,0,0,1,1027.7852966476246,908) translate(6.075000000000003 24.799999999999997)"/><use xlink:href="#x" transform="matrix(1,0,0,1,1027.7852966476246,908) translate(63.925000000000004 24.799999999999997)"/><use xlink:href="#y" transform="matrix(1,0,0,1,1027.7852966476246,908) translate(117.925 24.799999999999997)"/><use xlink:href="#p" transform="matrix(1,0,0,1,1027.7852966476246,908) translate(24.074999999999996 46.4)"/><path d="M769.8 601v47.25c0 6.63 5.36 12 12 12h306c6.6 0 12 5.37 12 12v31.37" stroke="#333" fill="none"/><path d="M770.3 601h-1v-.5h1z" stroke="#333" stroke-width=".05" fill="#333"/><path d="M1099.8 718.38l-4.65-14.26h9.27z" stroke="#333" fill="#333"/><path d="M640 928c0-4.42 3.58-8 8-8h144c4.42 0 8 3.58 8 8v4c0 4.42-3.58 8-8 8H648c-4.42 0-8-3.58-8-8z" stroke="#333"/><path d="M1196 1200c-8.84 0-16 7.16-16 16v48c0 8.84 7.16 16 16 16h128c8.84 0 16-7.16 16-16v-48c0-8.84-7.16-16-16-16z" stroke="#000" stroke-opacity="0" fill="#00b098"/><use xlink:href="#m" transform="matrix(1,0,0,1,1188,1208) translate(3.5999999999999943 24.799999999999997)"/><use xlink:href="#n" transform="matrix(1,0,0,1,1188,1208) translate(73.55 24.799999999999997)"/><use xlink:href="#z" transform="matrix(1,0,0,1,1188,1208) translate(35.025 46.4)"/><use xlink:href="#v" transform="matrix(1,0,0,1,1188,1208) translate(60.025 46.4)"/><path d="M760 940.5V1058c0 6.63 5.37 12 12 12h476c6.63 0 12 5.37 12 12v101.62" stroke="#333" fill="none"/><path d="M760.5 940.5h-1 1z" stroke="#333" stroke-width=".05" fill="#333"/><path d="M1260 1198.38l-4.64-14.26h9.28z" stroke="#333" fill="#333"/><path d="M1196 1335.94c-8.84 0-16 7.16-16 16v48c0 8.83 7.16 16 16 16h128c8.84 0 16-7.17 16-16v-48c0-8.84-7.16-16-16-16z" stroke="#000" stroke-opacity="0" fill="#00b098"/><use xlink:href="#q" transform="matrix(1,0,0,1,1188,1343.9373921864585) translate(6.275000000000006 24.799999999999997)"/><use xlink:href="#r" transform="matrix(1,0,0,1,1188,1343.9373921864585) translate(88.72500000000001 24.799999999999997)"/><use xlink:href="#o" transform="matrix(1,0,0,1,1188,1343.9373921864585) translate(20.525 46.4)"/><use xlink:href="#s" transform="matrix(1,0,0,1,1188,1343.9373921864585) translate(45.525 46.4)"/><path d="M1280 1494.77c0 11.05-8.95 20-20 20s-20-8.95-20-20 8.95-20 20-20 20 8.95 20 20z" stroke="#666" fill="#fff"/><path d="M1272 1494.77c0 6.63-5.37 12-12 12s-12-5.37-12-12 5.37-12 12-12 12 5.37 12 12z" stroke="#666"/><path d="M1260 1416.44v41.45" stroke="#333" fill="none"/><path d="M1260.5 1416.45h-1v-.5h1z" stroke="#333" stroke-width=".05" fill="#333"/><path d="M1260 1472.65l-4.64-14.26h9.28z" stroke="#333" fill="#333"/><path d="M1260 1280.5v39.05" stroke="#333" fill="none"/><path d="M1260.5 1280.5h-1v-.5h1z" stroke="#333" stroke-width=".05" fill="#333"/><path d="M1260 1334.32l-4.64-14.27h9.28z" stroke="#333" fill="#333"/><path d="M316 1240c-8.84 0-16 7.16-16 16v48c0 8.84 7.16 16 16 16h128c8.84 0 16-7.16 16-16v-48c0-8.84-7.16-16-16-16z" stroke="#000" stroke-opacity="0" fill="#00b098"/><use xlink:href="#A" transform="matrix(1,0,0,1,308,1248) translate(19.599999999999994 24.799999999999997)"/><use xlink:href="#B" transform="matrix(1,0,0,1,308,1248) translate(80.45 24.799999999999997)"/><use xlink:href="#C" transform="matrix(1,0,0,1,308,1248) translate(43.55 46.4)"/><path d="M680 940.5v25.83c0 6.63-5.37 12-12 12H387c-6.63 0-12 5.38-12 12v9.96" stroke="#333" fill="none"/><path d="M680.5 940.5h-1 1z" stroke="#333" stroke-width=".05" fill="#333"/><path d="M375 1015.05l-4.64-14.26h9.28z" stroke="#333" fill="#333"/><path d="M495 780.5v57.25c0 6.63 5.37 12 12 12h201c6.63 0 12 5.37 12 12v41.37" stroke="#333" fill="none"/><path d="M495.5 780.5h-1v-.5h1z" stroke="#333" stroke-width=".05" fill="#333"/><path d="M720 917.88l-4.64-14.26h9.28z" stroke="#333" fill="#333"/><path d="M859.8 246.14c0-4.42 3.57-8 8-8h144c4.4 0 8 3.58 8 8v4c0 4.42-3.6 8-8 8h-144c-4.43 0-8-3.58-8-8z" stroke="#333"/><path d="M939.8 207.24v14" stroke="#333" fill="none"/><path d="M940.3 207.25h-1v-.5h1z" stroke="#333" stroke-width=".05" fill="#333"/><path d="M939.8 236.02l-4.65-14.27h9.27z" stroke="#333" fill="#333"/><path d="M1156 340c-8.84 0-16 7.16-16 16v48c0 8.84 7.16 16 16 16h128c8.84 0 16-7.16 16-16v-48c0-8.84-7.16-16-16-16z" stroke="#000" stroke-opacity="0" fill="#00b098"/><use xlink:href="#D" transform="matrix(1,0,0,1,1148,348) translate(19.234567901234566 26.488888888888887)"/><use xlink:href="#E" transform="matrix(1,0,0,1,1148,348) translate(76.37037037037038 26.488888888888887)"/><use xlink:href="#F" transform="matrix(1,0,0,1,1148,348) translate(37.925925925925924 47.822222222222216)"/><use xlink:href="#G" transform="matrix(1,0,0,1,1148,348) translate(62.617283950617285 47.822222222222216)"/><path d="M979.8 258.64v28.43c0 6.63 5.36 12 12 12H1208c6.63 0 12 5.37 12 12v12.55" stroke="#333" fill="none"/><path d="M980.3 258.65h-1 1z" stroke="#333" stroke-width=".05" fill="#333"/><path d="M1220 338.38l-4.64-14.26h9.28z" stroke="#333" fill="#333"/><path d="M1240 480c0 11.05-8.95 20-20 20s-20-8.95-20-20 8.95-20 20-20 20 8.95 20 20z" stroke="#666" fill="#fff"/><path d="M1232 480c0 6.63-5.37 12-12 12s-12-5.37-12-12 5.37-12 12-12 12 5.37 12 12z" stroke="#666"/><path d="M1220 420.5v22.62" stroke="#333" fill="none"/><path d="M1220.5 420.5h-1v-.5h1z" stroke="#333" stroke-width=".05" fill="#333"/><path d="M1220 457.88l-4.64-14.26h9.28z" stroke="#333" fill="#333"/><path d="M1120 1040c0 11.05-8.95 20-20 20s-20-8.95-20-20 8.95-20 20-20 20 8.95 20 20z" stroke="#666" fill="#fff"/><path d="M1112 1040c0 6.63-5.37 12-12 12s-12-5.37-12-12 5.37-12 12-12 12 5.37 12 12z" stroke="#666"/><path d="M1100 980.5v22.62" stroke="#333" fill="none"/><path d="M1100.5 980.5h-1v-.5h1z" stroke="#333" stroke-width=".05" fill="#333"/><path d="M1100 1017.88l-4.64-14.26h9.28z" stroke="#333" fill="#333"/><path d="M180 1280c0 11.05-8.95 20-20 20s-20-8.95-20-20 8.95-20 20-20 20 8.95 20 20z" stroke="#666" fill="#fff"/><path d="M172 1280c0 6.63-5.37 12-12 12s-12-5.37-12-12 5.37-12 12-12 12 5.37 12 12z" stroke="#666"/><path d="M160 1216.44v26.68" stroke="#333" fill="none"/><path d="M160.5 1216.45h-1v-.5h1z" stroke="#333" stroke-width=".05" fill="#333"/><path d="M160 1257.88l-4.64-14.26h9.28z" stroke="#333" fill="#333"/><path d="M510.95 1165.64c0-4.42 3.58-8 8-8h144c4.42 0 8 3.58 8 8v4c0 4.42-3.58 8-8 8h-144c-4.42 0-8-3.58-8-8z" stroke="#333"/><path d="M582.2 1070.43l3 1.24 2.6 2 2 2.6 1.23 3 .42 3.2v58.3h-1v-58.23l-.4-3.02-1.14-2.75-1.82-2.4-2.4-1.83-2.75-1.14-1.17-.15v-1zm-128.66.58v-1h96.32v1z" stroke="#333" stroke-width=".05" fill="#333"/><path d="M453.55 1071h-.57l.12-1h.45z" fill="#333"/><path d="M453.58 1071.03h-.63l.13-1.05h.5zm-.46-1l-.1.95h.5v-.95z" stroke="#333" stroke-width=".05" fill="#333"/><path d="M590.95 1155.52l-4.64-14.26h9.28z" fill="#333"/><path d="M590.95 1157.14l-5.32-16.38h10.64zm-3.95-15.38l3.95 12.14 3.95-12.14z" stroke="#333" stroke-width=".05" fill="#333"/><use xlink:href="#j" transform="matrix(1,0,0,1,549.8618425319963,1059.705453820716) translate(0.005000000000000782 14.4)"/><path d="M550.95 1178.14v18.68c0 6.63-5.37 12-12 12H392c-6.63 0-12 5.37-12 12v2.8" stroke="#333" fill="none"/><path d="M551.45 1178.15h-1 1z" stroke="#333" stroke-width=".05" fill="#333"/><path d="M380 1238.38l-4.64-14.26h9.28z" stroke="#333" fill="#333"/><path d="M316 1380c-8.84 0-16 7.16-16 16v48c0 8.84 7.16 16 16 16h128c8.84 0 16-7.16 16-16v-48c0-8.84-7.16-16-16-16z" stroke="#000" stroke-opacity="0" fill="#00b098"/><use xlink:href="#H" transform="matrix(1,0,0,1,308,1388) translate(6.574999999999989 24.799999999999997)"/><use xlink:href="#I" transform="matrix(1,0,0,1,308,1388) translate(57.474999999999994 24.799999999999997)"/><use xlink:href="#J" transform="matrix(1,0,0,1,308,1388) translate(32.525 46.4)"/><use xlink:href="#K" transform="matrix(1,0,0,1,308,1388) translate(57.525 46.4)"/><path d="M380 1320.5v43.12" stroke="#333" fill="none"/><path d="M380.5 1320.5h-1v-.5h1z" stroke="#333" stroke-width=".05" fill="#333"/><path d="M380 1378.38l-4.64-14.26h9.28z" stroke="#333" fill="#333"/><path d="M796 1240c-8.84 0-16 7.16-16 16v48c0 8.84 7.16 16 16 16h128c8.84 0 16-7.16 16-16v-48c0-8.84-7.16-16-16-16z" stroke="#000" stroke-opacity="0" fill="#00b098"/><use xlink:href="#L" transform="matrix(1,0,0,1,788,1248) translate(6.099999999999994 24.799999999999997)"/><use xlink:href="#M" transform="matrix(1,0,0,1,788,1248) translate(83.9 24.799999999999997)"/><use xlink:href="#N" transform="matrix(1,0,0,1,788,1248) translate(117.9 24.799999999999997)"/><use xlink:href="#O" transform="matrix(1,0,0,1,788,1248) translate(30.549999999999997 46.4)"/><path d="M630.95 1178.14v18.68c0 6.63 5.37 12 12 12H848c6.63 0 12 5.37 12 12v2.8" stroke="#333" fill="none"/><path d="M631.45 1178.15h-1 1z" stroke="#333" stroke-width=".05" fill="#333"/><path d="M860 1238.38l-4.64-14.26h9.28z" stroke="#333" fill="#333"/><path d="M526.95 1240c-8.84 0-16 7.16-16 16v48c0 8.84 7.16 16 16 16h128c8.84 0 16-7.16 16-16v-48c0-8.84-7.16-16-16-16z" stroke="#000" stroke-opacity="0" fill="#00b098"/><use xlink:href="#P" transform="matrix(1,0,0,1,518.9489419035674,1248) translate(33.275 14.4)"/><use xlink:href="#Q" transform="matrix(1,0,0,1,518.9489419035674,1248) translate(25.525 36)"/><use xlink:href="#y" transform="matrix(1,0,0,1,518.9489419035674,1248) translate(98.475 36)"/><use xlink:href="#s" transform="matrix(1,0,0,1,518.9489419035674,1248) translate(33.025 57.6)"/><path d="M590.95 1178.64v44.98" stroke="#333" fill="none"/><path d="M591.45 1178.65h-1v-.5h1z" stroke="#333" stroke-width=".05" fill="#333"/><path d="M590.95 1238.38l-4.64-14.26h9.28z" stroke="#333" fill="#333"/><path d="M526.95 1380c-8.84 0-16 7.16-16 16v48c0 8.84 7.16 16 16 16h128c8.84 0 16-7.16 16-16v-48c0-8.84-7.16-16-16-16z" stroke="#000" stroke-opacity="0" fill="#00b098"/><use xlink:href="#R" transform="matrix(1,0,0,1,518.9489419035674,1388) translate(12.074999999999996 24.799999999999997)"/><use xlink:href="#S" transform="matrix(1,0,0,1,518.9489419035674,1388) translate(63.975 24.799999999999997)"/><use xlink:href="#o" transform="matrix(1,0,0,1,518.9489419035674,1388) translate(20.525 46.4)"/><use xlink:href="#s" transform="matrix(1,0,0,1,518.9489419035674,1388) translate(45.525 46.4)"/><path d="M590.95 1320.5v43.12" stroke="#333" fill="none"/><path d="M591.45 1320.5h-1v-.5h1z" stroke="#333" stroke-width=".05" fill="#333"/><path d="M590.95 1378.38l-4.64-14.26h9.28z" stroke="#333" fill="#333"/><path d="M610.95 1540c0 11.05-8.96 20-20 20-11.05 0-20-8.95-20-20s8.95-20 20-20c11.04 0 20 8.95 20 20z" stroke="#666" fill="#fff"/><path d="M602.95 1540c0 6.63-5.37 12-12 12s-12-5.37-12-12 5.37-12 12-12 12 5.37 12 12z" stroke="#666"/><path d="M590.95 1460.5v42.62" stroke="#333" fill="none"/><path d="M591.45 1460.5h-1v-.5h1z" stroke="#333" stroke-width=".05" fill="#333"/><path d="M590.95 1517.88l-4.64-14.26h9.28z" stroke="#333" fill="#333"/><path d="M316 1520c-8.84 0-16 7.16-16 16v48c0 8.84 7.16 16 16 16h128c8.84 0 16-7.16 16-16v-48c0-8.84-7.16-16-16-16z" stroke="#000" stroke-opacity="0" fill="#00b098"/><use xlink:href="#P" transform="matrix(1,0,0,1,308,1528) translate(33.275 14.4)"/><use xlink:href="#T" transform="matrix(1,0,0,1,308,1528) translate(19.525 36)"/><use xlink:href="#N" transform="matrix(1,0,0,1,308,1528) translate(104.475 36)"/><use xlink:href="#K" transform="matrix(1,0,0,1,308,1528) translate(45.025 57.6)"/><path d="M380 1460.5v43.12" stroke="#333" fill="none"/><path d="M380.5 1460.5h-1v-.5h1z" stroke="#333" stroke-width=".05" fill="#333"/><path d="M380 1518.38l-4.64-14.26h9.28z" stroke="#333" fill="#333"/><path d="M400 1680c0 11.05-8.95 20-20 20s-20-8.95-20-20 8.95-20 20-20 20 8.95 20 20z" stroke="#666" fill="#fff"/><path d="M392 1680c0 6.63-5.37 12-12 12s-12-5.37-12-12 5.37-12 12-12 12 5.37 12 12z" stroke="#666"/><path d="M380 1600.5v42.62" stroke="#333" fill="none"/><path d="M380.5 1600.5h-1v-.5h1z" stroke="#333" stroke-width=".05" fill="#333"/><path d="M380 1657.88l-4.64-14.26h9.28z" stroke="#333" fill="#333"/><path d="M1035.8 720c-8.85 0-16 7.16-16 16v48c0 8.84 7.15 16 16 16h128c8.82 0 16-7.16 16-16v-48c0-8.84-7.18-16-16-16z" stroke="#000" stroke-opacity="0" fill="#00b098"/><g><use xlink:href="#q" transform="matrix(1,0,0,1,1027.7852966476246,728) translate(6.275000000000006 24.799999999999997)"/><use xlink:href="#r" transform="matrix(1,0,0,1,1027.7852966476246,728) translate(88.72500000000001 24.799999999999997)"/><use xlink:href="#o" transform="matrix(1,0,0,1,1027.7852966476246,728) translate(11.574999999999996 46.4)"/><use xlink:href="#p" transform="matrix(1,0,0,1,1027.7852966476246,728) translate(36.574999999999996 46.4)"/></g><path d="M1099.8 800.5v83.12" stroke="#333" fill="none"/><path d="M1100.3 800.5h-1v-.5h1z" stroke="#333" stroke-width=".05" fill="#333"/><path d="M1099.8 898.38l-4.65-14.26h9.27z" stroke="#333" fill="#333"/><path d="M860 1320.5v43.85" stroke="#333" fill="none"/><path d="M860.5 1320.5h-1v-.5h1z" stroke="#333" stroke-width=".05" fill="#333"/><path d="M860 1379.1l-4.64-14.25h9.28z" stroke="#333" fill="#333"/><path d="M853.4 1384.5c3.64-2.48 9.56-2.48 13.2 0l66.8 45.56c3.64 2.5 3.64 6.53 0 9.02l-66.8 45.55c-3.64 2.5-9.56 2.5-13.2 0l-66.8-45.55c-3.64-2.5-3.64-6.53 0-9.02z" stroke="#009985" stroke-width="4" fill="#fff"/><path d="M815 1409.17c0-4.42 3.58-8 8-8h74c4.42 0 8 3.58 8 8v50.8c0 4.42-3.58 8-8 8h-74c-4.42 0-8-3.58-8-8z" stroke="#000" stroke-opacity="0" fill="#fff" fill-opacity="0"/><g><use xlink:href="#U" transform="matrix(1,0,0,1,820,1406.168061803137) translate(1.8922839506172835 12.722222222222221)"/><use xlink:href="#V" transform="matrix(1,0,0,1,820,1406.168061803137) translate(69.34228395061729 12.722222222222221)"/><use xlink:href="#W" transform="matrix(1,0,0,1,820,1406.168061803137) translate(9.342901234567904 31.65555555555556)"/><use xlink:href="#X" transform="matrix(1,0,0,1,820,1406.168061803137) translate(53.126234567901236 31.65555555555556)"/><use xlink:href="#Y" transform="matrix(1,0,0,1,820,1406.168061803137) translate(-0.7154320987654259 50.58888888888889)"/></g><path d="M740.5 1523.62h-1v-69.76h1zm40.96-88.55h-25v-1h25z" stroke="#333" stroke-width=".05" fill="#333"/><path d="M781.9 1435.07h-.45v-1h.57z" fill="#333"/><path d="M781.92 1435.1h-.5v-1.06h.63zm-.45-1v.94h.4l.12-.95z" stroke="#333" stroke-width=".05" fill="#333"/><path d="M740 1538.38l-4.64-14.26h9.28z" fill="#333"/><path d="M740 1540l-5.32-16.38h10.64zm-3.95-15.38l3.95 12.14 3.95-12.14z" stroke="#333" stroke-width=".05" fill="#333"/><g><use xlink:href="#u" transform="matrix(1,0,0,1,723.525,1432.2561295930377) translate(0.004999999999999005 14.4)"/></g><path d="M676 1540c-8.84 0-16 7.16-16 16v48c0 8.84 7.16 16 16 16h128c8.84 0 16-7.16 16-16v-48c0-8.84-7.16-16-16-16z" stroke="#000" stroke-opacity="0" fill="#00b098"/><g><use xlink:href="#Z" transform="matrix(1,0,0,1,668,1548) translate(19.525 14.4)"/><use xlink:href="#aa" transform="matrix(1,0,0,1,668,1548) translate(69.475 14.4)"/><use xlink:href="#ab" transform="matrix(1,0,0,1,668,1548) translate(104.475 14.4)"/><use xlink:href="#ac" transform="matrix(1,0,0,1,668,1548) translate(2.5749999999999886 36)"/><use xlink:href="#ad" transform="matrix(1,0,0,1,668,1548) translate(90.475 36)"/><use xlink:href="#ae" transform="matrix(1,0,0,1,668,1548) translate(131.425 36)"/><use xlink:href="#af" transform="matrix(1,0,0,1,668,1548) translate(43.525 57.6)"/></g><path d="M956 1540c-8.84 0-16 7.16-16 16v48c0 8.84 7.16 16 16 16h128c8.84 0 16-7.16 16-16v-48c0-8.84-7.16-16-16-16z" stroke="#000" stroke-opacity="0" fill="#00b098"/><g><use xlink:href="#ag" transform="matrix(1,0,0,1,948,1548) translate(9.649999999999991 14.4)"/><use xlink:href="#ah" transform="matrix(1,0,0,1,948,1548) translate(74.5 14.4)"/><use xlink:href="#J" transform="matrix(1,0,0,1,948,1548) translate(32.5 36)"/><use xlink:href="#M" transform="matrix(1,0,0,1,948,1548) translate(57.5 36)"/><use xlink:href="#N" transform="matrix(1,0,0,1,948,1548) translate(91.5 36)"/><use xlink:href="#O" transform="matrix(1,0,0,1,948,1548) translate(30.549999999999997 57.6)"/></g><path d="M1020.5 1523.62h-1v-66.52h1zm-9.26-89.13l2.46 1h-2.62l-.1-.04-3-.4h-69.44v-1h69.5z" stroke="#333" stroke-width=".05" fill="#333"/><path d="M938.55 1435.07h-.57l.12-1h.45z" fill="#333"/><path d="M938.58 1435.1h-.63l.13-1.06h.5zm-.46-1l-.1.94h.5v-.95z" stroke="#333" stroke-width=".05" fill="#333"/><path d="M1020 1538.38l-4.64-14.26h9.28z" fill="#333"/><path d="M1020 1540l-5.32-16.38h10.64zm-3.95-15.38l3.95 12.14 3.95-12.14z" stroke="#333" stroke-width=".05" fill="#333"/><g><use xlink:href="#j" transform="matrix(1,0,0,1,1004.55,1435.504598231387) translate(0.005000000000000782 14.4)"/></g><path d="M760 1680c0 11.05-8.95 20-20 20s-20-8.95-20-20 8.95-20 20-20 20 8.95 20 20z" stroke="#666" fill="#fff"/><path d="M752 1680c0 6.63-5.37 12-12 12s-12-5.37-12-12 5.37-12 12-12 12 5.37 12 12z" stroke="#666"/><path d="M740 1659v-39.5 23.6" stroke="#333" fill="none"/><path d="M740.5 1659.56l-.48-.06-.52.02v-.53h1z" stroke="#333" stroke-width=".05" fill="#333"/><path d="M740 1657.88l-4.64-14.27h9.28z" stroke="#333" fill="#333"/><path d="M1040 1680c0 11.05-8.95 20-20 20s-20-8.95-20-20 8.95-20 20-20 20 8.95 20 20z" stroke="#666" fill="#fff"/><path d="M1032 1680c0 6.63-5.37 12-12 12s-12-5.37-12-12 5.37-12 12-12 12 5.37 12 12z" stroke="#666"/><path d="M1020 1620.5v22.62" stroke="#333" fill="none"/><path d="M1020.5 1620.5h-1v-.5h1z" stroke="#333" stroke-width=".05" fill="#333"/><path d="M1020 1657.88l-4.64-14.26h9.28z" stroke="#333" fill="#333"/><defs><path fill="#fff" d="M249-183c0 48-29 72-75 77L221 0h-36l-43-103H65L45 0H11l48-248c83 2 190-17 190 65zm-34 3c0-55-74-39-127-41l-18 92c63-1 145 13 145-51" id="ai"/><path fill="#fff" d="M111-194c62-3 86 47 72 106H45c-7 38 6 69 45 68 27-1 43-14 53-32l24 11C152-15 129 4 87 4 38 3 12-23 12-71c0-70 32-119 99-123zm44 81c14-66-71-72-95-28-4 8-8 17-11 28h106" id="aj"/><path fill="#fff" d="M165-48c-4 18 1 34 23 27l-3 20c-29 8-62 0-52-35h-2C116-14 99 4 63 4 30 4 8-16 8-49c0-68 71-67 138-67 10-26 0-56-31-54-26 1-42 9-47 31l-32-5c8-67 160-71 144 15-5 28-9 54-15 81zM42-50c3 52 80 24 89-6 7-12 7-24 11-38-47 1-103-4-100 44" id="ak"/><path fill="#fff" d="M6 0l50-261h32L37 0H6" id="al"/><path fill="#fff" d="M50-231l6-30h32l-6 30H50zM6 0l37-190h31L37 0H6" id="am"/><path fill="#fff" d="M-8 0l5-24 140-142H31l5-24h145l-5 24L36-24h119l-5 24H-8" id="an"/><path fill="#fff" d="M66-151c12-25 30-51 66-40l-6 26C45-176 58-65 38 0H6l36-190h30" id="ao"/><g id="a"><use transform="matrix(0.04938271604938272,0,0,0.04938271604938272,0,0)" xlink:href="#ai"/><use transform="matrix(0.04938271604938272,0,0,0.04938271604938272,12.790123456790125,0)" xlink:href="#aj"/><use transform="matrix(0.04938271604938272,0,0,0.04938271604938272,22.66666666666667,0)" xlink:href="#ak"/><use transform="matrix(0.04938271604938272,0,0,0.04938271604938272,32.543209876543216,0)" xlink:href="#al"/><use transform="matrix(0.04938271604938272,0,0,0.04938271604938272,36.44444444444445,0)" xlink:href="#am"/><use transform="matrix(0.04938271604938272,0,0,0.04938271604938272,40.345679012345684,0)" xlink:href="#an"/><use transform="matrix(0.04938271604938272,0,0,0.04938271604938272,49.23456790123457,0)" xlink:href="#ak"/><use transform="matrix(0.04938271604938272,0,0,0.04938271604938272,59.111111111111114,0)" xlink:href="#ao"/></g><path fill="#fff" d="M67 3c-93-2-31-127-26-193h32L48-50c-3 39 53 32 70 12 30-34 30-101 43-152h32L157 0h-30c1-10 6-24 4-33-14 20-29 37-64 36" id="ap"/><path fill="#fff" d="M51-54c-9 22 5 41 31 30L79-1C43 14 10-4 19-52l22-115H19l5-23h22l19-43h21l-9 43h35l-4 23H73" id="aq"/><path fill="#fff" d="M67-158c22-48 132-52 116 29L158 0h-32l25-140c3-38-53-32-70-12C52-117 51-52 38 0H6l36-190h30" id="ar"/><path fill="#fff" d="M44-68c0 29 11 47 38 47 30 0 42-19 51-41l28 9C148-21 126 4 82 4 31 4 10-29 12-85c3-77 74-140 146-93 12 8 15 23 18 40l-31 5c-1-22-13-36-36-36-52 0-65 49-65 101" id="as"/><path fill="#fff" d="M44-68c0 29 11 47 38 47 30 0 42-19 51-41l28 9C148-21 126 4 82 4 31 4 10-29 12-85c3-77 74-140 146-93 12 8 15 23 18 40l-31 5c-1-22-13-36-36-36-52 0-65 49-65 101zM85 43c0-13-18-15-31-12L71 0h19L80 17c16 1 28 8 28 24 0 34-40 36-72 32l4-16c19 4 44 4 45-14" id="at"/><path fill="#fff" d="M166-48c-4 18 1 34 23 27l-3 20c-29 8-62 0-52-35h-2C117-14 100 4 64 4 31 4 9-16 9-49c0-68 71-67 138-67 10-26 0-56-31-54-26 1-42 9-47 31l-32-5c8-67 160-71 144 15-5 28-9 54-15 81zM43-50c3 52 80 24 89-6 7-12 7-24 11-38-47 1-103-4-100 44zm150-208c-8 21-15 46-44 47-22 0-30-19-50-21-14 0-21 10-25 21H58c8-21 14-47 44-47 22 0 32 18 50 21 13-1 21-10 25-21h16" id="au"/><path fill="#fff" d="M30-147c31-64 166-65 159 27C183-49 158 1 86 4 9 8 1-88 30-147zM88-20c53 0 68-48 68-100 0-31-11-51-44-50-52 1-68 46-68 97 0 32 13 53 44 53" id="av"/><g id="b"><use transform="matrix(0.04938271604938272,0,0,0.04938271604938272,0,0)" xlink:href="#ak"/><use transform="matrix(0.04938271604938272,0,0,0.04938271604938272,9.876543209876544,0)" xlink:href="#ap"/><use transform="matrix(0.04938271604938272,0,0,0.04938271604938272,19.75308641975309,0)" xlink:href="#aq"/><use transform="matrix(0.04938271604938272,0,0,0.04938271604938272,24.69135802469136,0)" xlink:href="#aj"/><use transform="matrix(0.04938271604938272,0,0,0.04938271604938272,34.567901234567906,0)" xlink:href="#ar"/><use transform="matrix(0.04938271604938272,0,0,0.04938271604938272,44.44444444444445,0)" xlink:href="#aq"/><use transform="matrix(0.04938271604938272,0,0,0.04938271604938272,49.38271604938272,0)" xlink:href="#am"/><use transform="matrix(0.04938271604938272,0,0,0.04938271604938272,53.283950617283956,0)" xlink:href="#as"/><use transform="matrix(0.04938271604938272,0,0,0.04938271604938272,62.17283950617284,0)" xlink:href="#ak"/><use transform="matrix(0.04938271604938272,0,0,0.04938271604938272,72.0493827160494,0)" xlink:href="#at"/><use transform="matrix(0.04938271604938272,0,0,0.04938271604938272,80.93827160493828,0)" xlink:href="#au"/><use transform="matrix(0.04938271604938272,0,0,0.04938271604938272,90.81481481481482,0)" xlink:href="#av"/></g><path fill="#333" d="M190 0L58-211 59 0H30v-248h39L202-35l-2-213h31V0h-41" id="aw"/><path fill="#333" d="M141-36C126-15 110 5 73 4 37 3 15-17 15-53c-1-64 63-63 125-63 3-35-9-54-41-54-24 1-41 7-42 31l-33-3c5-37 33-52 76-52 45 0 72 20 72 64v82c-1 20 7 32 28 27v20c-31 9-61-2-59-35zM48-53c0 20 12 33 32 33 41-3 63-29 60-74-43 2-92-5-92 41zm117-205c-3 23-9 48-36 47-26-1-65-44-74 0H39c4-23 8-48 36-47s64 44 74 0h16" id="ax"/><path fill="#333" d="M100-194c62-1 85 37 85 99 1 63-27 99-86 99S16-35 15-95c0-66 28-99 85-99zM99-20c44 1 53-31 53-75 0-43-8-75-51-75s-53 32-53 75 10 74 51 75" id="ay"/><g id="c"><use transform="matrix(0.05,0,0,0.05,0,0)" xlink:href="#aw"/><use transform="matrix(0.05,0,0,0.05,12.950000000000001,0)" xlink:href="#ax"/><use transform="matrix(0.05,0,0,0.05,22.950000000000003,0)" xlink:href="#ay"/></g><path fill="#fff" d="M125-24c46 0 70-25 89-51l25 16C214-24 183 4 123 4 8 4-5-146 60-208c32-50 158-61 191-5 5 7 9 14 11 22l-32 10c-9-28-33-43-69-43-74 0-108 51-108 125 0 46 24 75 72 75" id="az"/><path fill="#fff" d="M133-28C103 26-5 8 13-77c13-62 24-115 90-117 29-1 46 15 56 35l19-102h32L160 0h-30zM45-64c-2 27 10 43 35 43 54-1 69-50 69-103 0-29-15-46-42-46-53-1-58 58-62 106" id="aA"/><path fill="#fff" d="M55-144c13 50 104 24 104 88C159 21 15 23 1-39l26-10c6 40 102 42 102-4-13-50-104-23-104-87 0-71 143-71 148-8l-29 4c-5-35-85-37-89 0" id="aB"/><g id="d"><use transform="matrix(0.04938271604938272,0,0,0.04938271604938272,0,0)" xlink:href="#az"/><use transform="matrix(0.04938271604938272,0,0,0.04938271604938272,12.790123456790125,0)" xlink:href="#ak"/><use transform="matrix(0.04938271604938272,0,0,0.04938271604938272,22.66666666666667,0)" xlink:href="#aA"/><use transform="matrix(0.04938271604938272,0,0,0.04938271604938272,32.543209876543216,0)" xlink:href="#ak"/><use transform="matrix(0.04938271604938272,0,0,0.04938271604938272,42.41975308641976,0)" xlink:href="#aB"/><use transform="matrix(0.04938271604938272,0,0,0.04938271604938272,51.308641975308646,0)" xlink:href="#aq"/><use transform="matrix(0.04938271604938272,0,0,0.04938271604938272,56.24691358024692,0)" xlink:href="#ao"/><use transform="matrix(0.04938271604938272,0,0,0.04938271604938272,62.12345679012346,0)" xlink:href="#ak"/><use transform="matrix(0.04938271604938272,0,0,0.04938271604938272,72,0)" xlink:href="#ao"/></g><path fill="#fff" d="M67-162c32-53 139-36 121 50C175-51 163 2 97 4 68 4 52-11 42-31 38 6 28 39 22 75H-9l50-265h29c-1 10 0 20-3 28zm89 36c0-26-10-43-35-43-54 0-67 50-69 103-1 29 14 45 42 46 53 0 62-58 62-106" id="aC"/><g id="e"><use transform="matrix(0.04938271604938272,0,0,0.04938271604938272,0,0)" xlink:href="#aC"/><use transform="matrix(0.04938271604938272,0,0,0.04938271604938272,9.876543209876544,0)" xlink:href="#ao"/><use transform="matrix(0.04938271604938272,0,0,0.04938271604938272,15.753086419753087,0)" xlink:href="#av"/><use transform="matrix(0.04938271604938272,0,0,0.04938271604938272,25.629629629629633,0)" xlink:href="#aC"/><use transform="matrix(0.04938271604938272,0,0,0.04938271604938272,35.50617283950618,0)" xlink:href="#ao"/><use transform="matrix(0.04938271604938272,0,0,0.04938271604938272,41.38271604938272,0)" xlink:href="#am"/><use transform="matrix(0.04938271604938272,0,0,0.04938271604938272,45.283950617283956,0)" xlink:href="#aj"/><use transform="matrix(0.04938271604938272,0,0,0.04938271604938272,55.1604938271605,0)" xlink:href="#aA"/><use transform="matrix(0.04938271604938272,0,0,0.04938271604938272,65.03703703703704,0)" xlink:href="#ak"/><use transform="matrix(0.04938271604938272,0,0,0.04938271604938272,74.91358024691358,0)" xlink:href="#aA"/><use transform="matrix(0.04938271604938272,0,0,0.04938271604938272,84.79012345679013,0)" xlink:href="#aj"/></g><path fill="#333" d="M153-248C145-148 188 4 80 4 36 3 13-21 6-62l32-5c4 25 16 42 43 43 27 0 39-20 39-49v-147H72v-28h81" id="aD"/><path fill="#333" d="M141-36C126-15 110 5 73 4 37 3 15-17 15-53c-1-64 63-63 125-63 3-35-9-54-41-54-24 1-41 7-42 31l-33-3c5-37 33-52 76-52 45 0 72 20 72 64v82c-1 20 7 32 28 27v20c-31 9-61-2-59-35zM48-53c0 20 12 33 32 33 41-3 63-29 60-74-43 2-92-5-92 41zm25-158c8-23 27-35 38-54h36v5l-58 49H73" id="aE"/><g id="f"><use transform="matrix(0.043827160493827164,0,0,0.043827160493827164,0,0)" xlink:href="#aD"/><use transform="matrix(0.043827160493827164,0,0,0.043827160493827164,7.888888888888889,0)" xlink:href="#aE"/></g><path fill="#333" d="M115-194c55 1 70 41 70 98S169 2 115 4C84 4 66-9 55-30l1 105H24l-1-265h31l2 30c10-21 28-34 59-34zm-8 174c40 0 45-34 45-75s-6-73-45-74c-42 0-51 32-51 76 0 43 10 73 51 73" id="aF"/><path fill="#333" d="M135-143c-3-34-86-38-87 0 15 53 115 12 119 90S17 21 10-45l28-5c4 36 97 45 98 0-10-56-113-15-118-90-4-57 82-63 122-42 12 7 21 19 24 35" id="aG"/><path fill="#333" d="M84 4C-5 8 30-112 23-190h32v120c0 31 7 50 39 49 72-2 45-101 50-169h31l1 190h-30c-1-10 1-25-2-33-11 22-28 36-60 37" id="aH"/><path fill="#333" d="M24-231v-30h32v30H24zM24 0v-190h32V0H24" id="aI"/><g id="g"><use transform="matrix(0.043827160493827164,0,0,0.043827160493827164,0,0)" xlink:href="#aF"/><use transform="matrix(0.043827160493827164,0,0,0.043827160493827164,8.765432098765432,0)" xlink:href="#ay"/><use transform="matrix(0.043827160493827164,0,0,0.043827160493827164,17.530864197530864,0)" xlink:href="#aG"/><use transform="matrix(0.043827160493827164,0,0,0.043827160493827164,25.419753086419753,0)" xlink:href="#aG"/><use transform="matrix(0.043827160493827164,0,0,0.043827160493827164,33.308641975308646,0)" xlink:href="#aH"/><use transform="matrix(0.043827160493827164,0,0,0.043827160493827164,42.074074074074076,0)" xlink:href="#aI"/></g><path fill="#333" d="M114-163C36-179 61-72 57 0H25l-1-190h30c1 12-1 29 2 39 6-27 23-49 58-41v29" id="aJ"/><path fill="#333" d="M100-194c63 0 86 42 84 106H49c0 40 14 67 53 68 26 1 43-12 49-29l28 8c-11 28-37 45-77 45C44 4 14-33 15-96c1-61 26-98 85-98zm52 81c6-60-76-77-97-28-3 7-6 17-6 28h103" id="aK"/><path fill="#333" d="M85-194c31 0 48 13 60 33l-1-100h32l1 261h-30c-2-10 0-23-3-31C134-8 116 4 85 4 32 4 16-35 15-94c0-66 23-100 70-100zm9 24c-40 0-46 34-46 75 0 40 6 74 45 74 42 0 51-32 51-76 0-42-9-74-50-73" id="aL"/><path fill="#333" d="M141-36C126-15 110 5 73 4 37 3 15-17 15-53c-1-64 63-63 125-63 3-35-9-54-41-54-24 1-41 7-42 31l-33-3c5-37 33-52 76-52 45 0 72 20 72 64v82c-1 20 7 32 28 27v20c-31 9-61-2-59-35zM48-53c0 20 12 33 32 33 41-3 63-29 60-74-43 2-92-5-92 41" id="aM"/><g id="h"><use transform="matrix(0.043827160493827164,0,0,0.043827160493827164,0,0)" xlink:href="#aF"/><use transform="matrix(0.043827160493827164,0,0,0.043827160493827164,8.765432098765432,0)" xlink:href="#aJ"/><use transform="matrix(0.043827160493827164,0,0,0.043827160493827164,13.980864197530863,0)" xlink:href="#ay"/><use transform="matrix(0.043827160493827164,0,0,0.043827160493827164,22.746296296296293,0)" xlink:href="#aF"/><use transform="matrix(0.043827160493827164,0,0,0.043827160493827164,31.511728395061727,0)" xlink:href="#aJ"/><use transform="matrix(0.043827160493827164,0,0,0.043827160493827164,36.72716049382716,0)" xlink:href="#aI"/><use transform="matrix(0.043827160493827164,0,0,0.043827160493827164,40.1895061728395,0)" xlink:href="#aK"/><use transform="matrix(0.043827160493827164,0,0,0.043827160493827164,48.95493827160493,0)" xlink:href="#aL"/><use transform="matrix(0.043827160493827164,0,0,0.043827160493827164,57.72037037037036,0)" xlink:href="#aM"/><use transform="matrix(0.043827160493827164,0,0,0.043827160493827164,66.48580246913579,0)" xlink:href="#aL"/><use transform="matrix(0.043827160493827164,0,0,0.043827160493827164,75.25123456790122,0)" xlink:href="#aK"/></g><path fill="#333" d="M96-169c-40 0-48 33-48 73s9 75 48 75c24 0 41-14 43-38l32 2c-6 37-31 61-74 61-59 0-76-41-82-99-10-93 101-131 147-64 4 7 5 14 7 22l-32 3c-4-21-16-35-41-35" id="aN"/><path fill="#333" d="M59-47c-2 24 18 29 38 22v24C64 9 27 4 27-40v-127H5v-23h24l9-43h21v43h35v23H59v120" id="aO"/><path fill="#333" d="M103-251c84 0 111 97 45 133-19 10-37 24-39 52H78c0-63 77-55 77-114 0-30-21-42-52-43-32 0-53 17-56 46l-32-2c7-45 34-72 88-72zM77 0v-35h34V0H77" id="aP"/><g id="i"><use transform="matrix(0.043827160493827164,0,0,0.043827160493827164,0,0)" xlink:href="#aN"/><use transform="matrix(0.043827160493827164,0,0,0.043827160493827164,7.888888888888889,0)" xlink:href="#aM"/><use transform="matrix(0.043827160493827164,0,0,0.043827160493827164,16.654320987654323,0)" xlink:href="#aL"/><use transform="matrix(0.043827160493827164,0,0,0.043827160493827164,25.419753086419753,0)" xlink:href="#aM"/><use transform="matrix(0.043827160493827164,0,0,0.043827160493827164,34.18518518518518,0)" xlink:href="#aG"/><use transform="matrix(0.043827160493827164,0,0,0.043827160493827164,42.074074074074076,0)" xlink:href="#aO"/><use transform="matrix(0.043827160493827164,0,0,0.043827160493827164,46.45679012345679,0)" xlink:href="#aJ"/><use transform="matrix(0.043827160493827164,0,0,0.043827160493827164,51.672222222222224,0)" xlink:href="#aM"/><use transform="matrix(0.043827160493827164,0,0,0.043827160493827164,60.43765432098766,0)" xlink:href="#aL"/><use transform="matrix(0.043827160493827164,0,0,0.043827160493827164,69.20308641975309,0)" xlink:href="#aM"/><use transform="matrix(0.043827160493827164,0,0,0.043827160493827164,77.96851851851852,0)" xlink:href="#aP"/></g><path fill="#333" d="M185-189c-5-48-123-54-124 2 14 75 158 14 163 119 3 78-121 87-175 55-17-10-28-26-33-46l33-7c5 56 141 63 141-1 0-78-155-14-162-118-5-82 145-84 179-34 5 7 8 16 11 25" id="aQ"/><path fill="#333" d="M210-169c-67 3-38 105-44 169h-31v-121c0-29-5-50-35-48C34-165 62-65 56 0H25l-1-190h30c1 10-1 24 2 32 10-44 99-50 107 0 11-21 27-35 58-36 85-2 47 119 55 194h-31v-121c0-29-5-49-35-48" id="aR"/><g id="j"><use transform="matrix(0.05,0,0,0.05,0,0)" xlink:href="#aQ"/><use transform="matrix(0.05,0,0,0.05,12,0)" xlink:href="#aI"/><use transform="matrix(0.05,0,0,0.05,15.949999999999998,0)" xlink:href="#aR"/></g><path fill="#fff" d="M187 0l-14-72H61L19 0h-37l149-248h38L221 0h-34zm-19-99l-22-123L76-99h92" id="aS"/><g id="k"><use transform="matrix(0.04938271604938272,0,0,0.04938271604938272,0,0)" xlink:href="#aS"/><use transform="matrix(0.04938271604938272,0,0,0.04938271604938272,11.851851851851853,0)" xlink:href="#as"/><use transform="matrix(0.04938271604938272,0,0,0.04938271604938272,20.74074074074074,0)" xlink:href="#aj"/><use transform="matrix(0.04938271604938272,0,0,0.04938271604938272,30.617283950617285,0)" xlink:href="#aB"/><use transform="matrix(0.04938271604938272,0,0,0.04938271604938272,39.50617283950618,0)" xlink:href="#aB"/><use transform="matrix(0.04938271604938272,0,0,0.04938271604938272,48.39506172839506,0)" xlink:href="#ak"/><use transform="matrix(0.04938271604938272,0,0,0.04938271604938272,58.27160493827161,0)" xlink:href="#ao"/></g><path fill="#333" d="M24 0v-261h32V0H24" id="aT"/><path fill="#333" d="M117-194c89-4 53 116 60 194h-32v-121c0-31-8-49-39-48C34-167 62-67 57 0H25l-1-190h30c1 10-1 24 2 32 11-22 29-35 61-36" id="aU"/><path fill="#333" d="M96-169c-40 0-48 33-48 73s9 75 48 75c24 0 41-14 43-38l32 2c-6 37-31 61-74 61-59 0-76-41-82-99-10-93 101-131 147-64 4 7 5 14 7 22l-32 3c-4-21-16-35-41-35zm3 187c19-1 33 8 33 26 0 31-30 33-64 32V58c18 2 39 4 41-13 1-15-18-13-34-13L87 0h19" id="aV"/><g id="l"><use transform="matrix(0.043827160493827164,0,0,0.043827160493827164,0,0)" xlink:href="#aF"/><use transform="matrix(0.043827160493827164,0,0,0.043827160493827164,8.765432098765432,0)" xlink:href="#aT"/><use transform="matrix(0.043827160493827164,0,0,0.043827160493827164,12.227777777777778,0)" xlink:href="#aM"/><use transform="matrix(0.043827160493827164,0,0,0.043827160493827164,20.99320987654321,0)" xlink:href="#aU"/><use transform="matrix(0.043827160493827164,0,0,0.043827160493827164,29.758641975308645,0)" xlink:href="#aO"/><use transform="matrix(0.043827160493827164,0,0,0.043827160493827164,34.14135802469136,0)" xlink:href="#aM"/><use transform="matrix(0.043827160493827164,0,0,0.043827160493827164,42.90679012345679,0)" xlink:href="#aV"/><use transform="matrix(0.043827160493827164,0,0,0.043827160493827164,50.79567901234567,0)" xlink:href="#ax"/><use transform="matrix(0.043827160493827164,0,0,0.043827160493827164,59.5611111111111,0)" xlink:href="#ay"/><use transform="matrix(0.043827160493827164,0,0,0.043827160493827164,68.32654320987653,0)" xlink:href="#aP"/></g><path fill="#fff" d="M205 0l-28-72H64L36 0H1l101-248h38L239 0h-34zm-38-99l-47-123c-12 45-31 82-46 123h93" id="aW"/><path fill="#fff" d="M96-169c-40 0-48 33-48 73s9 75 48 75c24 0 41-14 43-38l32 2c-6 37-31 61-74 61-59 0-76-41-82-99-10-93 101-131 147-64 4 7 5 14 7 22l-32 3c-4-21-16-35-41-35" id="aX"/><path fill="#fff" d="M100-194c63 0 86 42 84 106H49c0 40 14 67 53 68 26 1 43-12 49-29l28 8c-11 28-37 45-77 45C44 4 14-33 15-96c1-61 26-98 85-98zm52 81c6-60-76-77-97-28-3 7-6 17-6 28h103" id="aY"/><path fill="#fff" d="M135-143c-3-34-86-38-87 0 15 53 115 12 119 90S17 21 10-45l28-5c4 36 97 45 98 0-10-56-113-15-118-90-4-57 82-63 122-42 12 7 21 19 24 35" id="aZ"/><path fill="#fff" d="M141-36C126-15 110 5 73 4 37 3 15-17 15-53c-1-64 63-63 125-63 3-35-9-54-41-54-24 1-41 7-42 31l-33-3c5-37 33-52 76-52 45 0 72 20 72 64v82c-1 20 7 32 28 27v20c-31 9-61-2-59-35zM48-53c0 20 12 33 32 33 41-3 63-29 60-74-43 2-92-5-92 41" id="ba"/><path fill="#fff" d="M114-163C36-179 61-72 57 0H25l-1-190h30c1 12-1 29 2 39 6-27 23-49 58-41v29" id="bb"/><g id="m"><use transform="matrix(0.05,0,0,0.05,0,0)" xlink:href="#aW"/><use transform="matrix(0.05,0,0,0.05,12,0)" xlink:href="#aX"/><use transform="matrix(0.05,0,0,0.05,21,0)" xlink:href="#aY"/><use transform="matrix(0.05,0,0,0.05,31,0)" xlink:href="#aZ"/><use transform="matrix(0.05,0,0,0.05,40,0)" xlink:href="#aZ"/><use transform="matrix(0.05,0,0,0.05,49,0)" xlink:href="#ba"/><use transform="matrix(0.05,0,0,0.05,59,0)" xlink:href="#bb"/></g><path fill="#fff" d="M106-169C34-169 62-67 57 0H25v-261h32l-1 103c12-21 28-36 61-36 89 0 53 116 60 194h-32v-121c2-32-8-49-39-48" id="bc"/><path fill="#fff" d="M24-231v-30h32v30H24zM24 0v-190h32V0H24" id="bd"/><path fill="#fff" d="M59-47c-2 24 18 29 38 22v24C64 9 27 4 27-40v-127H5v-23h24l9-43h21v43h35v23H59v120" id="be"/><path fill="#fff" d="M100-194c62-1 85 37 85 99 1 63-27 99-86 99S16-35 15-95c0-66 28-99 85-99zM99-20c44 1 53-31 53-75 0-43-8-75-51-75s-53 32-53 75 10 74 51 75zM76-211c8-23 27-35 38-54h36v5l-58 49H76" id="bf"/><path fill="#fff" d="M100-194c62-1 85 37 85 99 1 63-27 99-86 99S16-35 15-95c0-66 28-99 85-99zM99-20c44 1 53-31 53-75 0-43-8-75-51-75s-53 32-53 75 10 74 51 75" id="bg"/><g id="n"><use transform="matrix(0.05,0,0,0.05,0,0)" xlink:href="#bc"/><use transform="matrix(0.05,0,0,0.05,10,0)" xlink:href="#bd"/><use transform="matrix(0.05,0,0,0.05,13.949999999999998,0)" xlink:href="#aZ"/><use transform="matrix(0.05,0,0,0.05,22.95,0)" xlink:href="#be"/><use transform="matrix(0.05,0,0,0.05,27.950000000000003,0)" xlink:href="#bf"/><use transform="matrix(0.05,0,0,0.05,37.95,0)" xlink:href="#bb"/><use transform="matrix(0.05,0,0,0.05,43.900000000000006,0)" xlink:href="#bd"/><use transform="matrix(0.05,0,0,0.05,47.85000000000001,0)" xlink:href="#aX"/><use transform="matrix(0.05,0,0,0.05,56.85,0)" xlink:href="#bg"/></g><path fill="#fff" d="M85-194c31 0 48 13 60 33l-1-100h32l1 261h-30c-2-10 0-23-3-31C134-8 116 4 85 4 32 4 16-35 15-94c0-66 23-100 70-100zm9 24c-40 0-46 34-46 75 0 40 6 74 45 74 42 0 51-32 51-76 0-42-9-74-50-73" id="bh"/><g id="o"><use transform="matrix(0.05,0,0,0.05,0,0)" xlink:href="#bh"/><use transform="matrix(0.05,0,0,0.05,10,0)" xlink:href="#ba"/></g><path fill="#fff" d="M115-194c55 1 70 41 70 98S169 2 115 4C84 4 66-9 55-30l1 105H24l-1-265h31l2 30c10-21 28-34 59-34zm-8 174c40 0 45-34 45-75s-6-73-45-74c-42 0-51 32-51 76 0 43 10 73 51 73" id="bi"/><g id="p"><use transform="matrix(0.05,0,0,0.05,0,0)" xlink:href="#bi"/><use transform="matrix(0.05,0,0,0.05,10,0)" xlink:href="#bb"/><use transform="matrix(0.05,0,0,0.05,15.949999999999998,0)" xlink:href="#bg"/><use transform="matrix(0.05,0,0,0.05,25.950000000000003,0)" xlink:href="#bi"/><use transform="matrix(0.05,0,0,0.05,35.95,0)" xlink:href="#bb"/><use transform="matrix(0.05,0,0,0.05,41.900000000000006,0)" xlink:href="#bd"/><use transform="matrix(0.05,0,0,0.05,45.85000000000001,0)" xlink:href="#aY"/><use transform="matrix(0.05,0,0,0.05,55.85,0)" xlink:href="#bh"/><use transform="matrix(0.05,0,0,0.05,65.85000000000001,0)" xlink:href="#ba"/><use transform="matrix(0.05,0,0,0.05,75.85000000000001,0)" xlink:href="#bh"/><use transform="matrix(0.05,0,0,0.05,85.85000000000001,0)" xlink:href="#aY"/></g><path fill="#fff" d="M137 0h-34L2-248h35l83 218 83-218h36" id="bj"/><path fill="#fff" d="M84 4C-5 8 30-112 23-190h32v120c0 31 7 50 39 49 72-2 45-101 50-169h31l1 190h-30c-1-10 1-25-2-33-11 22-28 36-60 37" id="bk"/><path fill="#fff" d="M24 0v-261h32V0H24" id="bl"/><path fill="#fff" d="M9 0v-24l116-142H16v-24h144v24L44-24h123V0H9" id="bm"/><g id="q"><use transform="matrix(0.05,0,0,0.05,0,0)" xlink:href="#bj"/><use transform="matrix(0.05,0,0,0.05,11.65,0)" xlink:href="#bd"/><use transform="matrix(0.05,0,0,0.05,15.600000000000001,0)" xlink:href="#aZ"/><use transform="matrix(0.05,0,0,0.05,24.6,0)" xlink:href="#bk"/><use transform="matrix(0.05,0,0,0.05,34.6,0)" xlink:href="#ba"/><use transform="matrix(0.05,0,0,0.05,44.6,0)" xlink:href="#bl"/><use transform="matrix(0.05,0,0,0.05,48.550000000000004,0)" xlink:href="#bd"/><use transform="matrix(0.05,0,0,0.05,52.5,0)" xlink:href="#bm"/><use transform="matrix(0.05,0,0,0.05,61.5,0)" xlink:href="#ba"/><use transform="matrix(0.05,0,0,0.05,71.5,0)" xlink:href="#bb"/></g><g id="r"><use transform="matrix(0.05,0,0,0.05,0,0)" xlink:href="#bh"/><use transform="matrix(0.05,0,0,0.05,10,0)" xlink:href="#ba"/><use transform="matrix(0.05,0,0,0.05,20,0)" xlink:href="#bh"/><use transform="matrix(0.05,0,0,0.05,30,0)" xlink:href="#bg"/><use transform="matrix(0.05,0,0,0.05,40,0)" xlink:href="#aZ"/></g><path fill="#fff" d="M117-194c89-4 53 116 60 194h-32v-121c0-31-8-49-39-48C34-167 62-67 57 0H25l-1-190h30c1 10-1 24 2 32 11-22 29-35 61-36" id="bn"/><path fill="#fff" d="M96-169c-40 0-48 33-48 73s9 75 48 75c24 0 41-14 43-38l32 2c-6 37-31 61-74 61-59 0-76-41-82-99-10-93 101-131 147-64 4 7 5 14 7 22l-32 3c-4-21-16-35-41-35zm3 187c19-1 33 8 33 26 0 31-30 33-64 32V58c18 2 39 4 41-13 1-15-18-13-34-13L87 0h19" id="bo"/><path fill="#fff" d="M141-36C126-15 110 5 73 4 37 3 15-17 15-53c-1-64 63-63 125-63 3-35-9-54-41-54-24 1-41 7-42 31l-33-3c5-37 33-52 76-52 45 0 72 20 72 64v82c-1 20 7 32 28 27v20c-31 9-61-2-59-35zM48-53c0 20 12 33 32 33 41-3 63-29 60-74-43 2-92-5-92 41zm117-205c-3 23-9 48-36 47-26-1-65-44-74 0H39c4-23 8-48 36-47s64 44 74 0h16" id="bp"/><g id="s"><use transform="matrix(0.05,0,0,0.05,0,0)" xlink:href="#bi"/><use transform="matrix(0.05,0,0,0.05,10,0)" xlink:href="#bl"/><use transform="matrix(0.05,0,0,0.05,13.949999999999998,0)" xlink:href="#ba"/><use transform="matrix(0.05,0,0,0.05,23.95,0)" xlink:href="#bn"/><use transform="matrix(0.05,0,0,0.05,33.95,0)" xlink:href="#be"/><use transform="matrix(0.05,0,0,0.05,38.95,0)" xlink:href="#ba"/><use transform="matrix(0.05,0,0,0.05,48.95,0)" xlink:href="#bo"/><use transform="matrix(0.05,0,0,0.05,57.95,0)" xlink:href="#bp"/><use transform="matrix(0.05,0,0,0.05,67.95,0)" xlink:href="#bg"/></g><path fill="#fff" d="M212-179c-10-28-35-45-73-45-59 0-87 40-87 99 0 60 29 101 89 101 43 0 62-24 78-52l27 14C228-24 195 4 139 4 59 4 22-46 18-125c-6-104 99-153 187-111 19 9 31 26 39 46" id="bq"/><g id="t"><use transform="matrix(0.05,0,0,0.05,0,0)" xlink:href="#bq"/><use transform="matrix(0.05,0,0,0.05,12.950000000000001,0)" xlink:href="#ba"/><use transform="matrix(0.05,0,0,0.05,22.950000000000003,0)" xlink:href="#bh"/><use transform="matrix(0.05,0,0,0.05,32.95,0)" xlink:href="#ba"/><use transform="matrix(0.05,0,0,0.05,42.95,0)" xlink:href="#aZ"/><use transform="matrix(0.05,0,0,0.05,51.95,0)" xlink:href="#be"/><use transform="matrix(0.05,0,0,0.05,56.95,0)" xlink:href="#bb"/><use transform="matrix(0.05,0,0,0.05,62.900000000000006,0)" xlink:href="#ba"/><use transform="matrix(0.05,0,0,0.05,72.9,0)" xlink:href="#bb"/></g><g id="u"><use transform="matrix(0.05,0,0,0.05,0,0)" xlink:href="#aw"/><use transform="matrix(0.05,0,0,0.05,12.950000000000001,0)" xlink:href="#ax"/><use transform="matrix(0.05,0,0,0.05,22.950000000000003,0)" xlink:href="#ay"/></g><g id="v"><use transform="matrix(0.05,0,0,0.05,0,0)" xlink:href="#be"/><use transform="matrix(0.05,0,0,0.05,5,0)" xlink:href="#ba"/><use transform="matrix(0.05,0,0,0.05,15,0)" xlink:href="#bl"/><use transform="matrix(0.05,0,0,0.05,18.95,0)" xlink:href="#bc"/><use transform="matrix(0.05,0,0,0.05,28.950000000000003,0)" xlink:href="#bp"/><use transform="matrix(0.05,0,0,0.05,38.95,0)" xlink:href="#bg"/></g><g id="w"><use transform="matrix(0.05,0,0,0.05,0,0)" xlink:href="#aW"/><use transform="matrix(0.05,0,0,0.05,12,0)" xlink:href="#bl"/><use transform="matrix(0.05,0,0,0.05,15.949999999999998,0)" xlink:href="#be"/><use transform="matrix(0.05,0,0,0.05,20.95,0)" xlink:href="#aY"/><use transform="matrix(0.05,0,0,0.05,30.950000000000003,0)" xlink:href="#bb"/><use transform="matrix(0.05,0,0,0.05,36.9,0)" xlink:href="#ba"/><use transform="matrix(0.05,0,0,0.05,46.9,0)" xlink:href="#bb"/></g><g id="x"><use transform="matrix(0.05,0,0,0.05,0,0)" xlink:href="#bh"/><use transform="matrix(0.05,0,0,0.05,10,0)" xlink:href="#ba"/><use transform="matrix(0.05,0,0,0.05,20,0)" xlink:href="#bh"/><use transform="matrix(0.05,0,0,0.05,30,0)" xlink:href="#bg"/><use transform="matrix(0.05,0,0,0.05,40,0)" xlink:href="#aZ"/></g><g id="y"><use transform="matrix(0.05,0,0,0.05,0,0)" xlink:href="#bh"/><use transform="matrix(0.05,0,0,0.05,10,0)" xlink:href="#ba"/></g><g id="z"><use transform="matrix(0.05,0,0,0.05,0,0)" xlink:href="#bh"/><use transform="matrix(0.05,0,0,0.05,10,0)" xlink:href="#bg"/></g><path fill="#fff" d="M240 0l2-218c-23 76-54 145-80 218h-23L58-218 59 0H30v-248h44l77 211c21-75 51-140 76-211h43V0h-30" id="br"/><g id="A"><use transform="matrix(0.05,0,0,0.05,0,0)" xlink:href="#br"/><use transform="matrix(0.05,0,0,0.05,14.950000000000001,0)" xlink:href="#ba"/><use transform="matrix(0.05,0,0,0.05,24.950000000000003,0)" xlink:href="#bb"/><use transform="matrix(0.05,0,0,0.05,30.900000000000002,0)" xlink:href="#aX"/><use transform="matrix(0.05,0,0,0.05,39.900000000000006,0)" xlink:href="#ba"/><use transform="matrix(0.05,0,0,0.05,49.900000000000006,0)" xlink:href="#bb"/></g><path fill="#fff" d="M210-169c-67 3-38 105-44 169h-31v-121c0-29-5-50-35-48C34-165 62-65 56 0H25l-1-190h30c1 10-1 24 2 32 10-44 99-50 107 0 11-21 27-35 58-36 85-2 47 119 55 194h-31v-121c0-29-5-49-35-48" id="bs"/><g id="B"><use transform="matrix(0.05,0,0,0.05,0,0)" xlink:href="#aX"/><use transform="matrix(0.05,0,0,0.05,9,0)" xlink:href="#bg"/><use transform="matrix(0.05,0,0,0.05,19,0)" xlink:href="#bs"/><use transform="matrix(0.05,0,0,0.05,33.95,0)" xlink:href="#bg"/></g><g id="C"><use transform="matrix(0.05,0,0,0.05,0,0)" xlink:href="#aX"/><use transform="matrix(0.05,0,0,0.05,9,0)" xlink:href="#bg"/><use transform="matrix(0.05,0,0,0.05,19,0)" xlink:href="#bl"/><use transform="matrix(0.05,0,0,0.05,22.95,0)" xlink:href="#bc"/><use transform="matrix(0.05,0,0,0.05,32.95,0)" xlink:href="#bd"/><use transform="matrix(0.05,0,0,0.05,36.900000000000006,0)" xlink:href="#bh"/><use transform="matrix(0.05,0,0,0.05,46.900000000000006,0)" xlink:href="#ba"/></g><g id="D"><use transform="matrix(0.04938271604938272,0,0,0.04938271604938272,0,0)" xlink:href="#aS"/><use transform="matrix(0.04938271604938272,0,0,0.04938271604938272,11.851851851851853,0)" xlink:href="#al"/><use transform="matrix(0.04938271604938272,0,0,0.04938271604938272,15.753086419753087,0)" xlink:href="#aq"/><use transform="matrix(0.04938271604938272,0,0,0.04938271604938272,20.69135802469136,0)" xlink:href="#aj"/><use transform="matrix(0.04938271604938272,0,0,0.04938271604938272,30.567901234567906,0)" xlink:href="#ao"/><use transform="matrix(0.04938271604938272,0,0,0.04938271604938272,36.44444444444445,0)" xlink:href="#ak"/><use transform="matrix(0.04938271604938272,0,0,0.04938271604938272,46.320987654320994,0)" xlink:href="#ao"/></g><g id="E"><use transform="matrix(0.04938271604938272,0,0,0.04938271604938272,0,0)" xlink:href="#aA"/><use transform="matrix(0.04938271604938272,0,0,0.04938271604938272,9.876543209876544,0)" xlink:href="#ak"/><use transform="matrix(0.04938271604938272,0,0,0.04938271604938272,19.75308641975309,0)" xlink:href="#aA"/><use transform="matrix(0.04938271604938272,0,0,0.04938271604938272,29.629629629629633,0)" xlink:href="#av"/><use transform="matrix(0.04938271604938272,0,0,0.04938271604938272,39.50617283950618,0)" xlink:href="#aB"/></g><g id="F"><use transform="matrix(0.04938271604938272,0,0,0.04938271604938272,0,0)" xlink:href="#aA"/><use transform="matrix(0.04938271604938272,0,0,0.04938271604938272,9.876543209876544,0)" xlink:href="#ak"/></g><g id="G"><use transform="matrix(0.04938271604938272,0,0,0.04938271604938272,0,0)" xlink:href="#as"/><use transform="matrix(0.04938271604938272,0,0,0.04938271604938272,8.88888888888889,0)" xlink:href="#av"/><use transform="matrix(0.04938271604938272,0,0,0.04938271604938272,18.765432098765434,0)" xlink:href="#ar"/><use transform="matrix(0.04938271604938272,0,0,0.04938271604938272,28.641975308641978,0)" xlink:href="#aq"/><use transform="matrix(0.04938271604938272,0,0,0.04938271604938272,33.580246913580254,0)" xlink:href="#ak"/></g><path fill="#fff" d="M143 4C61 4 22-44 18-125c-5-107 100-154 193-111 17 8 29 25 37 43l-32 9c-13-25-37-40-76-40-61 0-88 39-88 99 0 61 29 100 91 101 35 0 62-11 79-27v-45h-74v-28h105v86C228-13 192 4 143 4" id="bt"/><g id="H"><use transform="matrix(0.05,0,0,0.05,0,0)" xlink:href="#bt"/><use transform="matrix(0.05,0,0,0.05,14,0)" xlink:href="#aY"/><use transform="matrix(0.05,0,0,0.05,24,0)" xlink:href="#bb"/><use transform="matrix(0.05,0,0,0.05,29.950000000000003,0)" xlink:href="#ba"/><use transform="matrix(0.05,0,0,0.05,39.95,0)" xlink:href="#bb"/></g><g id="I"><use transform="matrix(0.05,0,0,0.05,0,0)" xlink:href="#aX"/><use transform="matrix(0.05,0,0,0.05,9,0)" xlink:href="#ba"/><use transform="matrix(0.05,0,0,0.05,19,0)" xlink:href="#bh"/><use transform="matrix(0.05,0,0,0.05,29,0)" xlink:href="#aY"/><use transform="matrix(0.05,0,0,0.05,39,0)" xlink:href="#bb"/><use transform="matrix(0.05,0,0,0.05,44.95,0)" xlink:href="#bn"/><use transform="matrix(0.05,0,0,0.05,54.95,0)" xlink:href="#aY"/><use transform="matrix(0.05,0,0,0.05,64.95,0)" xlink:href="#be"/><use transform="matrix(0.05,0,0,0.05,69.95,0)" xlink:href="#ba"/></g><g id="J"><use transform="matrix(0.05,0,0,0.05,0,0)" xlink:href="#bh"/><use transform="matrix(0.05,0,0,0.05,10,0)" xlink:href="#aY"/></g><g id="K"><use transform="matrix(0.05,0,0,0.05,0,0)" xlink:href="#aX"/><use transform="matrix(0.05,0,0,0.05,9,0)" xlink:href="#ba"/><use transform="matrix(0.05,0,0,0.05,19,0)" xlink:href="#bs"/><use transform="matrix(0.05,0,0,0.05,33.95,0)" xlink:href="#bi"/><use transform="matrix(0.05,0,0,0.05,43.95,0)" xlink:href="#bg"/></g><path fill="#fff" d="M233-177c-1 41-23 64-60 70L243 0h-38l-65-103H63V0H30v-248c88 3 205-21 203 71zM63-129c60-2 137 13 137-47 0-61-80-42-137-45v92" id="bu"/><path fill="#fff" d="M177-190C167-65 218 103 67 71c-23-6-38-20-44-43l32-5c15 47 100 32 89-28v-30C133-14 115 1 83 1 29 1 15-40 15-95c0-56 16-97 71-98 29-1 48 16 59 35 1-10 0-23 2-32h30zM94-22c36 0 50-32 50-73 0-42-14-75-50-75-39 0-46 34-46 75s6 73 46 73" id="bv"/><g id="L"><use transform="matrix(0.05,0,0,0.05,0,0)" xlink:href="#bu"/><use transform="matrix(0.05,0,0,0.05,12.950000000000001,0)" xlink:href="#aY"/><use transform="matrix(0.05,0,0,0.05,22.950000000000003,0)" xlink:href="#bv"/><use transform="matrix(0.05,0,0,0.05,32.95,0)" xlink:href="#bd"/><use transform="matrix(0.05,0,0,0.05,36.900000000000006,0)" xlink:href="#aZ"/><use transform="matrix(0.05,0,0,0.05,45.900000000000006,0)" xlink:href="#be"/><use transform="matrix(0.05,0,0,0.05,50.900000000000006,0)" xlink:href="#bb"/><use transform="matrix(0.05,0,0,0.05,56.85,0)" xlink:href="#ba"/><use transform="matrix(0.05,0,0,0.05,66.85000000000001,0)" xlink:href="#bb"/></g><g id="M"><use transform="matrix(0.05,0,0,0.05,0,0)" xlink:href="#bk"/><use transform="matrix(0.05,0,0,0.05,10,0)" xlink:href="#aZ"/><use transform="matrix(0.05,0,0,0.05,19,0)" xlink:href="#bg"/></g><g id="N"><use transform="matrix(0.05,0,0,0.05,0,0)" xlink:href="#bh"/><use transform="matrix(0.05,0,0,0.05,10,0)" xlink:href="#aY"/></g><path fill="#fff" d="M141 0L90-78 38 0H4l68-98-65-92h35l48 74 47-74h35l-64 92 68 98h-35" id="bw"/><g id="O"><use transform="matrix(0.05,0,0,0.05,0,0)" xlink:href="#ba"/><use transform="matrix(0.05,0,0,0.05,10,0)" xlink:href="#bv"/><use transform="matrix(0.05,0,0,0.05,20,0)" xlink:href="#bb"/><use transform="matrix(0.05,0,0,0.05,25.950000000000003,0)" xlink:href="#bg"/><use transform="matrix(0.05,0,0,0.05,35.95,0)" xlink:href="#be"/><use transform="matrix(0.05,0,0,0.05,40.95,0)" xlink:href="#bf"/><use transform="matrix(0.05,0,0,0.05,50.95,0)" xlink:href="#bw"/><use transform="matrix(0.05,0,0,0.05,59.95,0)" xlink:href="#bd"/><use transform="matrix(0.05,0,0,0.05,63.900000000000006,0)" xlink:href="#aX"/><use transform="matrix(0.05,0,0,0.05,72.9,0)" xlink:href="#bg"/></g><g id="P"><use transform="matrix(0.05,0,0,0.05,0,0)" xlink:href="#bj"/><use transform="matrix(0.05,0,0,0.05,11.65,0)" xlink:href="#bd"/><use transform="matrix(0.05,0,0,0.05,15.600000000000001,0)" xlink:href="#aZ"/><use transform="matrix(0.05,0,0,0.05,24.6,0)" xlink:href="#bk"/><use transform="matrix(0.05,0,0,0.05,34.6,0)" xlink:href="#ba"/><use transform="matrix(0.05,0,0,0.05,44.6,0)" xlink:href="#bl"/><use transform="matrix(0.05,0,0,0.05,48.550000000000004,0)" xlink:href="#bd"/><use transform="matrix(0.05,0,0,0.05,52.5,0)" xlink:href="#bm"/><use transform="matrix(0.05,0,0,0.05,61.5,0)" xlink:href="#ba"/><use transform="matrix(0.05,0,0,0.05,71.5,0)" xlink:href="#bb"/></g><g id="Q"><use transform="matrix(0.05,0,0,0.05,0,0)" xlink:href="#bh"/><use transform="matrix(0.05,0,0,0.05,10,0)" xlink:href="#aY"/><use transform="matrix(0.05,0,0,0.05,20,0)" xlink:href="#be"/><use transform="matrix(0.05,0,0,0.05,25,0)" xlink:href="#ba"/><use transform="matrix(0.05,0,0,0.05,35,0)" xlink:href="#bl"/><use transform="matrix(0.05,0,0,0.05,38.95,0)" xlink:href="#bc"/><use transform="matrix(0.05,0,0,0.05,48.95,0)" xlink:href="#aY"/><use transform="matrix(0.05,0,0,0.05,58.95,0)" xlink:href="#aZ"/></g><path fill="#fff" d="M30 0v-248h187v28H63v79h144v27H63v87h162V0H30" id="bx"/><g id="R"><use transform="matrix(0.05,0,0,0.05,0,0)" xlink:href="#bx"/><use transform="matrix(0.05,0,0,0.05,12,0)" xlink:href="#bh"/><use transform="matrix(0.05,0,0,0.05,22,0)" xlink:href="#bd"/><use transform="matrix(0.05,0,0,0.05,25.950000000000003,0)" xlink:href="#be"/><use transform="matrix(0.05,0,0,0.05,30.950000000000003,0)" xlink:href="#ba"/><use transform="matrix(0.05,0,0,0.05,40.95,0)" xlink:href="#bb"/></g><g id="S"><use transform="matrix(0.05,0,0,0.05,0,0)" xlink:href="#bh"/><use transform="matrix(0.05,0,0,0.05,10,0)" xlink:href="#aY"/><use transform="matrix(0.05,0,0,0.05,20,0)" xlink:href="#be"/><use transform="matrix(0.05,0,0,0.05,25,0)" xlink:href="#ba"/><use transform="matrix(0.05,0,0,0.05,35,0)" xlink:href="#bl"/><use transform="matrix(0.05,0,0,0.05,38.95,0)" xlink:href="#bc"/><use transform="matrix(0.05,0,0,0.05,48.95,0)" xlink:href="#aY"/><use transform="matrix(0.05,0,0,0.05,58.95,0)" xlink:href="#aZ"/></g><g id="T"><use transform="matrix(0.05,0,0,0.05,0,0)" xlink:href="#aX"/><use transform="matrix(0.05,0,0,0.05,9,0)" xlink:href="#ba"/><use transform="matrix(0.05,0,0,0.05,19,0)" xlink:href="#bh"/><use transform="matrix(0.05,0,0,0.05,29,0)" xlink:href="#aY"/><use transform="matrix(0.05,0,0,0.05,39,0)" xlink:href="#bb"/><use transform="matrix(0.05,0,0,0.05,44.95,0)" xlink:href="#bn"/><use transform="matrix(0.05,0,0,0.05,54.95,0)" xlink:href="#aY"/><use transform="matrix(0.05,0,0,0.05,64.95,0)" xlink:href="#be"/><use transform="matrix(0.05,0,0,0.05,69.95,0)" xlink:href="#ba"/></g><path fill="#333" d="M212-179c-10-28-35-45-73-45-59 0-87 40-87 99 0 60 29 101 89 101 43 0 62-24 78-52l27 14C228-24 195 4 139 4 59 4 22-46 18-125c-6-104 99-153 187-111 19 9 31 26 39 46" id="by"/><path fill="#333" d="M106-169C34-169 62-67 57 0H25v-261h32l-1 103c12-21 28-36 61-36 89 0 53 116 60 194h-32v-121c2-32-8-49-39-48" id="bz"/><g id="U"><use transform="matrix(0.043827160493827164,0,0,0.043827160493827164,0,0)" xlink:href="#by"/><use transform="matrix(0.043827160493827164,0,0,0.043827160493827164,11.351234567901235,0)" xlink:href="#ay"/><use transform="matrix(0.043827160493827164,0,0,0.043827160493827164,20.116666666666667,0)" xlink:href="#aU"/><use transform="matrix(0.043827160493827164,0,0,0.043827160493827164,28.882098765432097,0)" xlink:href="#bz"/><use transform="matrix(0.043827160493827164,0,0,0.043827160493827164,37.64753086419753,0)" xlink:href="#aK"/><use transform="matrix(0.043827160493827164,0,0,0.043827160493827164,46.41296296296296,0)" xlink:href="#aN"/><use transform="matrix(0.043827160493827164,0,0,0.043827160493827164,54.30185185185184,0)" xlink:href="#aK"/></g><use transform="matrix(0.043827160493827164,0,0,0.043827160493827164,0,0)" xlink:href="#ay" id="V"/><g id="W"><use transform="matrix(0.043827160493827164,0,0,0.043827160493827164,0,0)" xlink:href="#aU"/><use transform="matrix(0.043827160493827164,0,0,0.043827160493827164,8.765432098765432,0)" xlink:href="#ay"/><use transform="matrix(0.043827160493827164,0,0,0.043827160493827164,17.530864197530864,0)" xlink:href="#aR"/><use transform="matrix(0.043827160493827164,0,0,0.043827160493827164,30.635185185185186,0)" xlink:href="#aK"/></g><g id="X"><use transform="matrix(0.043827160493827164,0,0,0.043827160493827164,0,0)" xlink:href="#aL"/><use transform="matrix(0.043827160493827164,0,0,0.043827160493827164,8.765432098765432,0)" xlink:href="#ay"/></g><path fill="#333" d="M177-190C167-65 218 103 67 71c-23-6-38-20-44-43l32-5c15 47 100 32 89-28v-30C133-14 115 1 83 1 29 1 15-40 15-95c0-56 16-97 71-98 29-1 48 16 59 35 1-10 0-23 2-32h30zM94-22c36 0 50-32 50-73 0-42-14-75-50-75-39 0-46 34-46 75s6 73 46 73" id="bA"/><path fill="#333" d="M100-194c62-1 85 37 85 99 1 63-27 99-86 99S16-35 15-95c0-66 28-99 85-99zM99-20c44 1 53-31 53-75 0-43-8-75-51-75s-53 32-53 75 10 74 51 75zM76-211c8-23 27-35 38-54h36v5l-58 49H76" id="bB"/><path fill="#333" d="M141 0L90-78 38 0H4l68-98-65-92h35l48 74 47-74h35l-64 92 68 98h-35" id="bC"/><g id="Y"><use transform="matrix(0.043827160493827164,0,0,0.043827160493827164,0,0)" xlink:href="#aM"/><use transform="matrix(0.043827160493827164,0,0,0.043827160493827164,8.765432098765432,0)" xlink:href="#bA"/><use transform="matrix(0.043827160493827164,0,0,0.043827160493827164,17.530864197530864,0)" xlink:href="#aJ"/><use transform="matrix(0.043827160493827164,0,0,0.043827160493827164,22.746296296296297,0)" xlink:href="#ay"/><use transform="matrix(0.043827160493827164,0,0,0.043827160493827164,31.51172839506173,0)" xlink:href="#aO"/><use transform="matrix(0.043827160493827164,0,0,0.043827160493827164,35.894444444444446,0)" xlink:href="#bB"/><use transform="matrix(0.043827160493827164,0,0,0.043827160493827164,44.659876543209876,0)" xlink:href="#bC"/><use transform="matrix(0.043827160493827164,0,0,0.043827160493827164,52.54876543209876,0)" xlink:href="#aI"/><use transform="matrix(0.043827160493827164,0,0,0.043827160493827164,56.011111111111106,0)" xlink:href="#aN"/><use transform="matrix(0.043827160493827164,0,0,0.043827160493827164,63.89999999999999,0)" xlink:href="#ay"/><use transform="matrix(0.043827160493827164,0,0,0.043827160493827164,72.66543209876542,0)" xlink:href="#aP"/></g><path fill="#fff" d="M108 0H70L1-190h34L89-25l56-165h34" id="bD"/><g id="Z"><use transform="matrix(0.05,0,0,0.05,0,0)" xlink:href="#bx"/><use transform="matrix(0.05,0,0,0.05,12,0)" xlink:href="#bn"/><use transform="matrix(0.05,0,0,0.05,22,0)" xlink:href="#bD"/><use transform="matrix(0.05,0,0,0.05,31,0)" xlink:href="#bd"/><use transform="matrix(0.05,0,0,0.05,34.95,0)" xlink:href="#ba"/></g><path fill="#fff" d="M101-234c-31-9-42 10-38 44h38v23H63V0H32v-167H5v-23h27c-7-52 17-82 69-68v24" id="bE"/><g id="aa"><use transform="matrix(0.05,0,0,0.05,0,0)" xlink:href="#bE"/><use transform="matrix(0.05,0,0,0.05,5,0)" xlink:href="#bg"/><use transform="matrix(0.05,0,0,0.05,15,0)" xlink:href="#be"/><use transform="matrix(0.05,0,0,0.05,20,0)" xlink:href="#bg"/></g><g id="ab"><use transform="matrix(0.05,0,0,0.05,0,0)" xlink:href="#bh"/><use transform="matrix(0.05,0,0,0.05,10,0)" xlink:href="#bg"/></g><g id="ac"><use transform="matrix(0.05,0,0,0.05,0,0)" xlink:href="#ba"/><use transform="matrix(0.05,0,0,0.05,10,0)" xlink:href="#bv"/><use transform="matrix(0.05,0,0,0.05,20,0)" xlink:href="#bb"/><use transform="matrix(0.05,0,0,0.05,25.950000000000003,0)" xlink:href="#bg"/><use transform="matrix(0.05,0,0,0.05,35.95,0)" xlink:href="#be"/><use transform="matrix(0.05,0,0,0.05,40.95,0)" xlink:href="#bf"/><use transform="matrix(0.05,0,0,0.05,50.95,0)" xlink:href="#bw"/><use transform="matrix(0.05,0,0,0.05,59.95,0)" xlink:href="#bd"/><use transform="matrix(0.05,0,0,0.05,63.900000000000006,0)" xlink:href="#aX"/><use transform="matrix(0.05,0,0,0.05,72.9,0)" xlink:href="#bg"/></g><g id="ad"><use transform="matrix(0.05,0,0,0.05,0,0)" xlink:href="#bi"/><use transform="matrix(0.05,0,0,0.05,10,0)" xlink:href="#ba"/><use transform="matrix(0.05,0,0,0.05,20,0)" xlink:href="#bb"/><use transform="matrix(0.05,0,0,0.05,25.950000000000003,0)" xlink:href="#ba"/></g><use transform="matrix(0.05,0,0,0.05,0,0)" xlink:href="#bg" id="ae"/><path fill="#fff" d="M100-194c63 0 86 42 84 106H49c0 40 14 67 53 68 26 1 43-12 49-29l28 8c-11 28-37 45-77 45C44 4 14-33 15-96c1-61 26-98 85-98zm52 81c6-60-76-77-97-28-3 7-6 17-6 28h103zm-74-98c8-23 27-35 38-54h36v5l-58 49H78" id="bF"/><g id="af"><use transform="matrix(0.05,0,0,0.05,0,0)" xlink:href="#be"/><use transform="matrix(0.05,0,0,0.05,5,0)" xlink:href="#bF"/><use transform="matrix(0.05,0,0,0.05,15,0)" xlink:href="#aX"/><use transform="matrix(0.05,0,0,0.05,24,0)" xlink:href="#bn"/><use transform="matrix(0.05,0,0,0.05,34,0)" xlink:href="#bd"/><use transform="matrix(0.05,0,0,0.05,37.95,0)" xlink:href="#aX"/><use transform="matrix(0.05,0,0,0.05,46.95,0)" xlink:href="#bg"/></g><g id="ag"><use transform="matrix(0.05,0,0,0.05,0,0)" xlink:href="#bq"/><use transform="matrix(0.05,0,0,0.05,12.950000000000001,0)" xlink:href="#bg"/><use transform="matrix(0.05,0,0,0.05,22.950000000000003,0)" xlink:href="#bn"/><use transform="matrix(0.05,0,0,0.05,32.95,0)" xlink:href="#aX"/><use transform="matrix(0.05,0,0,0.05,41.95,0)" xlink:href="#bl"/><use transform="matrix(0.05,0,0,0.05,45.900000000000006,0)" xlink:href="#bk"/><use transform="matrix(0.05,0,0,0.05,55.900000000000006,0)" xlink:href="#bd"/></g><g id="ah"><use transform="matrix(0.05,0,0,0.05,0,0)" xlink:href="#bb"/><use transform="matrix(0.05,0,0,0.05,5.95,0)" xlink:href="#aY"/><use transform="matrix(0.05,0,0,0.05,15.949999999999998,0)" xlink:href="#bv"/><use transform="matrix(0.05,0,0,0.05,25.950000000000003,0)" xlink:href="#bd"/><use transform="matrix(0.05,0,0,0.05,29.899999999999995,0)" xlink:href="#aZ"/><use transform="matrix(0.05,0,0,0.05,38.9,0)" xlink:href="#be"/><use transform="matrix(0.05,0,0,0.05,43.9,0)" xlink:href="#bb"/><use transform="matrix(0.05,0,0,0.05,49.85,0)" xlink:href="#bg"/></g></defs></g></svg>