<svg xmlns="http://www.w3.org/2000/svg" xmlns:xlink="http://www.w3.org/1999/xlink" xmlns:lucid="lucid" width="1760" height="1360"><g transform="translate(0 0)" lucid:page-tab-id="0_0"><path d="M920 60c0 11.05-8.95 20-20 20s-20-8.95-20-20 8.95-20 20-20 20 8.95 20 20z" stroke="#666"/><path d="M900 81v34" stroke="#333" fill="none"/><path d="M899.98 80.5l.52-.02V81h-1v-.56z" stroke="#333" stroke-width=".05" fill="#333"/><path d="M900 129.78l-4.64-14.27h9.28z" stroke="#333" fill="#333"/><path d="M836 131.4c-8.84 0-16 7.16-16 16v48c0 8.83 7.16 16 16 16h128c8.84 0 16-7.17 16-16v-48c0-8.84-7.16-16-16-16z" stroke="#000" stroke-opacity="0" fill="#00b098"/><use xlink:href="#a" transform="matrix(1,0,0,1,828,139.39712775154464) translate(35.50617283950618 26.488888888888887)"/><use xlink:href="#b" transform="matrix(1,0,0,1,828,139.39712775154464) translate(88.74074074074075 26.488888888888887)"/><use xlink:href="#c" transform="matrix(1,0,0,1,828,139.39712775154464) translate(35.03703703703704 47.822222222222216)"/><path d="M900 211.9v51.72" stroke="#333" fill="none"/><path d="M900.5 211.9h-1v-.5h1z" stroke="#333" stroke-width=".05" fill="#333"/><path d="M900 278.38l-4.64-14.26h9.28z" stroke="#333" fill="#333"/><path d="M1080 428c0-4.42 3.58-8 8-8h144c4.42 0 8 3.58 8 8v4c0 4.42-3.58 8-8 8h-144c-4.42 0-8-3.58-8-8z" stroke="#666"/><path d="M642.8 334.34H542.03l-3 .4-2.77 1.13-2.4 1.84-1.82 2.4-1.14 2.75-.4 3.02v4.98h-1v-5.05l.42-3.2 1.24-3 2-2.6 2.6-2 3-1.24 3.2-.42H642.8zm178.66 0h-145.7v-1h145.7z" stroke="#333" stroke-width=".05" fill="#333"/><path d="M821.9 334.34h-.45v-1h.57z" fill="#333"/><path d="M821.92 334.36h-.5v-1.05h.63zm-.45-1v.95h.4l.12-.94z" stroke="#333" stroke-width=".05" fill="#333"/><path d="M530 365.62l-4.64-14.27h9.28z" fill="#333"/><path d="M530 367.24l-5.32-16.4h10.64zm-3.95-15.4L530 364l3.95-12.15z" stroke="#333" stroke-width=".05" fill="#333"/><use xlink:href="#d" transform="matrix(1,0,0,1,642.8044326203176,323.03545934496566) translate(0.004999999999999005 14.4)"/><path d="M466 367.24c-8.84 0-16 7.16-16 16v48c0 8.83 7.16 16 16 16h128c8.84 0 16-7.17 16-16v-48c0-8.84-7.16-16-16-16z" stroke="#000" stroke-opacity="0" fill="#00b098"/><use xlink:href="#e" transform="matrix(1,0,0,1,458,375.2354593449657) translate(49.33333333333333 26.488888888888887)"/><use xlink:href="#f" transform="matrix(1,0,0,1,458,375.2354593449657) translate(36 47.822222222222216)"/><path d="M522.5 490.04c4.15-1.55 10.85-1.55 15 0l65 24.4c4.15 1.54 4.15 4.05 0 5.6l-65 24.4c-4.15 1.54-10.85 1.54-15 0l-65-24.4c-4.15-1.55-4.15-4.06 0-5.6z" stroke="#009985" stroke-width="4" fill="#fff"/><path d="M530 447.74v22.97" stroke="#333" fill="none"/><path d="M530.5 447.75h-1v-.5h1z" stroke="#333" stroke-width=".05" fill="#333"/><path d="M530 485.47l-4.64-14.26h9.28z" stroke="#333" fill="#333"/><path d="M326.22 517.74h-24.2l-3 .4-2.76 1.13-2.4 1.84-1.82 2.4-1.14 2.75-.4 3.02v49.95h-1V529.2l.42-3.2 1.24-3 2-2.6 2.6-2 3-1.24 3.2-.42h24.26zm126.03 0h-57.13v-1h57.13z" stroke="#333" stroke-width=".05" fill="#333"/><path d="M452.68 517.74h-.44v-1h.58z" fill="#333"/><path d="M452.7 517.76h-.5v-1.05h.65zm-.44-1v.95h.4l.13-.94z" stroke="#333" stroke-width=".05" fill="#333"/><path d="M290 594l-4.64-14.28h9.28z" fill="#333"/><path d="M290 595.6l-5.32-16.38h10.64zm-3.95-15.38l3.95 12.15 3.95-12.15z" stroke="#333" stroke-width=".05" fill="#333"/><use xlink:href="#g" transform="matrix(1,0,0,1,326.21666666666675,506.43545934496586) translate(0.005000000000002558 14.4)"/><path d="M226 595.6c-8.84 0-16 7.17-16 16v48c0 8.84 7.16 16 16 16h128c8.84 0 16-7.16 16-16v-48c0-8.83-7.16-16-16-16z" stroke="#000" stroke-opacity="0" fill="#00b098"/><use xlink:href="#h" transform="matrix(1,0,0,1,218,603.6057238153223) translate(15.827160493827162 26.488888888888887)"/><use xlink:href="#i" transform="matrix(1,0,0,1,218,603.6057238153223) translate(89.80246913580248 26.488888888888887)"/><use xlink:href="#j" transform="matrix(1,0,0,1,218,603.6057238153223) translate(25.629629629629637 47.822222222222216)"/><use xlink:href="#k" transform="matrix(1,0,0,1,218,603.6057238153223) translate(50.320987654320994 47.822222222222216)"/><path d="M721.24 517.16l3 1.24 2.6 2 2 2.6 1.24 3 .42 3.2v42.02h-1v-41.95l-.4-3.02-1.14-2.75-1.83-2.4-2.4-1.83-2.75-1.14-3-.4h-12.53v-1h12.58zm-113.5.58v-1h34.8v1z" stroke="#333" stroke-width=".05" fill="#333"/><path d="M607.76 517.74h-.58l.14-1h.44z" fill="#333"/><path d="M607.8 517.76h-.65l.15-1.05h.5zm-.46-1l-.13.95h.54v-.94z" stroke="#333" stroke-width=".05" fill="#333"/><path d="M730 585.98l-4.64-14.26h9.28z" fill="#333"/><path d="M730 587.6l-5.32-16.38h10.64zm-3.95-15.38l3.95 12.15 3.95-12.15z" stroke="#333" stroke-width=".05" fill="#333"/><use xlink:href="#l" transform="matrix(1,0,0,1,642.55,506.43545934496586) translate(0.004999999999999005 14.4)"/><path d="M666 587.6c-8.84 0-16 7.16-16 16v48c0 8.84 7.16 16 16 16h128c8.84 0 16-7.16 16-16v-48c0-8.84-7.16-16-16-16z" stroke="#000" stroke-opacity="0" fill="#00b098"/><use xlink:href="#h" transform="matrix(1,0,0,1,658,595.6015379627036) translate(15.827160493827162 26.488888888888887)"/><use xlink:href="#i" transform="matrix(1,0,0,1,658,595.6015379627036) translate(89.80246913580248 26.488888888888887)"/><use xlink:href="#j" transform="matrix(1,0,0,1,658,595.6015379627036) translate(28.59259259259259 47.822222222222216)"/><use xlink:href="#m" transform="matrix(1,0,0,1,658,595.6015379627036) translate(53.28395061728395 47.822222222222216)"/><path d="M523.4 699.75c3.64-2.5 9.56-2.5 13.2 0l66.8 45.55c3.64 2.5 3.64 6.53 0 9.02l-66.8 45.55c-3.64 2.5-9.56 2.5-13.2 0l-66.8-45.55c-3.64-2.5-3.64-6.53 0-9.02z" stroke="#009985" stroke-width="4" fill="#fff"/><path d="M730 668.1v69.7c0 6.64-5.37 12-12 12h-93.57" stroke="#333" fill="none"/><path d="M730.5 668.1h-1v-.5h1z" stroke="#333" stroke-width=".05" fill="#333"/><path d="M609.66 749.8l14.27-4.63v9.27z" stroke="#333" fill="#333"/><path d="M290 676.1v61.7c0 6.64 5.37 12 12 12h133.57" stroke="#333" fill="none"/><path d="M290.5 676.12h-1v-.5h1z" stroke="#333" stroke-width=".05" fill="#333"/><path d="M450.34 749.8l-14.27 4.64v-9.27z" stroke="#333" fill="#333"/><path d="M1120 440.5V483c0 6.63-5.37 12-12 12h-76c-6.63 0-12 5.37-12 12v26.62" stroke="#333" fill="none"/><path d="M1120.5 440.5h-1 1z" stroke="#333" stroke-width=".05" fill="#333"/><path d="M1020 548.38l-4.64-14.26h9.28z" stroke="#333" fill="#333"/><path d="M956 550c-8.84 0-16 7.16-16 16v48c0 8.84 7.16 16 16 16h128c8.84 0 16-7.16 16-16v-48c0-8.84-7.16-16-16-16z" stroke="#000" stroke-opacity="0" fill="#00b098"/><use xlink:href="#n" transform="matrix(1,0,0,1,948,558) translate(20.716049382716047 26.488888888888887)"/><use xlink:href="#o" transform="matrix(1,0,0,1,948,558) translate(74.8888888888889 26.488888888888887)"/><use xlink:href="#p" transform="matrix(1,0,0,1,948,558) translate(40.93827160493828 47.822222222222216)"/><use xlink:href="#q" transform="matrix(1,0,0,1,948,558) translate(65.62962962962963 47.822222222222216)"/><path d="M530 804.14v115.68c0 6.63 5.37 12 12 12h306c6.63 0 12 5.37 12 12v99.8" stroke="#333" fill="none"/><path d="M530.5 803.67v.5h-1v-.55z" stroke="#333" stroke-width=".05" fill="#333"/><path d="M860 1058.38l-4.64-14.26h9.28z" stroke="#333" fill="#333"/><path d="M1034.55 1017.33h-82.52l-3 .4-2.77 1.14-2.4 1.83-1.82 2.4-1.14 2.75-.4 3.02v14.75h-1v-14.82l.42-3.2 1.24-3 2-2.6 2.6-2 3-1.25 3.2-.42h82.6zm125.95-12.46l-.42 3.2-1.24 3-2 2.6-2.6 2-3 1.24-3.2.43h-82.6v-1h82.53l3-.4 2.77-1.13 2.4-1.84 1.82-2.4 1.14-2.74.4-3.02v-30.63h1z" stroke="#333" stroke-width=".05" fill="#333"/><path d="M1160.5 974.18h-1v-.47l1-.08z" fill="#333"/><path d="M1160.53 974.2h-1.06v-.52l1.06-.08zm-1-.47v.42h.94v-.5z" stroke="#333" stroke-width=".05" fill="#333"/><path d="M940 1058.38l-4.64-14.26h9.28z" fill="#333"/><path d="M940 1060l-5.32-16.38h10.64zm-3.95-15.38l3.95 12.14 3.95-12.14z" stroke="#333" stroke-width=".05" fill="#333"/><use xlink:href="#r" transform="matrix(1,0,0,1,1034.55,1006.032915291823) translate(0.005000000000000782 14.4)"/><path d="M830.05 1120c-11.07 0-20.05 8.98-20.05 20.05v60.15c0 11.07 8.98 20.05 20.05 20.05h139.9c11.07 0 20.05-8.98 20.05-20.05v-60.15c0-11.07-8.98-20.05-20.05-20.05z" stroke="#000" stroke-opacity="0" fill="#00b098"/><use xlink:href="#s" transform="matrix(1,0,0,1,818,1128) translate(24.345679012345666 26.322222222222223)"/><use xlink:href="#t" transform="matrix(1,0,0,1,818,1128) translate(129.7777777777778 26.322222222222223)"/><use xlink:href="#u" transform="matrix(1,0,0,1,818,1128) translate(25.283950617283953 47.65555555555556)"/><use xlink:href="#v" transform="matrix(1,0,0,1,818,1128) translate(88.39506172839506 47.65555555555556)"/><use xlink:href="#w" transform="matrix(1,0,0,1,818,1128) translate(128.83950617283952 47.65555555555556)"/><use xlink:href="#x" transform="matrix(1,0,0,1,818,1128) translate(19.901234567901223 68.9888888888889)"/><use xlink:href="#y" transform="matrix(1,0,0,1,818,1128) translate(78.12345679012346 68.9888888888889)"/><path d="M900 1220.75v7.12" stroke="#333" fill="none"/><path d="M900.5 1220.76h-1v-.5h1z" stroke="#333" stroke-width=".05" fill="#333"/><path d="M900 1242.63l-4.64-14.26h9.28z" stroke="#333" fill="#333"/><path d="M920 1264.75c0 11.05-8.95 20-20 20s-20-8.95-20-20c0-11.04 8.95-20 20-20s20 8.96 20 20z" stroke="#666" fill="#fff"/><path d="M912 1264.75c0 6.63-5.37 12-12 12s-12-5.37-12-12 5.37-12 12-12 12 5.37 12 12z" stroke="#666"/><path d="M490 506.62c0-4.42 3.58-8 8-8h69c4.42 0 8 3.58 8 8v21.23c0 4.42-3.58 8-8 8h-69c-4.42 0-8-3.58-8-8z" stroke="#000" stroke-opacity="0" fill="#fff" fill-opacity="0"/><use xlink:href="#z" transform="matrix(1,0,0,1,495,503.61772967248294) translate(15.189814814814817 10.844444444444445)"/><use xlink:href="#A" transform="matrix(1,0,0,1,495,503.61772967248294) translate(44.748456790123456 10.844444444444445)"/><use xlink:href="#B" transform="matrix(1,0,0,1,495,503.61772967248294) translate(9.67345679012346 27.11111111111111)"/><use xlink:href="#C" transform="matrix(1,0,0,1,495,503.61772967248294) translate(57.79567901234568 27.11111111111111)"/><path d="M1152.9 894.2c3.92-2.03 10.28-2.03 14.2 0l65.8 34.3c3.92 2.06 3.92 5.37 0 7.4l-65.8 34.3c-3.92 2.06-10.28 2.06-14.2 0l-65.8-34.3c-3.92-2.03-3.92-5.34 0-7.4z" stroke="#009985" stroke-width="4" fill="#fff"/><path d="M485 724.4c0-4.4 3.58-8 8-8h74c4.42 0 8 3.6 8 8v50.8c0 4.43-3.58 8-8 8h-74c-4.42 0-8-3.57-8-8z" stroke="#000" stroke-opacity="0" fill="#fff" fill-opacity="0"/><use xlink:href="#D" transform="matrix(1,0,0,1,490,721.4077070007212) translate(8.050000000000004 12.622222222222224)"/><use xlink:href="#E" transform="matrix(1,0,0,1,490,721.4077070007212) translate(18.52469135802469 31.55555555555556)"/><use xlink:href="#F" transform="matrix(1,0,0,1,490,721.4077070007212) translate(4.105555555555554 50.488888888888894)"/><path d="M1125 908.5c0-4.4 3.58-8 8-8h54c4.42 0 8 3.6 8 8v50.8c0 4.43-3.58 8-8 8h-54c-4.42 0-8-3.57-8-8z" stroke="#000" stroke-opacity="0" fill="#fff" fill-opacity="0"/><use xlink:href="#G" transform="matrix(1,0,0,1,1130,905.5127031843236) translate(4.163888888888891 23.309722222222224)"/><use xlink:href="#H" transform="matrix(1,0,0,1,1130,905.5127031843236) translate(47.07067901234568 23.309722222222224)"/><use xlink:href="#I" transform="matrix(1,0,0,1,1130,905.5127031843236) translate(2.8709876543209916 42.24305555555556)"/><use xlink:href="#J" transform="matrix(1,0,0,1,1130,905.5127031843236) translate(48.36358024691358 42.24305555555556)"/><path d="M1282.43 932.7h-44.12v-1h44.13zm61.2 0h-28.25v-1h28.24z" stroke="#333" stroke-width=".05" fill="#333"/><path d="M1238.32 932.7h-.37l-.28-1h.65z" fill="#333"/><path d="M1238.35 932.74h-.42l-.3-1.05h.72zm-.65-1l.27.95h.33v-.96z" stroke="#333" stroke-width=".05" fill="#333"/><path d="M1358.38 932.2l-14.26 4.65v-9.27z" fill="#333"/><path d="M1360 932.2l-16.38 5.34V926.9zm-15.38 3.96l12.14-3.95-12.14-3.93z" stroke="#333" stroke-width=".05" fill="#333"/><use xlink:href="#d" transform="matrix(1,0,0,1,1282.42994160441,921.4127031843236) translate(0.004999999999999005 14.4)"/><path d="M1376 892.2c-8.84 0-16 7.18-16 16v48c0 8.85 7.16 16 16 16h128c8.84 0 16-7.15 16-16v-48c0-8.82-7.16-16-16-16z" stroke="#000" stroke-opacity="0" fill="#00c2a8"/><use xlink:href="#K" transform="matrix(1,0,0,1,1368,900.2127031843236) translate(41.574999999999996 14.4)"/><use xlink:href="#L" transform="matrix(1,0,0,1,1368,900.2127031843236) translate(15.049999999999997 36)"/><use xlink:href="#M" transform="matrix(1,0,0,1,1368,900.2127031843236) translate(108.95 36)"/><use xlink:href="#N" transform="matrix(1,0,0,1,1368,900.2127031843236) translate(56.05 57.6)"/><path d="M1236 550c-8.84 0-16 7.16-16 16v48c0 8.84 7.16 16 16 16h128c8.84 0 16-7.16 16-16v-48c0-8.84-7.16-16-16-16z" stroke="#000" stroke-opacity="0" fill="#00b098"/><use xlink:href="#O" transform="matrix(1,0,0,1,1228,558) translate(3.0749999999999886 35.6)"/><use xlink:href="#P" transform="matrix(1,0,0,1,1228,558) translate(91.925 35.6)"/><path d="M1080 816.37c0-4.42 3.58-8 8-8h144c4.42 0 8 3.58 8 8v4c0 4.42-3.58 8-8 8h-144c-4.42 0-8-3.58-8-8z" stroke="#666"/><path d="M1020 630.5v76.7c0 6.6 5.37 12 12 12h76c6.63 0 12 5.36 12 12V792" stroke="#333" fill="none"/><path d="M1020.5 630.5h-1v-.5h1z" stroke="#333" stroke-width=".05" fill="#333"/><path d="M1120 806.75l-4.64-14.26h9.28z" stroke="#333" fill="#333"/><path d="M1300 630.5v76.7c0 6.6-5.37 12-12 12h-76c-6.63 0-12 5.36-12 12V792" stroke="#333" fill="none"/><path d="M1300.5 630.5h-1v-.5h1z" stroke="#333" stroke-width=".05" fill="#333"/><path d="M1200 806.75l-4.64-14.26h9.28z" stroke="#333" fill="#333"/><path d="M1160 829.37v45" stroke="#333" fill="none"/><path d="M1160.5 829.38h-1v-.5h1z" stroke="#333" stroke-width=".05" fill="#333"/><path d="M1160 889.14l-4.64-14.26h9.28z" stroke="#333" fill="#333"/><path d="M1660 932.2c0 11.06-8.95 20-20 20s-20-8.94-20-20c0-11.03 8.95-20 20-20s20 8.97 20 20z" stroke="#666" fill="#fff"/><path d="M1652 932.2c0 6.64-5.37 12-12 12s-12-5.36-12-12c0-6.6 5.37-12 12-12s12 5.4 12 12z" stroke="#666"/><path d="M1520.5 932.2h82.62" stroke="#333" fill="none"/><path d="M1520.5 932.7h-.5v-1h.5z" stroke="#333" stroke-width=".05" fill="#333"/><path d="M1617.88 932.2l-14.26 4.65v-9.27z" stroke="#333" fill="#333"/><path d="M893.4 283.78c3.64-2.5 9.56-2.5 13.2 0l66.8 45.55c3.64 2.5 3.64 6.52 0 9l-66.8 45.57c-3.64 2.5-9.56 2.5-13.2 0l-66.8-45.56c-3.64-2.5-3.64-6.52 0-9z" stroke="#009985" stroke-width="4" fill="#fff"/><path d="M855 308.44c0-4.42 3.58-8 8-8h74c4.42 0 8 3.58 8 8v50.8c0 4.4-3.58 8-8 8h-74c-4.42 0-8-3.6-8-8z" stroke="#000" stroke-opacity="0" fill="#fff" fill-opacity="0"/><g><use xlink:href="#Q" transform="matrix(1,0,0,1,860,305.4354593449657) translate(4.58765432098766 12.722222222222221)"/><use xlink:href="#R" transform="matrix(1,0,0,1,860,305.4354593449657) translate(63.184567901234566 12.722222222222221)"/><use xlink:href="#H" transform="matrix(1,0,0,1,860,305.4354593449657) translate(35.617283950617285 31.65555555555556)"/><use xlink:href="#S" transform="matrix(1,0,0,1,860,305.4354593449657) translate(-3.366975308641976 50.58888888888889)"/></g><path d="M1151.24 333.76l3 1.24 2.6 2 2 2.6 1.24 3 .42 3.2v57.32h-1v-57.25l-.4-3.02-1.14-2.75-1.83-2.4-2.4-1.83-2.75-1.14-3-.4h-20.68v-1h20.73zm-172.7.58v-1h117.86v1z" stroke="#333" stroke-width=".05" fill="#333"/><path d="M978.55 334.34h-.57l.12-1h.45z" fill="#333"/><path d="M978.58 334.36h-.63l.13-1.05h.5zm-.46-1l-.1.95h.5v-.94z" stroke="#333" stroke-width=".05" fill="#333"/><path d="M1160 417.88l-4.64-14.26h9.28z" fill="#333"/><path d="M1160 419.5l-5.32-16.38h10.64zm-3.95-15.38l3.95 12.14 3.95-12.14z" stroke="#333" stroke-width=".05" fill="#333"/><g><use xlink:href="#r" transform="matrix(1,0,0,1,1096.4028377313966,323.03545934496566) translate(0.005000000000000782 14.4)"/></g><path d="M820 1068c0-4.42 3.58-8 8-8h144c4.42 0 8 3.58 8 8v4c0 4.42-3.58 8-8 8H828c-4.42 0-8-3.58-8-8z" stroke="#666"/><path d="M900 1081v22.62" stroke="#333" fill="none"/><path d="M900.5 1081h-1v-.5h1z" stroke="#333" stroke-width=".05" fill="#333"/><path d="M900 1118.38l-4.64-14.26h9.28z" stroke="#333" fill="#333"/><path d="M1200 440.5V483c0 6.63 5.37 12 12 12h64c6.63 0 12 5.37 12 12v26.62" stroke="#333" fill="none"/><path d="M1200.5 440.5h-1 1z" stroke="#333" stroke-width=".05" fill="#333"/><path d="M1288 548.38l-4.64-14.26h9.28z" stroke="#333" fill="#333"/><defs><path fill="#fff" d="M11 0l48-248h184l-5 28H87l-15 79h140l-5 27H67L50-27h158l-5 27H11" id="T"/><path fill="#fff" d="M67-158c22-48 132-52 116 29L158 0h-32l25-140c3-38-53-32-70-12C52-117 51-52 38 0H6l36-190h30" id="U"/><path fill="#fff" d="M51-54c-9 22 5 41 31 30L79-1C43 14 10-4 19-52l22-115H19l5-23h22l19-43h21l-9 43h35l-4 23H73" id="V"/><path fill="#fff" d="M66-151c12-25 30-51 66-40l-6 26C45-176 58-65 38 0H6l36-190h30" id="W"/><path fill="#fff" d="M165-48c-4 18 1 34 23 27l-3 20c-29 8-62 0-52-35h-2C116-14 99 4 63 4 30 4 8-16 8-49c0-68 71-67 138-67 10-26 0-56-31-54-26 1-42 9-47 31l-32-5c8-67 160-71 144 15-5 28-9 54-15 81zM42-50c3 52 80 24 89-6 7-12 7-24 11-38-47 1-103-4-100 44" id="X"/><g id="a"><use transform="matrix(0.04938271604938272,0,0,0.04938271604938272,0,0)" xlink:href="#T"/><use transform="matrix(0.04938271604938272,0,0,0.04938271604938272,11.851851851851853,0)" xlink:href="#U"/><use transform="matrix(0.04938271604938272,0,0,0.04938271604938272,21.7283950617284,0)" xlink:href="#V"/><use transform="matrix(0.04938271604938272,0,0,0.04938271604938272,26.666666666666668,0)" xlink:href="#W"/><use transform="matrix(0.04938271604938272,0,0,0.04938271604938272,32.543209876543216,0)" xlink:href="#X"/><use transform="matrix(0.04938271604938272,0,0,0.04938271604938272,42.41975308641976,0)" xlink:href="#W"/></g><path fill="#fff" d="M30-147c31-64 166-65 159 27C183-49 158 1 86 4 9 8 1-88 30-147zM88-20c53 0 68-48 68-100 0-31-11-51-44-50-52 1-68 46-68 97 0 32 13 53 44 53" id="Y"/><g id="b"><use transform="matrix(0.04938271604938272,0,0,0.04938271604938272,0,0)" xlink:href="#U"/><use transform="matrix(0.04938271604938272,0,0,0.04938271604938272,9.876543209876544,0)" xlink:href="#Y"/></g><path fill="#fff" d="M67-162c32-53 139-36 121 50C175-51 163 2 97 4 68 4 52-11 42-31 38 6 28 39 22 75H-9l50-265h29c-1 10 0 20-3 28zm89 36c0-26-10-43-35-43-54 0-67 50-69 103-1 29 14 45 42 46 53 0 62-58 62-106" id="Z"/><path fill="#fff" d="M6 0l50-261h32L37 0H6" id="aa"/><path fill="#fff" d="M50-231l6-30h32l-6 30H50zM6 0l37-190h31L37 0H6" id="ab"/><path fill="#fff" d="M44-68c0 29 11 47 38 47 30 0 42-19 51-41l28 9C148-21 126 4 82 4 31 4 10-29 12-85c3-77 74-140 146-93 12 8 15 23 18 40l-31 5c-1-22-13-36-36-36-52 0-65 49-65 101" id="ac"/><path fill="#fff" d="M89 0H52L20-190h33L74-25l89-165h34" id="ad"/><g id="c"><use transform="matrix(0.04938271604938272,0,0,0.04938271604938272,0,0)" xlink:href="#X"/><use transform="matrix(0.04938271604938272,0,0,0.04938271604938272,9.876543209876544,0)" xlink:href="#Z"/><use transform="matrix(0.04938271604938272,0,0,0.04938271604938272,19.75308641975309,0)" xlink:href="#aa"/><use transform="matrix(0.04938271604938272,0,0,0.04938271604938272,23.654320987654323,0)" xlink:href="#ab"/><use transform="matrix(0.04938271604938272,0,0,0.04938271604938272,27.555555555555557,0)" xlink:href="#ac"/><use transform="matrix(0.04938271604938272,0,0,0.04938271604938272,36.44444444444444,0)" xlink:href="#X"/><use transform="matrix(0.04938271604938272,0,0,0.04938271604938272,46.32098765432099,0)" xlink:href="#V"/><use transform="matrix(0.04938271604938272,0,0,0.04938271604938272,51.25925925925927,0)" xlink:href="#ab"/><use transform="matrix(0.04938271604938272,0,0,0.04938271604938272,55.1604938271605,0)" xlink:href="#ad"/><use transform="matrix(0.04938271604938272,0,0,0.04938271604938272,64.04938271604938,0)" xlink:href="#Y"/></g><path fill="#333" d="M190 0L58-211 59 0H30v-248h39L202-35l-2-213h31V0h-41" id="ae"/><path fill="#333" d="M141-36C126-15 110 5 73 4 37 3 15-17 15-53c-1-64 63-63 125-63 3-35-9-54-41-54-24 1-41 7-42 31l-33-3c5-37 33-52 76-52 45 0 72 20 72 64v82c-1 20 7 32 28 27v20c-31 9-61-2-59-35zM48-53c0 20 12 33 32 33 41-3 63-29 60-74-43 2-92-5-92 41zm117-205c-3 23-9 48-36 47-26-1-65-44-74 0H39c4-23 8-48 36-47s64 44 74 0h16" id="af"/><path fill="#333" d="M100-194c62-1 85 37 85 99 1 63-27 99-86 99S16-35 15-95c0-66 28-99 85-99zM99-20c44 1 53-31 53-75 0-43-8-75-51-75s-53 32-53 75 10 74 51 75" id="ag"/><g id="d"><use transform="matrix(0.05,0,0,0.05,0,0)" xlink:href="#ae"/><use transform="matrix(0.05,0,0,0.05,12.950000000000001,0)" xlink:href="#af"/><use transform="matrix(0.05,0,0,0.05,22.950000000000003,0)" xlink:href="#ag"/></g><path fill="#fff" d="M87-220l-18 92h140l-5 28H64L45 0H11l48-248h178l-5 28H87" id="ah"/><path fill="#fff" d="M-8 0l5-24 140-142H31l5-24h145l-5 24L36-24h119l-5 24H-8" id="ai"/><path fill="#fff" d="M111-194c62-3 86 47 72 106H45c-7 38 6 69 45 68 27-1 43-14 53-32l24 11C152-15 129 4 87 4 38 3 12-23 12-71c0-70 32-119 99-123zm44 81c14-66-71-72-95-28-4 8-8 17-11 28h106" id="aj"/><g id="e"><use transform="matrix(0.04938271604938272,0,0,0.04938271604938272,0,0)" xlink:href="#ah"/><use transform="matrix(0.04938271604938272,0,0,0.04938271604938272,10.814814814814815,0)" xlink:href="#X"/><use transform="matrix(0.04938271604938272,0,0,0.04938271604938272,20.69135802469136,0)" xlink:href="#ai"/><use transform="matrix(0.04938271604938272,0,0,0.04938271604938272,29.58024691358025,0)" xlink:href="#aj"/><use transform="matrix(0.04938271604938272,0,0,0.04938271604938272,39.4567901234568,0)" xlink:href="#W"/></g><path fill="#fff" d="M125-24c46 0 70-25 89-51l25 16C214-24 183 4 123 4 8 4-5-146 60-208c32-50 158-61 191-5 5 7 9 14 11 22l-32 10c-9-28-33-43-69-43-74 0-108 51-108 125 0 46 24 75 72 75" id="ak"/><path fill="#fff" d="M133-28C103 26-5 8 13-77c13-62 24-115 90-117 29-1 46 15 56 35l19-102h32L160 0h-30zM45-64c-2 27 10 43 35 43 54-1 69-50 69-103 0-29-15-46-42-46-53-1-58 58-62 106" id="al"/><path fill="#fff" d="M55-144c13 50 104 24 104 88C159 21 15 23 1-39l26-10c6 40 102 42 102-4-13-50-104-23-104-87 0-71 143-71 148-8l-29 4c-5-35-85-37-89 0" id="am"/><g id="f"><use transform="matrix(0.04938271604938272,0,0,0.04938271604938272,0,0)" xlink:href="#ak"/><use transform="matrix(0.04938271604938272,0,0,0.04938271604938272,12.790123456790125,0)" xlink:href="#X"/><use transform="matrix(0.04938271604938272,0,0,0.04938271604938272,22.66666666666667,0)" xlink:href="#al"/><use transform="matrix(0.04938271604938272,0,0,0.04938271604938272,32.543209876543216,0)" xlink:href="#X"/><use transform="matrix(0.04938271604938272,0,0,0.04938271604938272,42.41975308641976,0)" xlink:href="#am"/><use transform="matrix(0.04938271604938272,0,0,0.04938271604938272,51.308641975308646,0)" xlink:href="#V"/><use transform="matrix(0.04938271604938272,0,0,0.04938271604938272,56.24691358024692,0)" xlink:href="#W"/><use transform="matrix(0.04938271604938272,0,0,0.04938271604938272,62.12345679012346,0)" xlink:href="#Y"/></g><path fill="#333" d="M30-248c87 1 191-15 191 75 0 78-77 80-158 76V0H30v-248zm33 125c57 0 124 11 124-50 0-59-68-47-124-48v98" id="an"/><path fill="#333" d="M114-163C36-179 61-72 57 0H25l-1-190h30c1 12-1 29 2 39 6-27 23-49 58-41v29" id="ao"/><path fill="#333" d="M85-194c31 0 48 13 60 33l-1-100h32l1 261h-30c-2-10 0-23-3-31C134-8 116 4 85 4 32 4 16-35 15-94c0-66 23-100 70-100zm9 24c-40 0-46 34-46 75 0 40 6 74 45 74 42 0 51-32 51-76 0-42-9-74-50-73" id="ap"/><path fill="#333" d="M84 4C-5 8 30-112 23-190h32v120c0 31 7 50 39 49 72-2 45-101 50-169h31l1 190h-30c-1-10 1-25-2-33-11 22-28 36-60 37" id="aq"/><path fill="#333" d="M59-47c-2 24 18 29 38 22v24C64 9 27 4 27-40v-127H5v-23h24l9-43h21v43h35v23H59v120" id="ar"/><g id="g"><use transform="matrix(0.05,0,0,0.05,0,0)" xlink:href="#an"/><use transform="matrix(0.05,0,0,0.05,12,0)" xlink:href="#ao"/><use transform="matrix(0.05,0,0,0.05,17.95,0)" xlink:href="#ag"/><use transform="matrix(0.05,0,0,0.05,27.950000000000003,0)" xlink:href="#ap"/><use transform="matrix(0.05,0,0,0.05,37.95,0)" xlink:href="#aq"/><use transform="matrix(0.05,0,0,0.05,47.95,0)" xlink:href="#ar"/><use transform="matrix(0.05,0,0,0.05,52.95,0)" xlink:href="#ag"/><use transform="matrix(0.05,0,0,0.05,62.95,0)" xlink:href="#ao"/></g><path fill="#fff" d="M30 0v-248h187v28H63v79h144v27H63v87h162V0H30" id="as"/><path fill="#fff" d="M135-143c-3-34-86-38-87 0 15 53 115 12 119 90S17 21 10-45l28-5c4 36 97 45 98 0-10-56-113-15-118-90-4-57 82-63 122-42 12 7 21 19 24 35" id="at"/><path fill="#fff" d="M96-169c-40 0-48 33-48 73s9 75 48 75c24 0 41-14 43-38l32 2c-6 37-31 61-74 61-59 0-76-41-82-99-10-93 101-131 147-64 4 7 5 14 7 22l-32 3c-4-21-16-35-41-35" id="au"/><path fill="#fff" d="M100-194c62-1 85 37 85 99 1 63-27 99-86 99S16-35 15-95c0-66 28-99 85-99zM99-20c44 1 53-31 53-75 0-43-8-75-51-75s-53 32-53 75 10 74 51 75" id="av"/><path fill="#fff" d="M24 0v-261h32V0H24" id="aw"/><path fill="#fff" d="M106-169C34-169 62-67 57 0H25v-261h32l-1 103c12-21 28-36 61-36 89 0 53 116 60 194h-32v-121c2-32-8-49-39-48" id="ax"/><path fill="#fff" d="M100-194c63 0 86 42 84 106H49c0 40 14 67 53 68 26 1 43-12 49-29l28 8c-11 28-37 45-77 45C44 4 14-33 15-96c1-61 26-98 85-98zm52 81c6-60-76-77-97-28-3 7-6 17-6 28h103" id="ay"/><path fill="#fff" d="M114-163C36-179 61-72 57 0H25l-1-190h30c1 12-1 29 2 39 6-27 23-49 58-41v29" id="az"/><g id="h"><use transform="matrix(0.04938271604938272,0,0,0.04938271604938272,0,0)" xlink:href="#as"/><use transform="matrix(0.04938271604938272,0,0,0.04938271604938272,11.851851851851853,0)" xlink:href="#at"/><use transform="matrix(0.04938271604938272,0,0,0.04938271604938272,20.74074074074074,0)" xlink:href="#au"/><use transform="matrix(0.04938271604938272,0,0,0.04938271604938272,29.629629629629633,0)" xlink:href="#av"/><use transform="matrix(0.04938271604938272,0,0,0.04938271604938272,39.50617283950618,0)" xlink:href="#aw"/><use transform="matrix(0.04938271604938272,0,0,0.04938271604938272,43.40740740740741,0)" xlink:href="#ax"/><use transform="matrix(0.04938271604938272,0,0,0.04938271604938272,53.283950617283956,0)" xlink:href="#ay"/><use transform="matrix(0.04938271604938272,0,0,0.04938271604938272,63.1604938271605,0)" xlink:href="#az"/></g><path fill="#fff" d="M115-194c55 1 70 41 70 98S169 2 115 4C84 4 66-9 55-30l1 105H24l-1-265h31l2 30c10-21 28-34 59-34zm-8 174c40 0 45-34 45-75s-6-73-45-74c-42 0-51 32-51 76 0 43 10 73 51 73" id="aA"/><path fill="#fff" d="M101-234c-31-9-42 10-38 44h38v23H63V0H32v-167H5v-23h27c-7-52 17-82 69-68v24" id="aB"/><path fill="#fff" d="M24-231v-30h32v30H24zM24 0v-190h32V0H24" id="aC"/><g id="i"><use transform="matrix(0.04938271604938272,0,0,0.04938271604938272,0,0)" xlink:href="#aA"/><use transform="matrix(0.04938271604938272,0,0,0.04938271604938272,9.876543209876544,0)" xlink:href="#ay"/><use transform="matrix(0.04938271604938272,0,0,0.04938271604938272,19.75308641975309,0)" xlink:href="#az"/><use transform="matrix(0.04938271604938272,0,0,0.04938271604938272,25.629629629629633,0)" xlink:href="#aB"/><use transform="matrix(0.04938271604938272,0,0,0.04938271604938272,30.567901234567906,0)" xlink:href="#aC"/><use transform="matrix(0.04938271604938272,0,0,0.04938271604938272,34.46913580246914,0)" xlink:href="#aw"/></g><path fill="#fff" d="M85-194c31 0 48 13 60 33l-1-100h32l1 261h-30c-2-10 0-23-3-31C134-8 116 4 85 4 32 4 16-35 15-94c0-66 23-100 70-100zm9 24c-40 0-46 34-46 75 0 40 6 74 45 74 42 0 51-32 51-76 0-42-9-74-50-73" id="aD"/><g id="j"><use transform="matrix(0.04938271604938272,0,0,0.04938271604938272,0,0)" xlink:href="#aD"/><use transform="matrix(0.04938271604938272,0,0,0.04938271604938272,9.876543209876544,0)" xlink:href="#ay"/></g><path fill="#fff" d="M30-248c87 1 191-15 191 75 0 78-77 80-158 76V0H30v-248zm33 125c57 0 124 11 124-50 0-59-68-47-124-48v98" id="aE"/><path fill="#fff" d="M84 4C-5 8 30-112 23-190h32v120c0 31 7 50 39 49 72-2 45-101 50-169h31l1 190h-30c-1-10 1-25-2-33-11 22-28 36-60 37" id="aF"/><path fill="#fff" d="M59-47c-2 24 18 29 38 22v24C64 9 27 4 27-40v-127H5v-23h24l9-43h21v43h35v23H59v120" id="aG"/><g id="k"><use transform="matrix(0.04938271604938272,0,0,0.04938271604938272,0,0)" xlink:href="#aE"/><use transform="matrix(0.04938271604938272,0,0,0.04938271604938272,11.851851851851853,0)" xlink:href="#az"/><use transform="matrix(0.04938271604938272,0,0,0.04938271604938272,17.728395061728396,0)" xlink:href="#av"/><use transform="matrix(0.04938271604938272,0,0,0.04938271604938272,27.60493827160494,0)" xlink:href="#aD"/><use transform="matrix(0.04938271604938272,0,0,0.04938271604938272,37.48148148148148,0)" xlink:href="#aF"/><use transform="matrix(0.04938271604938272,0,0,0.04938271604938272,47.358024691358025,0)" xlink:href="#aG"/><use transform="matrix(0.04938271604938272,0,0,0.04938271604938272,52.2962962962963,0)" xlink:href="#av"/><use transform="matrix(0.04938271604938272,0,0,0.04938271604938272,62.17283950617284,0)" xlink:href="#az"/></g><path fill="#333" d="M127-220V0H93v-220H8v-28h204v28h-85" id="aH"/><path fill="#333" d="M100-194c63 0 86 42 84 106H49c0 40 14 67 53 68 26 1 43-12 49-29l28 8c-11 28-37 45-77 45C44 4 14-33 15-96c1-61 26-98 85-98zm52 81c6-60-76-77-97-28-3 7-6 17-6 28h103zm-74-98c8-23 27-35 38-54h36v5l-58 49H78" id="aI"/><path fill="#333" d="M96-169c-40 0-48 33-48 73s9 75 48 75c24 0 41-14 43-38l32 2c-6 37-31 61-74 61-59 0-76-41-82-99-10-93 101-131 147-64 4 7 5 14 7 22l-32 3c-4-21-16-35-41-35" id="aJ"/><path fill="#333" d="M117-194c89-4 53 116 60 194h-32v-121c0-31-8-49-39-48C34-167 62-67 57 0H25l-1-190h30c1 10-1 24 2 32 11-22 29-35 61-36" id="aK"/><path fill="#333" d="M24-231v-30h32v30H24zM24 0v-190h32V0H24" id="aL"/><g id="l"><use transform="matrix(0.05,0,0,0.05,0,0)" xlink:href="#aH"/><use transform="matrix(0.05,0,0,0.05,10.950000000000001,0)" xlink:href="#aI"/><use transform="matrix(0.05,0,0,0.05,20.950000000000003,0)" xlink:href="#aJ"/><use transform="matrix(0.05,0,0,0.05,29.950000000000003,0)" xlink:href="#aK"/><use transform="matrix(0.05,0,0,0.05,39.95,0)" xlink:href="#aL"/><use transform="matrix(0.05,0,0,0.05,43.900000000000006,0)" xlink:href="#aJ"/><use transform="matrix(0.05,0,0,0.05,52.900000000000006,0)" xlink:href="#ag"/></g><path fill="#fff" d="M127-220V0H93v-220H8v-28h204v28h-85" id="aM"/><path fill="#fff" d="M100-194c63 0 86 42 84 106H49c0 40 14 67 53 68 26 1 43-12 49-29l28 8c-11 28-37 45-77 45C44 4 14-33 15-96c1-61 26-98 85-98zm52 81c6-60-76-77-97-28-3 7-6 17-6 28h103zm-74-98c8-23 27-35 38-54h36v5l-58 49H78" id="aN"/><path fill="#fff" d="M117-194c89-4 53 116 60 194h-32v-121c0-31-8-49-39-48C34-167 62-67 57 0H25l-1-190h30c1 10-1 24 2 32 11-22 29-35 61-36" id="aO"/><g id="m"><use transform="matrix(0.04938271604938272,0,0,0.04938271604938272,0,0)" xlink:href="#aM"/><use transform="matrix(0.04938271604938272,0,0,0.04938271604938272,10.814814814814815,0)" xlink:href="#aN"/><use transform="matrix(0.04938271604938272,0,0,0.04938271604938272,20.69135802469136,0)" xlink:href="#au"/><use transform="matrix(0.04938271604938272,0,0,0.04938271604938272,29.58024691358025,0)" xlink:href="#aO"/><use transform="matrix(0.04938271604938272,0,0,0.04938271604938272,39.4567901234568,0)" xlink:href="#aC"/><use transform="matrix(0.04938271604938272,0,0,0.04938271604938272,43.35802469135803,0)" xlink:href="#au"/><use transform="matrix(0.04938271604938272,0,0,0.04938271604938272,52.24691358024693,0)" xlink:href="#av"/></g><path fill="#fff" d="M33 0v-248h34V0H33" id="aP"/><g id="n"><use transform="matrix(0.04938271604938272,0,0,0.04938271604938272,0,0)" xlink:href="#aP"/><use transform="matrix(0.04938271604938272,0,0,0.04938271604938272,4.938271604938272,0)" xlink:href="#aO"/><use transform="matrix(0.04938271604938272,0,0,0.04938271604938272,14.814814814814817,0)" xlink:href="#at"/><use transform="matrix(0.04938271604938272,0,0,0.04938271604938272,23.703703703703706,0)" xlink:href="#ay"/><use transform="matrix(0.04938271604938272,0,0,0.04938271604938272,33.580246913580254,0)" xlink:href="#az"/><use transform="matrix(0.04938271604938272,0,0,0.04938271604938272,39.4567901234568,0)" xlink:href="#aC"/><use transform="matrix(0.04938271604938272,0,0,0.04938271604938272,43.35802469135803,0)" xlink:href="#az"/></g><path fill="#fff" d="M141-36C126-15 110 5 73 4 37 3 15-17 15-53c-1-64 63-63 125-63 3-35-9-54-41-54-24 1-41 7-42 31l-33-3c5-37 33-52 76-52 45 0 72 20 72 64v82c-1 20 7 32 28 27v20c-31 9-61-2-59-35zM48-53c0 20 12 33 32 33 41-3 63-29 60-74-43 2-92-5-92 41" id="aQ"/><g id="o"><use transform="matrix(0.04938271604938272,0,0,0.04938271604938272,0,0)" xlink:href="#aD"/><use transform="matrix(0.04938271604938272,0,0,0.04938271604938272,9.876543209876544,0)" xlink:href="#aQ"/><use transform="matrix(0.04938271604938272,0,0,0.04938271604938272,19.75308641975309,0)" xlink:href="#aD"/><use transform="matrix(0.04938271604938272,0,0,0.04938271604938272,29.629629629629633,0)" xlink:href="#av"/><use transform="matrix(0.04938271604938272,0,0,0.04938271604938272,39.50617283950618,0)" xlink:href="#at"/></g><g id="p"><use transform="matrix(0.04938271604938272,0,0,0.04938271604938272,0,0)" xlink:href="#aD"/><use transform="matrix(0.04938271604938272,0,0,0.04938271604938272,9.876543209876544,0)" xlink:href="#av"/></g><path fill="#fff" d="M177-190C167-65 218 103 67 71c-23-6-38-20-44-43l32-5c15 47 100 32 89-28v-30C133-14 115 1 83 1 29 1 15-40 15-95c0-56 16-97 71-98 29-1 48 16 59 35 1-10 0-23 2-32h30zM94-22c36 0 50-32 50-73 0-42-14-75-50-75-39 0-46 34-46 75s6 73 46 73" id="aR"/><g id="q"><use transform="matrix(0.04938271604938272,0,0,0.04938271604938272,0,0)" xlink:href="#aw"/><use transform="matrix(0.04938271604938272,0,0,0.04938271604938272,3.901234567901235,0)" xlink:href="#av"/><use transform="matrix(0.04938271604938272,0,0,0.04938271604938272,13.777777777777779,0)" xlink:href="#aR"/><use transform="matrix(0.04938271604938272,0,0,0.04938271604938272,23.654320987654323,0)" xlink:href="#aC"/><use transform="matrix(0.04938271604938272,0,0,0.04938271604938272,27.555555555555557,0)" xlink:href="#aO"/></g><path fill="#333" d="M185-189c-5-48-123-54-124 2 14 75 158 14 163 119 3 78-121 87-175 55-17-10-28-26-33-46l33-7c5 56 141 63 141-1 0-78-155-14-162-118-5-82 145-84 179-34 5 7 8 16 11 25" id="aS"/><path fill="#333" d="M210-169c-67 3-38 105-44 169h-31v-121c0-29-5-50-35-48C34-165 62-65 56 0H25l-1-190h30c1 10-1 24 2 32 10-44 99-50 107 0 11-21 27-35 58-36 85-2 47 119 55 194h-31v-121c0-29-5-49-35-48" id="aT"/><g id="r"><use transform="matrix(0.05,0,0,0.05,0,0)" xlink:href="#aS"/><use transform="matrix(0.05,0,0,0.05,12,0)" xlink:href="#aL"/><use transform="matrix(0.05,0,0,0.05,15.949999999999998,0)" xlink:href="#aT"/></g><path fill="#fff" d="M233-177c-1 41-23 64-60 70L243 0h-38l-65-103H63V0H30v-248c88 3 205-21 203 71zM63-129c60-2 137 13 137-47 0-61-80-42-137-45v92" id="aU"/><g id="s"><use transform="matrix(0.04938271604938272,0,0,0.04938271604938272,0,0)" xlink:href="#aU"/><use transform="matrix(0.04938271604938272,0,0,0.04938271604938272,12.790123456790125,0)" xlink:href="#ay"/><use transform="matrix(0.04938271604938272,0,0,0.04938271604938272,22.66666666666667,0)" xlink:href="#aD"/><use transform="matrix(0.04938271604938272,0,0,0.04938271604938272,32.543209876543216,0)" xlink:href="#aC"/><use transform="matrix(0.04938271604938272,0,0,0.04938271604938272,36.44444444444445,0)" xlink:href="#az"/><use transform="matrix(0.04938271604938272,0,0,0.04938271604938272,42.320987654320994,0)" xlink:href="#ay"/><use transform="matrix(0.04938271604938272,0,0,0.04938271604938272,52.19753086419754,0)" xlink:href="#au"/><use transform="matrix(0.04938271604938272,0,0,0.04938271604938272,61.08641975308644,0)" xlink:href="#aC"/><use transform="matrix(0.04938271604938272,0,0,0.04938271604938272,64.98765432098767,0)" xlink:href="#av"/><use transform="matrix(0.04938271604938272,0,0,0.04938271604938272,74.86419753086422,0)" xlink:href="#aO"/><use transform="matrix(0.04938271604938272,0,0,0.04938271604938272,84.74074074074076,0)" xlink:href="#aQ"/><use transform="matrix(0.04938271604938272,0,0,0.04938271604938272,94.6172839506173,0)" xlink:href="#az"/></g><use transform="matrix(0.04938271604938272,0,0,0.04938271604938272,0,0)" xlink:href="#av" id="t"/><path fill="#fff" d="M141-36C126-15 110 5 73 4 37 3 15-17 15-53c-1-64 63-63 125-63 3-35-9-54-41-54-24 1-41 7-42 31l-33-3c5-37 33-52 76-52 45 0 72 20 72 64v82c-1 20 7 32 28 27v20c-31 9-61-2-59-35zM48-53c0 20 12 33 32 33 41-3 63-29 60-74-43 2-92-5-92 41zm25-158c8-23 27-35 38-54h36v5l-58 49H73" id="aV"/><g id="u"><use transform="matrix(0.04938271604938272,0,0,0.04938271604938272,0,0)" xlink:href="#aF"/><use transform="matrix(0.04938271604938272,0,0,0.04938271604938272,9.876543209876544,0)" xlink:href="#at"/><use transform="matrix(0.04938271604938272,0,0,0.04938271604938272,18.765432098765434,0)" xlink:href="#aF"/><use transform="matrix(0.04938271604938272,0,0,0.04938271604938272,28.641975308641978,0)" xlink:href="#aV"/><use transform="matrix(0.04938271604938272,0,0,0.04938271604938272,38.51851851851852,0)" xlink:href="#az"/><use transform="matrix(0.04938271604938272,0,0,0.04938271604938272,44.39506172839506,0)" xlink:href="#aC"/><use transform="matrix(0.04938271604938272,0,0,0.04938271604938272,48.2962962962963,0)" xlink:href="#av"/></g><g id="v"><use transform="matrix(0.04938271604938272,0,0,0.04938271604938272,0,0)" xlink:href="#aA"/><use transform="matrix(0.04938271604938272,0,0,0.04938271604938272,9.876543209876544,0)" xlink:href="#aQ"/><use transform="matrix(0.04938271604938272,0,0,0.04938271604938272,19.75308641975309,0)" xlink:href="#az"/><use transform="matrix(0.04938271604938272,0,0,0.04938271604938272,25.629629629629633,0)" xlink:href="#aQ"/></g><use transform="matrix(0.04938271604938272,0,0,0.04938271604938272,0,0)" xlink:href="#aQ" id="w"/><g id="x"><use transform="matrix(0.04938271604938272,0,0,0.04938271604938272,0,0)" xlink:href="#aA"/><use transform="matrix(0.04938271604938272,0,0,0.04938271604938272,9.876543209876544,0)" xlink:href="#aV"/><use transform="matrix(0.04938271604938272,0,0,0.04938271604938272,19.75308641975309,0)" xlink:href="#aR"/><use transform="matrix(0.04938271604938272,0,0,0.04938271604938272,29.629629629629633,0)" xlink:href="#aC"/><use transform="matrix(0.04938271604938272,0,0,0.04938271604938272,33.53086419753087,0)" xlink:href="#aO"/><use transform="matrix(0.04938271604938272,0,0,0.04938271604938272,43.40740740740741,0)" xlink:href="#aQ"/></g><g id="y"><use transform="matrix(0.04938271604938272,0,0,0.04938271604938272,0,0)" xlink:href="#aA"/><use transform="matrix(0.04938271604938272,0,0,0.04938271604938272,9.876543209876544,0)" xlink:href="#az"/><use transform="matrix(0.04938271604938272,0,0,0.04938271604938272,15.753086419753087,0)" xlink:href="#aC"/><use transform="matrix(0.04938271604938272,0,0,0.04938271604938272,19.654320987654323,0)" xlink:href="#aO"/><use transform="matrix(0.04938271604938272,0,0,0.04938271604938272,29.530864197530867,0)" xlink:href="#au"/><use transform="matrix(0.04938271604938272,0,0,0.04938271604938272,38.41975308641976,0)" xlink:href="#aC"/><use transform="matrix(0.04938271604938272,0,0,0.04938271604938272,42.320987654320994,0)" xlink:href="#aA"/><use transform="matrix(0.04938271604938272,0,0,0.04938271604938272,52.19753086419754,0)" xlink:href="#aQ"/><use transform="matrix(0.04938271604938272,0,0,0.04938271604938272,62.074074074074076,0)" xlink:href="#aw"/></g><path fill="#333" d="M115-194c55 1 70 41 70 98S169 2 115 4C84 4 66-9 55-30l1 105H24l-1-265h31l2 30c10-21 28-34 59-34zm-8 174c40 0 45-34 45-75s-6-73-45-74c-42 0-51 32-51 76 0 43 10 73 51 73" id="aW"/><g id="z"><use transform="matrix(0.03765432098765432,0,0,0.03765432098765432,0,0)" xlink:href="#aH"/><use transform="matrix(0.03765432098765432,0,0,0.03765432098765432,7.756790123456789,0)" xlink:href="#aL"/><use transform="matrix(0.03765432098765432,0,0,0.03765432098765432,10.731481481481481,0)" xlink:href="#aW"/><use transform="matrix(0.03765432098765432,0,0,0.03765432098765432,18.262345679012345,0)" xlink:href="#ag"/></g><path fill="#333" d="M100-194c63 0 86 42 84 106H49c0 40 14 67 53 68 26 1 43-12 49-29l28 8c-11 28-37 45-77 45C44 4 14-33 15-96c1-61 26-98 85-98zm52 81c6-60-76-77-97-28-3 7-6 17-6 28h103" id="aX"/><g id="A"><use transform="matrix(0.03765432098765432,0,0,0.03765432098765432,0,0)" xlink:href="#ap"/><use transform="matrix(0.03765432098765432,0,0,0.03765432098765432,7.530864197530864,0)" xlink:href="#aX"/></g><path fill="#333" d="M135-143c-3-34-86-38-87 0 15 53 115 12 119 90S17 21 10-45l28-5c4 36 97 45 98 0-10-56-113-15-118-90-4-57 82-63 122-42 12 7 21 19 24 35" id="aY"/><path fill="#333" d="M141-36C126-15 110 5 73 4 37 3 15-17 15-53c-1-64 63-63 125-63 3-35-9-54-41-54-24 1-41 7-42 31l-33-3c5-37 33-52 76-52 45 0 72 20 72 64v82c-1 20 7 32 28 27v20c-31 9-61-2-59-35zM48-53c0 20 12 33 32 33 41-3 63-29 60-74-43 2-92-5-92 41zm25-158c8-23 27-35 38-54h36v5l-58 49H73" id="aZ"/><g id="B"><use transform="matrix(0.03765432098765432,0,0,0.03765432098765432,0,0)" xlink:href="#aq"/><use transform="matrix(0.03765432098765432,0,0,0.03765432098765432,7.530864197530864,0)" xlink:href="#aY"/><use transform="matrix(0.03765432098765432,0,0,0.03765432098765432,14.30864197530864,0)" xlink:href="#aq"/><use transform="matrix(0.03765432098765432,0,0,0.03765432098765432,21.83950617283951,0)" xlink:href="#aZ"/><use transform="matrix(0.03765432098765432,0,0,0.03765432098765432,29.37037037037037,0)" xlink:href="#ao"/><use transform="matrix(0.03765432098765432,0,0,0.03765432098765432,33.85123456790124,0)" xlink:href="#aL"/><use transform="matrix(0.03765432098765432,0,0,0.03765432098765432,36.82592592592593,0)" xlink:href="#ag"/></g><path fill="#333" d="M103-251c84 0 111 97 45 133-19 10-37 24-39 52H78c0-63 77-55 77-114 0-30-21-42-52-43-32 0-53 17-56 46l-32-2c7-45 34-72 88-72zM77 0v-35h34V0H77" id="ba"/><use transform="matrix(0.03765432098765432,0,0,0.03765432098765432,0,0)" xlink:href="#ba" id="C"/><path fill="#333" d="M106-169C34-169 62-67 57 0H25v-261h32l-1 103c12-21 28-36 61-36 89 0 53 116 60 194h-32v-121c2-32-8-49-39-48" id="bb"/><g id="D"><use transform="matrix(0.043827160493827164,0,0,0.043827160493827164,0,0)" xlink:href="#an"/><use transform="matrix(0.043827160493827164,0,0,0.043827160493827164,10.518518518518519,0)" xlink:href="#ao"/><use transform="matrix(0.043827160493827164,0,0,0.043827160493827164,15.733950617283952,0)" xlink:href="#aX"/><use transform="matrix(0.043827160493827164,0,0,0.043827160493827164,24.499382716049386,0)" xlink:href="#aX"/><use transform="matrix(0.043827160493827164,0,0,0.043827160493827164,33.26481481481481,0)" xlink:href="#aJ"/><use transform="matrix(0.043827160493827164,0,0,0.043827160493827164,41.1537037037037,0)" xlink:href="#bb"/><use transform="matrix(0.043827160493827164,0,0,0.043827160493827164,49.91913580246913,0)" xlink:href="#aX"/><use transform="matrix(0.043827160493827164,0,0,0.043827160493827164,58.684567901234566,0)" xlink:href="#ao"/></g><path fill="#333" d="M141-36C126-15 110 5 73 4 37 3 15-17 15-53c-1-64 63-63 125-63 3-35-9-54-41-54-24 1-41 7-42 31l-33-3c5-37 33-52 76-52 45 0 72 20 72 64v82c-1 20 7 32 28 27v20c-31 9-61-2-59-35zM48-53c0 20 12 33 32 33 41-3 63-29 60-74-43 2-92-5-92 41" id="bc"/><g id="E"><use transform="matrix(0.043827160493827164,0,0,0.043827160493827164,0,0)" xlink:href="#ap"/><use transform="matrix(0.043827160493827164,0,0,0.043827160493827164,8.765432098765432,0)" xlink:href="#bc"/><use transform="matrix(0.043827160493827164,0,0,0.043827160493827164,17.530864197530864,0)" xlink:href="#ap"/><use transform="matrix(0.043827160493827164,0,0,0.043827160493827164,26.296296296296298,0)" xlink:href="#ag"/><use transform="matrix(0.043827160493827164,0,0,0.043827160493827164,35.06172839506173,0)" xlink:href="#aY"/></g><g id="F"><use transform="matrix(0.043827160493827164,0,0,0.043827160493827164,0,0)" xlink:href="#aJ"/><use transform="matrix(0.043827160493827164,0,0,0.043827160493827164,7.888888888888889,0)" xlink:href="#bc"/><use transform="matrix(0.043827160493827164,0,0,0.043827160493827164,16.654320987654323,0)" xlink:href="#ap"/><use transform="matrix(0.043827160493827164,0,0,0.043827160493827164,25.419753086419753,0)" xlink:href="#bc"/><use transform="matrix(0.043827160493827164,0,0,0.043827160493827164,34.18518518518518,0)" xlink:href="#aY"/><use transform="matrix(0.043827160493827164,0,0,0.043827160493827164,42.074074074074076,0)" xlink:href="#ar"/><use transform="matrix(0.043827160493827164,0,0,0.043827160493827164,46.45679012345679,0)" xlink:href="#ao"/><use transform="matrix(0.043827160493827164,0,0,0.043827160493827164,51.672222222222224,0)" xlink:href="#bc"/><use transform="matrix(0.043827160493827164,0,0,0.043827160493827164,60.43765432098766,0)" xlink:href="#aL"/><use transform="matrix(0.043827160493827164,0,0,0.043827160493827164,63.89999999999999,0)" xlink:href="#aY"/></g><path fill="#333" d="M30 0v-248h33v221h125V0H30" id="bd"/><path fill="#333" d="M177-190C167-65 218 103 67 71c-23-6-38-20-44-43l32-5c15 47 100 32 89-28v-30C133-14 115 1 83 1 29 1 15-40 15-95c0-56 16-97 71-98 29-1 48 16 59 35 1-10 0-23 2-32h30zM94-22c36 0 50-32 50-73 0-42-14-75-50-75-39 0-46 34-46 75s6 73 46 73" id="be"/><g id="G"><use transform="matrix(0.043827160493827164,0,0,0.043827160493827164,0,0)" xlink:href="#bd"/><use transform="matrix(0.043827160493827164,0,0,0.043827160493827164,8.765432098765432,0)" xlink:href="#ag"/><use transform="matrix(0.043827160493827164,0,0,0.043827160493827164,17.530864197530864,0)" xlink:href="#be"/><use transform="matrix(0.043827160493827164,0,0,0.043827160493827164,26.296296296296298,0)" xlink:href="#aL"/><use transform="matrix(0.043827160493827164,0,0,0.043827160493827164,29.758641975308645,0)" xlink:href="#aK"/></g><use transform="matrix(0.043827160493827164,0,0,0.043827160493827164,0,0)" xlink:href="#aI" id="H"/><path fill="#333" d="M108 0H70L1-190h34L89-25l56-165h34" id="bf"/><path fill="#333" d="M24 0v-261h32V0H24" id="bg"/><g id="I"><use transform="matrix(0.043827160493827164,0,0,0.043827160493827164,0,0)" xlink:href="#bf"/><use transform="matrix(0.043827160493827164,0,0,0.043827160493827164,7.888888888888889,0)" xlink:href="#aZ"/><use transform="matrix(0.043827160493827164,0,0,0.043827160493827164,16.654320987654323,0)" xlink:href="#bg"/><use transform="matrix(0.043827160493827164,0,0,0.043827160493827164,20.116666666666667,0)" xlink:href="#aL"/><use transform="matrix(0.043827160493827164,0,0,0.043827160493827164,23.579012345679008,0)" xlink:href="#ap"/><use transform="matrix(0.043827160493827164,0,0,0.043827160493827164,32.34444444444444,0)" xlink:href="#ag"/></g><use transform="matrix(0.043827160493827164,0,0,0.043827160493827164,0,0)" xlink:href="#ba" id="J"/><path fill="#fff" d="M240 0l2-218c-23 76-54 145-80 218h-23L58-218 59 0H30v-248h44l77 211c21-75 51-140 76-211h43V0h-30" id="bh"/><g id="K"><use transform="matrix(0.05,0,0,0.05,0,0)" xlink:href="#bh"/><use transform="matrix(0.05,0,0,0.05,14.950000000000001,0)" xlink:href="#av"/><use transform="matrix(0.05,0,0,0.05,24.950000000000003,0)" xlink:href="#at"/><use transform="matrix(0.05,0,0,0.05,33.95,0)" xlink:href="#aG"/><use transform="matrix(0.05,0,0,0.05,38.95,0)" xlink:href="#az"/><use transform="matrix(0.05,0,0,0.05,44.900000000000006,0)" xlink:href="#aQ"/><use transform="matrix(0.05,0,0,0.05,54.900000000000006,0)" xlink:href="#az"/></g><path fill="#fff" d="M210-169c-67 3-38 105-44 169h-31v-121c0-29-5-50-35-48C34-165 62-65 56 0H25l-1-190h30c1 10-1 24 2 32 10-44 99-50 107 0 11-21 27-35 58-36 85-2 47 119 55 194h-31v-121c0-29-5-49-35-48" id="bi"/><g id="L"><use transform="matrix(0.05,0,0,0.05,0,0)" xlink:href="#bi"/><use transform="matrix(0.05,0,0,0.05,14.950000000000001,0)" xlink:href="#ay"/><use transform="matrix(0.05,0,0,0.05,24.950000000000003,0)" xlink:href="#aO"/><use transform="matrix(0.05,0,0,0.05,34.95,0)" xlink:href="#at"/><use transform="matrix(0.05,0,0,0.05,43.95,0)" xlink:href="#aQ"/><use transform="matrix(0.05,0,0,0.05,53.95,0)" xlink:href="#aR"/><use transform="matrix(0.05,0,0,0.05,63.95,0)" xlink:href="#ay"/><use transform="matrix(0.05,0,0,0.05,73.95,0)" xlink:href="#bi"/></g><g id="M"><use transform="matrix(0.05,0,0,0.05,0,0)" xlink:href="#aD"/><use transform="matrix(0.05,0,0,0.05,10,0)" xlink:href="#ay"/></g><g id="N"><use transform="matrix(0.05,0,0,0.05,0,0)" xlink:href="#ay"/><use transform="matrix(0.05,0,0,0.05,10,0)" xlink:href="#az"/><use transform="matrix(0.05,0,0,0.05,15.949999999999998,0)" xlink:href="#az"/><use transform="matrix(0.05,0,0,0.05,21.9,0)" xlink:href="#av"/></g><g id="O"><use transform="matrix(0.05,0,0,0.05,0,0)" xlink:href="#aU"/><use transform="matrix(0.05,0,0,0.05,12.950000000000001,0)" xlink:href="#ay"/><use transform="matrix(0.05,0,0,0.05,22.950000000000003,0)" xlink:href="#au"/><use transform="matrix(0.05,0,0,0.05,31.950000000000003,0)" xlink:href="#aF"/><use transform="matrix(0.05,0,0,0.05,41.95,0)" xlink:href="#aA"/><use transform="matrix(0.05,0,0,0.05,51.95,0)" xlink:href="#ay"/><use transform="matrix(0.05,0,0,0.05,61.95,0)" xlink:href="#az"/><use transform="matrix(0.05,0,0,0.05,67.9,0)" xlink:href="#aQ"/><use transform="matrix(0.05,0,0,0.05,77.9,0)" xlink:href="#az"/></g><g id="P"><use transform="matrix(0.05,0,0,0.05,0,0)" xlink:href="#at"/><use transform="matrix(0.05,0,0,0.05,9,0)" xlink:href="#ay"/><use transform="matrix(0.05,0,0,0.05,19,0)" xlink:href="#aO"/><use transform="matrix(0.05,0,0,0.05,29,0)" xlink:href="#ax"/><use transform="matrix(0.05,0,0,0.05,39,0)" xlink:href="#aQ"/></g><path fill="#333" d="M232-93c-1 65-40 97-104 97C67 4 28-28 28-90v-158h33c8 89-33 224 67 224 102 0 64-133 71-224h33v155" id="bj"/><g id="Q"><use transform="matrix(0.043827160493827164,0,0,0.043827160493827164,0,0)" xlink:href="#bj"/><use transform="matrix(0.043827160493827164,0,0,0.043827160493827164,11.351234567901235,0)" xlink:href="#aY"/><use transform="matrix(0.043827160493827164,0,0,0.043827160493827164,19.240123456790123,0)" xlink:href="#aq"/><use transform="matrix(0.043827160493827164,0,0,0.043827160493827164,28.005555555555553,0)" xlink:href="#aZ"/><use transform="matrix(0.043827160493827164,0,0,0.043827160493827164,36.77098765432098,0)" xlink:href="#ao"/><use transform="matrix(0.043827160493827164,0,0,0.043827160493827164,41.986419753086416,0)" xlink:href="#aL"/><use transform="matrix(0.043827160493827164,0,0,0.043827160493827164,45.44876543209876,0)" xlink:href="#ag"/></g><path fill="#333" d="M24-231v-30h32v30H24zM-9 49c24 4 33-6 33-30v-209h32V24c2 40-23 58-65 49V49" id="bk"/><g id="R"><use transform="matrix(0.043827160493827164,0,0,0.043827160493827164,0,0)" xlink:href="#bk"/><use transform="matrix(0.043827160493827164,0,0,0.043827160493827164,3.462345679012346,0)" xlink:href="#aZ"/></g><g id="S"><use transform="matrix(0.043827160493827164,0,0,0.043827160493827164,0,0)" xlink:href="#aJ"/><use transform="matrix(0.043827160493827164,0,0,0.043827160493827164,7.888888888888889,0)" xlink:href="#bc"/><use transform="matrix(0.043827160493827164,0,0,0.043827160493827164,16.654320987654323,0)" xlink:href="#ap"/><use transform="matrix(0.043827160493827164,0,0,0.043827160493827164,25.419753086419753,0)" xlink:href="#bc"/><use transform="matrix(0.043827160493827164,0,0,0.043827160493827164,34.18518518518518,0)" xlink:href="#aY"/><use transform="matrix(0.043827160493827164,0,0,0.043827160493827164,42.074074074074076,0)" xlink:href="#ar"/><use transform="matrix(0.043827160493827164,0,0,0.043827160493827164,46.45679012345679,0)" xlink:href="#ao"/><use transform="matrix(0.043827160493827164,0,0,0.043827160493827164,51.672222222222224,0)" xlink:href="#bc"/><use transform="matrix(0.043827160493827164,0,0,0.043827160493827164,60.43765432098766,0)" xlink:href="#ap"/><use transform="matrix(0.043827160493827164,0,0,0.043827160493827164,69.20308641975309,0)" xlink:href="#ag"/><use transform="matrix(0.043827160493827164,0,0,0.043827160493827164,77.96851851851852,0)" xlink:href="#ba"/></g></defs></g></svg>