<svg xmlns="http://www.w3.org/2000/svg" xmlns:xlink="http://www.w3.org/1999/xlink" xmlns:lucid="lucid" width="2291.25" height="1823.83"><g transform="translate(0 0)" lucid:page-tab-id="0_0"><path d="M1029.8 40c0 11.05-8.97 20-20 20-11.06 0-20-8.95-20-20s8.94-20 20-20c11.03 0 20 8.95 20 20z" stroke="#666"/><path d="M1009.8 61v24" stroke="#333" fill="none"/><path d="M1009.76 60.5l.53-.02V61h-1v-.56z" stroke="#333" stroke-width=".05" fill="#333"/><path d="M1009.8 99.78l-4.65-14.27h9.27z" stroke="#333" fill="#333"/><path d="M945.8 101.4c-8.85 0-16 7.16-16 16v48c0 8.83 7.15 16 16 16h128c8.82 0 16-7.17 16-16v-48c0-8.84-7.18-16-16-16z" stroke="#000" stroke-opacity="0" fill="#00b098"/><use xlink:href="#a" transform="matrix(1,0,0,1,937.7852966476246,109.39712775154464) translate(39.50617283950618 26.488888888888887)"/><use xlink:href="#b" transform="matrix(1,0,0,1,937.7852966476246,109.39712775154464) translate(21.65432098765432 47.822222222222216)"/><path d="M969.8 243.3v28.64c0 6.63-5.4 12-12 12H642c-6.63 0-12 5.37-12 12v12.76" stroke="#333" fill="none"/><path d="M970.3 243.3h-1 1z" stroke="#333" stroke-width=".05" fill="#333"/><path d="M630 323.47l-4.64-14.27h9.28z" stroke="#333" fill="#333"/><path d="M379.52 385.16h-67.5l-3 .4-2.76 1.13-2.4 1.83-1.82 2.4-1.14 2.74-.4 3.02v11.57h-1v-11.65l.42-3.2 1.24-3 2-2.6 2.6-2 3-1.24 3.2-.42h67.56zm151.96 0h-119v-1h119z" stroke="#333" stroke-width=".05" fill="#333"/><path d="M531.93 384.85l.1.3h-.56v-1h.65z" fill="#333"/><path d="M531.95 384.85l.12.33h-.63v-1.05h.7zm-.46-.67v.95h.5l-.1-.28.2-.67z" stroke="#333" stroke-width=".05" fill="#333"/><path d="M300 423.04l-4.64-14.27h9.28z" fill="#333"/><path d="M300 424.66l-5.32-16.4h10.64zm-3.95-15.4l3.95 12.16 3.95-12.15z" stroke="#333" stroke-width=".05" fill="#333"/><use xlink:href="#c" transform="matrix(1,0,0,1,379.51504914486435,373.85637317830475) translate(0.004999999999999005 14.4)"/><path d="M240 424.66c-11.05 0-20 8.95-20 20v60c0 11.04 8.95 20 20 20h120c11.05 0 20-8.96 20-20v-60c0-11.05-8.95-20-20-20z" stroke="#000" stroke-opacity="0" fill="#00b098"/><use xlink:href="#d" transform="matrix(1,0,0,1,228,432.65637317830476) translate(45.90123456790124 17.422222222222224)"/><use xlink:href="#e" transform="matrix(1,0,0,1,228,432.65637317830476) translate(0.93827160493829 38.75555555555556)"/><use xlink:href="#f" transform="matrix(1,0,0,1,228,432.65637317830476) translate(47.33333333333334 60.088888888888896)"/><use xlink:href="#g" transform="matrix(1,0,0,1,228,432.65637317830476) translate(62.14814814814815 60.088888888888896)"/><use xlink:href="#h" transform="matrix(1,0,0,1,228,432.65637317830476) translate(24.666666666666668 81.42222222222225)"/><path d="M623.14 328.77c3.8-2.27 9.93-2.27 13.72 0l86.28 51.77c3.8 2.27 3.8 5.96 0 8.23l-86.28 51.77c-3.8 2.27-9.93 2.27-13.72 0l-86.28-51.77c-3.8-2.27-3.8-5.96 0-8.23z" stroke="#009985" stroke-width="4" fill="#fff"/><path d="M585 346.92c0-4.42 3.58-8 8-8h74c4.42 0 8 3.58 8 8v69.74c0 4.4-3.58 8-8 8h-74c-4.42 0-8-3.6-8-8z" stroke="#000" stroke-opacity="0" fill="#fff" fill-opacity="0"/><use xlink:href="#i" transform="matrix(1,0,0,1,590,343.92303984497136) translate(21.176234567901233 12.75555555555555)"/><use xlink:href="#j" transform="matrix(1,0,0,1,590,343.92303984497136) translate(42.21327160493827 12.75555555555555)"/><use xlink:href="#k" transform="matrix(1,0,0,1,590,343.92303984497136) translate(3.2509259259259267 31.688888888888886)"/><use xlink:href="#l" transform="matrix(1,0,0,1,590,343.92303984497136) translate(67.98364197530864 31.688888888888886)"/><use xlink:href="#m" transform="matrix(1,0,0,1,590,343.92303984497136) translate(24.682407407407407 50.62222222222222)"/><use xlink:href="#n" transform="matrix(1,0,0,1,590,343.92303984497136) translate(-6.391049382716041 69.55555555555556)"/><path d="M1126 575.53c-8.84 0-16 7.16-16 16v48c0 8.84 7.16 16 16 16h128c8.84 0 16-7.16 16-16v-48c0-8.84-7.16-16-16-16z" stroke="#000" stroke-opacity="0" fill="#00b098"/><use xlink:href="#o" transform="matrix(1,0,0,1,1118,583.5308804650856) translate(33.75308641975309 26.488888888888887)"/><use xlink:href="#p" transform="matrix(1,0,0,1,1118,583.5308804650856) translate(24.666666666666668 47.822222222222216)"/><path d="M320 584.66c0 11.04-8.95 20-20 20s-20-8.96-20-20c0-11.05 8.95-20 20-20s20 8.95 20 20z" stroke="#666" fill="#fff"/><path d="M312 584.66c0 6.62-5.37 12-12 12s-12-5.38-12-12c0-6.63 5.37-12 12-12s12 5.37 12 12z" stroke="#666"/><path d="M300 525.16v22.6" stroke="#333" fill="none"/><path d="M300.5 525.17h-1v-.5h1z" stroke="#333" stroke-width=".05" fill="#333"/><path d="M300 562.54l-4.64-14.27h9.28z" stroke="#333" fill="#333"/><path d="M929.8 230.8c0-4.42 3.57-8 8-8h144c4.4 0 8 3.58 8 8v4c0 4.4-3.6 8-8 8h-144c-4.43 0-8-3.6-8-8z" stroke="#333"/><path d="M1009.8 181.9v24" stroke="#333" fill="none"/><path d="M1010.3 181.9h-1v-.5h1z" stroke="#333" stroke-width=".05" fill="#333"/><path d="M1009.8 220.68l-4.65-14.27h9.27z" stroke="#333" fill="#333"/><path d="M1226 324.66c-8.84 0-16 7.16-16 16v48c0 8.83 7.16 16 16 16h128c8.84 0 16-7.17 16-16v-48c0-8.84-7.16-16-16-16z" stroke="#000" stroke-opacity="0" fill="#00b098"/><use xlink:href="#q" transform="matrix(1,0,0,1,1218,332.65637317830476) translate(19.234567901234566 26.488888888888887)"/><use xlink:href="#r" transform="matrix(1,0,0,1,1218,332.65637317830476) translate(76.37037037037038 26.488888888888887)"/><use xlink:href="#s" transform="matrix(1,0,0,1,1218,332.65637317830476) translate(37.925925925925924 47.822222222222216)"/><use xlink:href="#t" transform="matrix(1,0,0,1,1218,332.65637317830476) translate(62.617283950617285 47.822222222222216)"/><path d="M1049.8 243.3v28.43c0 6.62 5.36 12 12 12H1278c6.63 0 12 5.37 12 12v12.54" stroke="#333" fill="none"/><path d="M1050.3 243.3h-1 1z" stroke="#333" stroke-width=".05" fill="#333"/><path d="M1290 323.04l-4.64-14.27h9.28z" stroke="#333" fill="#333"/><path d="M1310 464.66c0 11.04-8.95 20-20 20s-20-8.96-20-20c0-11.05 8.95-20 20-20s20 8.95 20 20z" stroke="#666" fill="#fff"/><path d="M1302 464.66c0 6.62-5.37 12-12 12s-12-5.38-12-12c0-6.63 5.37-12 12-12s12 5.37 12 12z" stroke="#666"/><path d="M1290 405.16v22.6" stroke="#333" fill="none"/><path d="M1290.5 405.17h-1v-.5h1z" stroke="#333" stroke-width=".05" fill="#333"/><path d="M1290 442.54l-4.64-14.27h9.28z" stroke="#333" fill="#333"/><path d="M800 468c0-4.42 3.58-8 8-8h144c4.42 0 8 3.58 8 8v4c0 4.42-3.58 8-8 8H808c-4.42 0-8-3.58-8-8z" stroke="#333"/><path d="M878.76 384.58l3 1.24 2.6 2 2 2.6 1.24 3 .42 3.2v46.5h-1V396.7l-.4-3.03-1.14-2.75-1.83-2.4-2.4-1.83-2.75-1.15-3-.4H827.2v-1h48.33zm-150.24.58v-1h67.8v1z" stroke="#333" stroke-width=".05" fill="#333"/><path d="M728.53 385.16h-.65l.2-.7-.1-.3h.55z" fill="#333"/><path d="M728.56 385.18h-.7l.2-.72-.13-.33h.63zm-.56-1l.1.28-.2.67h.6v-.95z" stroke="#333" stroke-width=".05" fill="#333"/><path d="M887.52 457.88l-4.64-14.26h9.28z" fill="#333"/><path d="M887.52 459.5l-5.32-16.38h10.64zm-3.95-15.38l3.95 12.14 3.95-12.14z" stroke="#333" stroke-width=".05" fill="#333"/><use xlink:href="#u" transform="matrix(1,0,0,1,796.3211262045419,373.85637317830475) translate(0.005000000000000782 14.4)"/><path d="M820.9 660c-8.84 0-16 7.16-16 16v48c0 8.84 7.16 16 16 16h128c8.83 0 16-7.16 16-16v-48c0-8.84-7.17-16-16-16z" stroke="#000" stroke-opacity="0" fill="#00b098"/><use xlink:href="#o" transform="matrix(1,0,0,1,812.8926483238122,668) translate(33.75308641975309 26.488888888888887)"/><use xlink:href="#v" transform="matrix(1,0,0,1,812.8926483238122,668) translate(26.59259259259259 47.822222222222216)"/><path d="M884.9 481v162.62" stroke="#333" fill="none"/><path d="M885.4 481h-1v-.5h1z" stroke="#333" stroke-width=".05" fill="#333"/><path d="M884.9 658.38l-4.64-14.26h9.27z" stroke="#333" fill="#333"/><path d="M935.95 481v35.02c0 6.62 5.38 12 12 12H1178c6.63 0 12 5.37 12 12v19.13" stroke="#333" fill="none"/><path d="M936.45 481h-1v-.5h1z" stroke="#333" stroke-width=".05" fill="#333"/><path d="M1190 573.9l-4.64-14.25h9.28z" stroke="#333" fill="#333"/><path d="M480 574.66c-11.05 0-20 8.95-20 20v60c0 11.04 8.95 20 20 20h120c11.05 0 20-8.96 20-20v-60c0-11.05-8.95-20-20-20z" stroke="#000" stroke-opacity="0" fill="#00b098"/><use xlink:href="#w" transform="matrix(1,0,0,1,468,582.6563731783048) translate(36.0246913580247 17.422222222222224)"/><use xlink:href="#e" transform="matrix(1,0,0,1,468,582.6563731783048) translate(0.93827160493829 38.75555555555556)"/><use xlink:href="#f" transform="matrix(1,0,0,1,468,582.6563731783048) translate(47.33333333333334 60.088888888888896)"/><use xlink:href="#g" transform="matrix(1,0,0,1,468,582.6563731783048) translate(62.14814814814815 60.088888888888896)"/><use xlink:href="#h" transform="matrix(1,0,0,1,468,582.6563731783048) translate(24.666666666666668 81.42222222222225)"/><path d="M840 480.5v7.5c0 6.63-5.37 12-12 12H552c-6.63 0-12 5.37-12 12v46.27" stroke="#333" fill="none"/><path d="M840.5 480.5h-1 1z" stroke="#333" stroke-width=".05" fill="#333"/><path d="M540 573.04l-4.64-14.27h9.28z" stroke="#333" fill="#333"/><path d="M560 760c0 11.05-8.95 20-20 20s-20-8.95-20-20 8.95-20 20-20 20 8.95 20 20z" stroke="#666" fill="#fff"/><path d="M552 760c0 6.63-5.37 12-12 12s-12-5.37-12-12 5.37-12 12-12 12 5.37 12 12z" stroke="#666"/><path d="M540 675.16v47.96" stroke="#333" fill="none"/><path d="M540.5 675.17h-1v-.5h1z" stroke="#333" stroke-width=".05" fill="#333"/><path d="M540 737.88l-4.64-14.26h9.28z" stroke="#333" fill="#333"/><path d="M1080.9 881.37c-8.84 0-16 7.17-16 16v48c0 8.84 7.16 16 16 16h128c8.83 0 16-7.16 16-16v-48c0-8.83-7.17-16-16-16z" stroke="#000" stroke-opacity="0" fill="#00b098"/><use xlink:href="#x" transform="matrix(1,0,0,1,1072.8926483238122,889.3745072867808) translate(39.9753086419753 17.422222222222224)"/><use xlink:href="#y" transform="matrix(1,0,0,1,1072.8926483238122,889.3745072867808) translate(18.222222222222218 38.75555555555556)"/><use xlink:href="#z" transform="matrix(1,0,0,1,1072.8926483238122,889.3745072867808) translate(106.02469135802471 38.75555555555556)"/><use xlink:href="#A" transform="matrix(1,0,0,1,1072.8926483238122,889.3745072867808) translate(43.407407407407405 60.088888888888896)"/><path d="M804.9 803.34c0-4.4 3.57-8 8-8h144c4.4 0 8 3.6 8 8v4c0 4.42-3.6 8-8 8h-144c-4.43 0-8-3.58-8-8z" stroke="#333"/><path d="M884.9 740.5v37.96" stroke="#333" fill="none"/><path d="M885.4 740.5h-1v-.5h1z" stroke="#333" stroke-width=".05" fill="#333"/><path d="M884.9 793.23l-4.64-14.27h9.27z" stroke="#333" fill="#333"/><path d="M924.9 815.84v20.52c0 6.63 5.37 12 12 12h196c6.62 0 12 5.37 12 12V865" stroke="#333" fill="none"/><path d="M925.4 815.86h-1v-.02h1z" stroke="#333" stroke-width=".05" fill="#333"/><path d="M1144.9 879.76l-4.64-14.27h9.27z" stroke="#333" fill="#333"/><path d="M551.1 870.7c-8.83 0-16 7.15-16 16v48c0 8.82 7.17 16 16 16h128c8.84 0 16-7.18 16-16v-48c0-8.85-7.16-16-16-16z" stroke="#000" stroke-opacity="0" fill="#00b098"/><use xlink:href="#x" transform="matrix(1,0,0,1,543.1073516761876,878.6872536433905) translate(39.9753086419753 26.488888888888887)"/><use xlink:href="#B" transform="matrix(1,0,0,1,543.1073516761876,878.6872536433905) translate(30.074074074074073 47.822222222222216)"/><path d="M844.9 815.84v15.18c0 6.62-5.38 12-12 12H626.4c-6.24 0-11.3 5.05-11.3 11.28" stroke="#333" fill="none"/><path d="M845.4 815.86h-1v-.02h1z" stroke="#333" stroke-width=".05" fill="#333"/><path d="M615.1 869.07l-4.63-14.27h9.27z" stroke="#333" fill="#333"/><path d="M920.9 1114.55c-8.84 0-16 7.16-16 16v48c0 8.83 7.16 16 16 16h128c8.83 0 16-7.17 16-16v-48c0-8.84-7.17-16-16-16z" stroke="#000" stroke-opacity="0" fill="#00b098"/><use xlink:href="#C" transform="matrix(1,0,0,1,912.8926483238122,1122.5465493992897) translate(40.938271604938265 26.488888888888887)"/><use xlink:href="#D" transform="matrix(1,0,0,1,912.8926483238122,1122.5465493992897) translate(30.567901234567895 47.822222222222216)"/><path d="M1138.03 1005.5c3.8-2.28 9.93-2.28 13.72 0l86.28 51.76c3.8 2.27 3.8 5.96 0 8.23l-86.28 51.76c-3.8 2.27-9.93 2.27-13.72 0l-86.28-51.77c-3.8-2.28-3.8-5.97 0-8.24z" stroke="#009985" stroke-width="4" fill="#fff"/><path d="M1099.9 1023.64c0-4.42 3.57-8 8-8h74c4.4 0 8 3.58 8 8v69.73c0 4.42-3.6 8-8 8h-74c-4.43 0-8-3.58-8-8z" stroke="#000" stroke-opacity="0" fill="#fff" fill-opacity="0"/><use xlink:href="#E" transform="matrix(1,0,0,1,1104.8926483238122,1020.6411739534475) translate(17.23179012345679 22.122222222222224)"/><use xlink:href="#F" transform="matrix(1,0,0,1,1104.8926483238122,1020.6411739534475) translate(20.71604938271605 41.05555555555556)"/><use xlink:href="#G" transform="matrix(1,0,0,1,1104.8926483238122,1020.6411739534475) translate(7.17345679012346 59.988888888888894)"/><path d="M1144.9 961.87v23.55" stroke="#333" fill="none"/><path d="M1145.4 961.9h-1v-.53h1z" stroke="#333" stroke-width=".05" fill="#333"/><path d="M1144.9 1000.2l-4.64-14.28h9.27z" stroke="#333" fill="#333"/><path d="M1000.1 1061.87h-3.17l-3.02.4-2.75 1.14-2.4 1.85-1.82 2.4-1.14 2.74-.4 3v24.76h-1v-24.82l.4-3.2 1.26-3 2-2.6 2.6-2 3-1.24 3.2-.43h3.25zm46.27 0H1031v-1h15.37z" stroke="#333" stroke-width=".05" fill="#333"/><path d="M1046.82 1061.57l.1.3h-.56v-1h.65z" fill="#333"/><path d="M1046.84 1061.57l.12.33h-.63v-1.05h.7zm-.46-.67v.95h.5l-.1-.28.2-.67z" stroke="#333" stroke-width=".05" fill="#333"/><path d="M984.9 1112.93l-4.64-14.27h9.27z" fill="#333"/><path d="M984.9 1114.55l-5.33-16.4h10.65zm-3.95-15.4l3.94 12.16 3.94-12.14z" stroke="#333" stroke-width=".05" fill="#333"/><use xlink:href="#u" transform="matrix(1,0,0,1,1000.1093149904791,1050.574507286781) translate(0.005000000000000782 14.4)"/><path d="M1240.9 1114.55c-8.84 0-16 7.16-16 16v48c0 8.83 7.16 16 16 16h128c8.83 0 16-7.17 16-16v-48c0-8.84-7.17-16-16-16z" stroke="#000" stroke-opacity="0" fill="#00b098"/><use xlink:href="#H" transform="matrix(1,0,0,1,1232.8926483238124,1122.5465493992897) translate(40.49382716049382 26.488888888888887)"/><use xlink:href="#I" transform="matrix(1,0,0,1,1232.8926483238124,1122.5465493992897) translate(35.50617283950618 47.822222222222216)"/><path d="M1296.14 1061.3l3 1.24 2.6 2 2 2.6 1.23 3 .42 3.2v24.82h-1v-24.75l-.4-3-1.14-2.76-1.84-2.4-2.4-1.83-2.74-1.13-3.02-.4h-2.16v-1h2.23zm-52.73.57v-1h14.35v1z" stroke="#333" stroke-width=".05" fill="#333"/><path d="M1243.43 1061.87h-.66l.2-.7-.1-.3h.56z" fill="#333"/><path d="M1243.45 1061.9h-.7l.2-.72-.12-.33h.62zm-.55-1l.1.28-.2.67h.6v-.95z" stroke="#333" stroke-width=".05" fill="#333"/><path d="M1304.9 1112.93l-4.64-14.27h9.27z" fill="#333"/><path d="M1304.9 1114.55l-5.33-16.4h10.65zm-3.95-15.4l3.94 12.16 3.94-12.14z" stroke="#333" stroke-width=".05" fill="#333"/><use xlink:href="#J" transform="matrix(1,0,0,1,1257.7509816571458,1050.574507286781) translate(0.004999999999999005 14.4)"/><path d="M1324.9 1261.37c0 11.05-8.96 20-20 20-11.05 0-20-8.95-20-20 0-11.04 8.95-20 20-20 11.04 0 20 8.96 20 20z" stroke="#666" fill="#fff"/><path d="M1316.9 1261.37c0 6.63-5.38 12-12 12-6.63 0-12-5.37-12-12 0-6.62 5.37-12 12-12 6.62 0 12 5.38 12 12z" stroke="#666"/><path d="M1304.9 1195.05v29.44" stroke="#333" fill="none"/><path d="M1305.4 1195.06h-1v-.5h1z" stroke="#333" stroke-width=".05" fill="#333"/><path d="M1304.9 1239.26l-4.64-14.27h9.27z" stroke="#333" fill="#333"/><path d="M1004.9 1261.37c0 11.05-8.96 20-20 20-11.05 0-20-8.95-20-20 0-11.04 8.95-20 20-20 11.04 0 20 8.96 20 20z" stroke="#666" fill="#fff"/><path d="M996.9 1261.37c0 6.63-5.38 12-12 12-6.63 0-12-5.37-12-12 0-6.62 5.37-12 12-12 6.62 0 12 5.38 12 12z" stroke="#666"/><path d="M984.9 1195.05v29.44" stroke="#333" fill="none"/><path d="M985.4 1195.06h-1v-.5h1z" stroke="#333" stroke-width=".05" fill="#333"/><path d="M984.9 1239.26l-4.64-14.27h9.27z" stroke="#333" fill="#333"/><path d="M391.1 1123.86c-8.83 0-16 7.16-16 16v48c0 8.84 7.17 16 16 16h128c8.84 0 16-7.16 16-16v-48c0-8.84-7.16-16-16-16z" stroke="#000" stroke-opacity="0" fill="#00b098"/><use xlink:href="#K" transform="matrix(1,0,0,1,383.1073516761876,1131.859295755899) translate(30.098765432098762 26.488888888888887)"/><use xlink:href="#L" transform="matrix(1,0,0,1,383.1073516761876,1131.859295755899) translate(31.061728395061724 47.822222222222216)"/><path d="M608.25 1014.8c3.8-2.27 9.93-2.27 13.72 0l86.28 51.77c3.8 2.27 3.8 5.96 0 8.23l-86.28 51.77c-3.8 2.27-9.93 2.27-13.72 0l-86.28-51.77c-3.8-2.27-3.8-5.96 0-8.23z" stroke="#009985" stroke-width="4" fill="#fff"/><path d="M570.1 1032.95c0-4.4 3.6-8 8-8h74c4.43 0 8 3.6 8 8v69.74c0 4.4-3.57 8-8 8h-74c-4.4 0-8-3.6-8-8z" stroke="#000" stroke-opacity="0" fill="#fff" fill-opacity="0"/><use xlink:href="#M" transform="matrix(1,0,0,1,575.1073516761876,1029.9539203100571) translate(2.7907407407407447 22.22222222222222)"/><use xlink:href="#N" transform="matrix(1,0,0,1,575.1073516761876,1029.9539203100571) translate(16.793518518518518 41.15555555555556)"/><use xlink:href="#O" transform="matrix(1,0,0,1,575.1073516761876,1029.9539203100571) translate(33.40401234567901 41.15555555555556)"/><use xlink:href="#P" transform="matrix(1,0,0,1,575.1073516761876,1029.9539203100571) translate(-3.366975308641976 60.08888888888889)"/><path d="M470.32 1071.2h-3.18l-3.02.38-2.75 1.14-2.4 1.84-1.83 2.4-1.14 2.74-.4 3.02v24.76h-1v-24.83l.43-3.2 1.24-3 2-2.6 2.6-2 3-1.24 3.2-.4h3.25zm46.27 0H501.2v-1h15.37z" stroke="#333" stroke-width=".05" fill="#333"/><path d="M517.03 1070.88l.1.3h-.56v-1h.66z" fill="#333"/><path d="M517.06 1070.88l.1.33h-.6v-1.04h.7zm-.46-.67v.96h.5l-.1-.27.2-.7z" stroke="#333" stroke-width=".05" fill="#333"/><path d="M455.1 1122.24l-4.63-14.26h9.27z" fill="#333"/><path d="M455.1 1123.86l-5.32-16.38h10.65zm-3.94-15.38l3.95 12.14 3.95-12.14z" stroke="#333" stroke-width=".05" fill="#333"/><g><use xlink:href="#u" transform="matrix(1,0,0,1,470.3240183428545,1059.8872536433905) translate(0.005000000000000782 14.4)"/></g><path d="M711.1 1123.86c-8.83 0-16 7.16-16 16v48c0 8.84 7.17 16 16 16h128c8.84 0 16-7.16 16-16v-48c0-8.84-7.16-16-16-16z" stroke="#000" stroke-opacity="0" fill="#00b098"/><g><use xlink:href="#Q" transform="matrix(1,0,0,1,703.1073516761876,1131.859295755899) translate(31.06172839506173 17.422222222222224)"/><use xlink:href="#R" transform="matrix(1,0,0,1,703.1073516761876,1131.859295755899) translate(13.728395061728396 38.75555555555556)"/><use xlink:href="#S" transform="matrix(1,0,0,1,703.1073516761876,1131.859295755899) translate(67.06172839506172 38.75555555555556)"/><use xlink:href="#T" transform="matrix(1,0,0,1,703.1073516761876,1131.859295755899) translate(91.75308641975309 38.75555555555556)"/><use xlink:href="#U" transform="matrix(1,0,0,1,703.1073516761876,1131.859295755899) translate(31.061728395061724 60.088888888888896)"/></g><path d="M766.35 1070.6l3 1.25 2.6 2 2 2.6 1.24 3 .4 3.2v24.83h-1v-24.76l-.4-3.02-1.13-2.75-1.83-2.4-2.4-1.83-2.75-1.14-3.03-.4h-2.15v-1h2.22zm-52.72.6v-1h14.34v1z" stroke="#333" stroke-width=".05" fill="#333"/><path d="M713.64 1071.2H713l.18-.7-.1-.3h.56z" fill="#333"/><path d="M713.67 1071.2h-.7l.2-.7-.13-.34h.63zm-.56-1l.1.3-.18.66h.6v-.95z" stroke="#333" stroke-width=".05" fill="#333"/><path d="M775.1 1122.24l-4.63-14.26h9.27z" fill="#333"/><path d="M775.1 1123.86l-5.32-16.38h10.65zm-3.94-15.38l3.95 12.14 3.95-12.14z" stroke="#333" stroke-width=".05" fill="#333"/><g><use xlink:href="#J" transform="matrix(1,0,0,1,727.9656850095209,1059.8872536433905) translate(0.004999999999999005 14.4)"/></g><path d="M795.1 1270.7c0 11.03-8.95 20-20 20-11.04 0-20-8.97-20-20 0-11.06 8.96-20 20-20 11.05 0 20 8.94 20 20z" stroke="#666" fill="#fff"/><path d="M787.1 1270.7c0 6.6-5.37 12-12 12-6.62 0-12-5.4-12-12 0-6.64 5.38-12 12-12 6.63 0 12 5.36 12 12z" stroke="#666"/><path d="M775.1 1204.36v29.44" stroke="#333" fill="none"/><path d="M775.6 1204.37h-1v-.5h1z" stroke="#333" stroke-width=".05" fill="#333"/><path d="M775.1 1248.57l-4.63-14.27h9.27z" stroke="#333" fill="#333"/><path d="M475.1 1270.7c0 11.03-8.95 20-20 20-11.04 0-20-8.97-20-20 0-11.06 8.96-20 20-20 11.05 0 20 8.94 20 20z" stroke="#666" fill="#fff"/><path d="M467.1 1270.7c0 6.6-5.37 12-12 12-6.62 0-12-5.4-12-12 0-6.64 5.38-12 12-12 6.63 0 12 5.36 12 12z" stroke="#666"/><path d="M455.1 1204.36v29.44" stroke="#333" fill="none"/><path d="M455.6 1204.37h-1v-.5h1z" stroke="#333" stroke-width=".05" fill="#333"/><path d="M455.1 1248.57l-4.63-14.27h9.27z" stroke="#333" fill="#333"/><path d="M615.1 951.2v43.53" stroke="#333" fill="none"/><path d="M615.6 951.2h-1v-.5h1z" stroke="#333" stroke-width=".05" fill="#333"/><path d="M615.1 1009.5l-4.63-14.27h9.27z" stroke="#333" fill="#333"/><path d="M1210 740.87c0 11.05-8.95 20-20 20s-20-8.95-20-20c0-11.04 8.95-20 20-20s20 8.96 20 20z" stroke="#666" fill="#fff"/><path d="M1202 740.87c0 6.63-5.37 12-12 12s-12-5.37-12-12c0-6.62 5.37-12 12-12s12 5.38 12 12z" stroke="#666"/><path d="M1190 656.03V704" stroke="#333" fill="none"/><path d="M1190.5 656.04h-1v-.5h1z" stroke="#333" stroke-width=".05" fill="#333"/><path d="M1190 718.76l-4.64-14.27h9.28z" stroke="#333" fill="#333"/><defs><path fill="#fff" d="M249-183c0 48-29 72-75 77L221 0h-36l-43-103H65L45 0H11l48-248c83 2 190-17 190 65zm-34 3c0-55-74-39-127-41l-18 92c63-1 145 13 145-51" id="V"/><path fill="#fff" d="M111-194c62-3 86 47 72 106H45c-7 38 6 69 45 68 27-1 43-14 53-32l24 11C152-15 129 4 87 4 38 3 12-23 12-71c0-70 32-119 99-123zm44 81c14-66-71-72-95-28-4 8-8 17-11 28h106" id="W"/><path fill="#fff" d="M165-48c-4 18 1 34 23 27l-3 20c-29 8-62 0-52-35h-2C116-14 99 4 63 4 30 4 8-16 8-49c0-68 71-67 138-67 10-26 0-56-31-54-26 1-42 9-47 31l-32-5c8-67 160-71 144 15-5 28-9 54-15 81zM42-50c3 52 80 24 89-6 7-12 7-24 11-38-47 1-103-4-100 44" id="X"/><path fill="#fff" d="M6 0l50-261h32L37 0H6" id="Y"/><path fill="#fff" d="M50-231l6-30h32l-6 30H50zM6 0l37-190h31L37 0H6" id="Z"/><path fill="#fff" d="M-8 0l5-24 140-142H31l5-24h145l-5 24L36-24h119l-5 24H-8" id="aa"/><path fill="#fff" d="M66-151c12-25 30-51 66-40l-6 26C45-176 58-65 38 0H6l36-190h30" id="ab"/><g id="a"><use transform="matrix(0.04938271604938272,0,0,0.04938271604938272,0,0)" xlink:href="#V"/><use transform="matrix(0.04938271604938272,0,0,0.04938271604938272,12.790123456790125,0)" xlink:href="#W"/><use transform="matrix(0.04938271604938272,0,0,0.04938271604938272,22.66666666666667,0)" xlink:href="#X"/><use transform="matrix(0.04938271604938272,0,0,0.04938271604938272,32.543209876543216,0)" xlink:href="#Y"/><use transform="matrix(0.04938271604938272,0,0,0.04938271604938272,36.44444444444445,0)" xlink:href="#Z"/><use transform="matrix(0.04938271604938272,0,0,0.04938271604938272,40.345679012345684,0)" xlink:href="#aa"/><use transform="matrix(0.04938271604938272,0,0,0.04938271604938272,49.23456790123457,0)" xlink:href="#X"/><use transform="matrix(0.04938271604938272,0,0,0.04938271604938272,59.111111111111114,0)" xlink:href="#ab"/></g><path fill="#fff" d="M67 3c-93-2-31-127-26-193h32L48-50c-3 39 53 32 70 12 30-34 30-101 43-152h32L157 0h-30c1-10 6-24 4-33-14 20-29 37-64 36" id="ac"/><path fill="#fff" d="M51-54c-9 22 5 41 31 30L79-1C43 14 10-4 19-52l22-115H19l5-23h22l19-43h21l-9 43h35l-4 23H73" id="ad"/><path fill="#fff" d="M67-158c22-48 132-52 116 29L158 0h-32l25-140c3-38-53-32-70-12C52-117 51-52 38 0H6l36-190h30" id="ae"/><path fill="#fff" d="M44-68c0 29 11 47 38 47 30 0 42-19 51-41l28 9C148-21 126 4 82 4 31 4 10-29 12-85c3-77 74-140 146-93 12 8 15 23 18 40l-31 5c-1-22-13-36-36-36-52 0-65 49-65 101" id="af"/><path fill="#fff" d="M44-68c0 29 11 47 38 47 30 0 42-19 51-41l28 9C148-21 126 4 82 4 31 4 10-29 12-85c3-77 74-140 146-93 12 8 15 23 18 40l-31 5c-1-22-13-36-36-36-52 0-65 49-65 101zM85 43c0-13-18-15-31-12L71 0h19L80 17c16 1 28 8 28 24 0 34-40 36-72 32l4-16c19 4 44 4 45-14" id="ag"/><path fill="#fff" d="M166-48c-4 18 1 34 23 27l-3 20c-29 8-62 0-52-35h-2C117-14 100 4 64 4 31 4 9-16 9-49c0-68 71-67 138-67 10-26 0-56-31-54-26 1-42 9-47 31l-32-5c8-67 160-71 144 15-5 28-9 54-15 81zM43-50c3 52 80 24 89-6 7-12 7-24 11-38-47 1-103-4-100 44zm150-208c-8 21-15 46-44 47-22 0-30-19-50-21-14 0-21 10-25 21H58c8-21 14-47 44-47 22 0 32 18 50 21 13-1 21-10 25-21h16" id="ah"/><path fill="#fff" d="M30-147c31-64 166-65 159 27C183-49 158 1 86 4 9 8 1-88 30-147zM88-20c53 0 68-48 68-100 0-31-11-51-44-50-52 1-68 46-68 97 0 32 13 53 44 53" id="ai"/><g id="b"><use transform="matrix(0.04938271604938272,0,0,0.04938271604938272,0,0)" xlink:href="#X"/><use transform="matrix(0.04938271604938272,0,0,0.04938271604938272,9.876543209876544,0)" xlink:href="#ac"/><use transform="matrix(0.04938271604938272,0,0,0.04938271604938272,19.75308641975309,0)" xlink:href="#ad"/><use transform="matrix(0.04938271604938272,0,0,0.04938271604938272,24.69135802469136,0)" xlink:href="#W"/><use transform="matrix(0.04938271604938272,0,0,0.04938271604938272,34.567901234567906,0)" xlink:href="#ae"/><use transform="matrix(0.04938271604938272,0,0,0.04938271604938272,44.44444444444445,0)" xlink:href="#ad"/><use transform="matrix(0.04938271604938272,0,0,0.04938271604938272,49.38271604938272,0)" xlink:href="#Z"/><use transform="matrix(0.04938271604938272,0,0,0.04938271604938272,53.283950617283956,0)" xlink:href="#af"/><use transform="matrix(0.04938271604938272,0,0,0.04938271604938272,62.17283950617284,0)" xlink:href="#X"/><use transform="matrix(0.04938271604938272,0,0,0.04938271604938272,72.0493827160494,0)" xlink:href="#ag"/><use transform="matrix(0.04938271604938272,0,0,0.04938271604938272,80.93827160493828,0)" xlink:href="#ah"/><use transform="matrix(0.04938271604938272,0,0,0.04938271604938272,90.81481481481482,0)" xlink:href="#ai"/></g><path fill="#333" d="M190 0L58-211 59 0H30v-248h39L202-35l-2-213h31V0h-41" id="aj"/><path fill="#333" d="M141-36C126-15 110 5 73 4 37 3 15-17 15-53c-1-64 63-63 125-63 3-35-9-54-41-54-24 1-41 7-42 31l-33-3c5-37 33-52 76-52 45 0 72 20 72 64v82c-1 20 7 32 28 27v20c-31 9-61-2-59-35zM48-53c0 20 12 33 32 33 41-3 63-29 60-74-43 2-92-5-92 41zm117-205c-3 23-9 48-36 47-26-1-65-44-74 0H39c4-23 8-48 36-47s64 44 74 0h16" id="ak"/><path fill="#333" d="M100-194c62-1 85 37 85 99 1 63-27 99-86 99S16-35 15-95c0-66 28-99 85-99zM99-20c44 1 53-31 53-75 0-43-8-75-51-75s-53 32-53 75 10 74 51 75" id="al"/><g id="c"><use transform="matrix(0.05,0,0,0.05,0,0)" xlink:href="#aj"/><use transform="matrix(0.05,0,0,0.05,12.950000000000001,0)" xlink:href="#ak"/><use transform="matrix(0.05,0,0,0.05,22.950000000000003,0)" xlink:href="#al"/></g><path fill="#fff" d="M187 0l-14-72H61L19 0h-37l149-248h38L221 0h-34zm-19-99l-22-123L76-99h92" id="am"/><path fill="#fff" d="M68-162c25-46 127-43 121 31C183-60 169 1 98 4 69 5 53-11 43-31L36 0H5l52-261h31zm88 36c2-27-9-43-34-43-55 0-70 51-70 103 0 29 15 45 43 46 52 0 58-58 61-106" id="an"/><g id="d"><use transform="matrix(0.04938271604938272,0,0,0.04938271604938272,0,0)" xlink:href="#am"/><use transform="matrix(0.04938271604938272,0,0,0.04938271604938272,11.851851851851853,0)" xlink:href="#ad"/><use transform="matrix(0.04938271604938272,0,0,0.04938271604938272,16.790123456790127,0)" xlink:href="#ab"/><use transform="matrix(0.04938271604938272,0,0,0.04938271604938272,22.66666666666667,0)" xlink:href="#ac"/><use transform="matrix(0.04938271604938272,0,0,0.04938271604938272,32.543209876543216,0)" xlink:href="#an"/><use transform="matrix(0.04938271604938272,0,0,0.04938271604938272,42.41975308641976,0)" xlink:href="#Z"/><use transform="matrix(0.04938271604938272,0,0,0.04938271604938272,46.320987654320994,0)" xlink:href="#ab"/></g><path fill="#fff" d="M248-111c6-24 9-61-24-58-72 9-57 108-77 169h-31l26-142c3-37-50-30-64-10C52-115 50-51 37 0H6l36-190h30c-1 10-6 24-4 32 13-43 101-52 105 5 13-22 29-41 61-41 90 0 28 129 23 194h-31" id="ao"/><path fill="#fff" d="M67-162c32-53 139-36 121 50C175-51 163 2 97 4 68 4 52-11 42-31 38 6 28 39 22 75H-9l50-265h29c-1 10 0 20-3 28zm89 36c0-26-10-43-35-43-54 0-67 50-69 103-1 29 14 45 42 46 53 0 62-58 62-106" id="ap"/><path fill="#fff" d="M67-158c15-20 31-36 64-36 94 0 33 127 27 194h-32l25-140c3-38-53-32-70-12C52-117 51-51 37 0H6l51-261h31" id="aq"/><g id="e"><use transform="matrix(0.04938271604938272,0,0,0.04938271604938272,0,0)" xlink:href="#X"/><use transform="matrix(0.04938271604938272,0,0,0.04938271604938272,9.876543209876544,0)" xlink:href="#af"/><use transform="matrix(0.04938271604938272,0,0,0.04938271604938272,18.765432098765434,0)" xlink:href="#ai"/><use transform="matrix(0.04938271604938272,0,0,0.04938271604938272,28.641975308641978,0)" xlink:href="#ao"/><use transform="matrix(0.04938271604938272,0,0,0.04938271604938272,43.40740740740741,0)" xlink:href="#ap"/><use transform="matrix(0.04938271604938272,0,0,0.04938271604938272,53.283950617283956,0)" xlink:href="#X"/><use transform="matrix(0.04938271604938272,0,0,0.04938271604938272,63.1604938271605,0)" xlink:href="#ae"/><use transform="matrix(0.04938271604938272,0,0,0.04938271604938272,73.03703703703704,0)" xlink:href="#aq"/><use transform="matrix(0.04938271604938272,0,0,0.04938271604938272,82.91358024691358,0)" xlink:href="#X"/><use transform="matrix(0.04938271604938272,0,0,0.04938271604938272,92.79012345679013,0)" xlink:href="#ao"/><use transform="matrix(0.04938271604938272,0,0,0.04938271604938272,107.55555555555557,0)" xlink:href="#W"/><use transform="matrix(0.04938271604938272,0,0,0.04938271604938272,117.43209876543212,0)" xlink:href="#ae"/><use transform="matrix(0.04938271604938272,0,0,0.04938271604938272,127.30864197530865,0)" xlink:href="#ad"/><use transform="matrix(0.04938271604938272,0,0,0.04938271604938272,132.2469135802469,0)" xlink:href="#ai"/></g><path fill="#fff" d="M166-48c-4 18 1 34 23 27l-3 20c-29 8-62 0-52-35h-2C117-14 100 4 64 4 31 4 9-16 9-49c0-68 71-67 138-67 10-26 0-56-31-54-26 1-42 9-47 31l-32-5c8-67 160-71 144 15-5 28-9 54-15 81zM43-50c3 52 80 24 89-6 7-12 7-24 11-38-47 1-103-4-100 44zm89-161l-49-49 1-5h36c9 19 22 33 28 54h-16" id="ar"/><use transform="matrix(0.04938271604938272,0,0,0.04938271604938272,0,0)" xlink:href="#ar" id="f"/><g id="g"><use transform="matrix(0.04938271604938272,0,0,0.04938271604938272,0,0)" xlink:href="#ac"/><use transform="matrix(0.04938271604938272,0,0,0.04938271604938272,9.876543209876544,0)" xlink:href="#ao"/><use transform="matrix(0.04938271604938272,0,0,0.04938271604938272,24.641975308641978,0)" xlink:href="#X"/></g><path fill="#fff" d="M133-28C103 26-5 8 13-77c13-62 24-115 90-117 29-1 46 15 56 35l19-102h32L160 0h-30zM45-64c-2 27 10 43 35 43 54-1 69-50 69-103 0-29-15-46-42-46-53-1-58 58-62 106" id="as"/><g id="h"><use transform="matrix(0.04938271604938272,0,0,0.04938271604938272,0,0)" xlink:href="#ap"/><use transform="matrix(0.04938271604938272,0,0,0.04938271604938272,9.876543209876544,0)" xlink:href="#ab"/><use transform="matrix(0.04938271604938272,0,0,0.04938271604938272,15.753086419753087,0)" xlink:href="#ai"/><use transform="matrix(0.04938271604938272,0,0,0.04938271604938272,25.629629629629633,0)" xlink:href="#ap"/><use transform="matrix(0.04938271604938272,0,0,0.04938271604938272,35.50617283950618,0)" xlink:href="#ab"/><use transform="matrix(0.04938271604938272,0,0,0.04938271604938272,41.38271604938272,0)" xlink:href="#Z"/><use transform="matrix(0.04938271604938272,0,0,0.04938271604938272,45.283950617283956,0)" xlink:href="#W"/><use transform="matrix(0.04938271604938272,0,0,0.04938271604938272,55.1604938271605,0)" xlink:href="#as"/><use transform="matrix(0.04938271604938272,0,0,0.04938271604938272,65.03703703703704,0)" xlink:href="#X"/><use transform="matrix(0.04938271604938272,0,0,0.04938271604938272,74.91358024691358,0)" xlink:href="#as"/><use transform="matrix(0.04938271604938272,0,0,0.04938271604938272,84.79012345679013,0)" xlink:href="#W"/></g><path fill="#333" d="M153-248C145-148 188 4 80 4 36 3 13-21 6-62l32-5c4 25 16 42 43 43 27 0 39-20 39-49v-147H72v-28h81" id="at"/><path fill="#333" d="M141-36C126-15 110 5 73 4 37 3 15-17 15-53c-1-64 63-63 125-63 3-35-9-54-41-54-24 1-41 7-42 31l-33-3c5-37 33-52 76-52 45 0 72 20 72 64v82c-1 20 7 32 28 27v20c-31 9-61-2-59-35zM48-53c0 20 12 33 32 33 41-3 63-29 60-74-43 2-92-5-92 41zm25-158c8-23 27-35 38-54h36v5l-58 49H73" id="au"/><g id="i"><use transform="matrix(0.043827160493827164,0,0,0.043827160493827164,0,0)" xlink:href="#at"/><use transform="matrix(0.043827160493827164,0,0,0.043827160493827164,7.888888888888889,0)" xlink:href="#au"/></g><path fill="#333" d="M101-234c-31-9-42 10-38 44h38v23H63V0H32v-167H5v-23h27c-7-52 17-82 69-68v24" id="av"/><path fill="#333" d="M24-231v-30h32v30H24zM24 0v-190h32V0H24" id="aw"/><g id="j"><use transform="matrix(0.043827160493827164,0,0,0.043827160493827164,0,0)" xlink:href="#av"/><use transform="matrix(0.043827160493827164,0,0,0.043827160493827164,4.382716049382716,0)" xlink:href="#al"/><use transform="matrix(0.043827160493827164,0,0,0.043827160493827164,13.148148148148149,0)" xlink:href="#aw"/></g><path fill="#333" d="M141-36C126-15 110 5 73 4 37 3 15-17 15-53c-1-64 63-63 125-63 3-35-9-54-41-54-24 1-41 7-42 31l-33-3c5-37 33-52 76-52 45 0 72 20 72 64v82c-1 20 7 32 28 27v20c-31 9-61-2-59-35zM48-53c0 20 12 33 32 33 41-3 63-29 60-74-43 2-92-5-92 41" id="ax"/><path fill="#333" d="M59-47c-2 24 18 29 38 22v24C64 9 27 4 27-40v-127H5v-23h24l9-43h21v43h35v23H59v120" id="ay"/><path fill="#333" d="M114-163C36-179 61-72 57 0H25l-1-190h30c1 12-1 29 2 39 6-27 23-49 58-41v29" id="az"/><path fill="#333" d="M115-194c53 0 69 39 70 98 0 66-23 100-70 100C84 3 66-7 56-30L54 0H23l1-261h32v101c10-23 28-34 59-34zm-8 174c40 0 45-34 45-75 0-40-5-75-45-74-42 0-51 32-51 76 0 43 10 73 51 73" id="aA"/><path fill="#333" d="M84 4C-5 8 30-112 23-190h32v120c0 31 7 50 39 49 72-2 45-101 50-169h31l1 190h-30c-1-10 1-25-2-33-11 22-28 36-60 37" id="aB"/><path fill="#333" d="M85-194c31 0 48 13 60 33l-1-100h32l1 261h-30c-2-10 0-23-3-31C134-8 116 4 85 4 32 4 16-35 15-94c0-66 23-100 70-100zm9 24c-40 0-46 34-46 75 0 40 6 74 45 74 42 0 51-32 51-76 0-42-9-74-50-73" id="aC"/><g id="k"><use transform="matrix(0.043827160493827164,0,0,0.043827160493827164,0,0)" xlink:href="#ax"/><use transform="matrix(0.043827160493827164,0,0,0.043827160493827164,8.765432098765432,0)" xlink:href="#ay"/><use transform="matrix(0.043827160493827164,0,0,0.043827160493827164,13.148148148148149,0)" xlink:href="#az"/><use transform="matrix(0.043827160493827164,0,0,0.043827160493827164,18.363580246913582,0)" xlink:href="#aw"/><use transform="matrix(0.043827160493827164,0,0,0.043827160493827164,21.82592592592593,0)" xlink:href="#aA"/><use transform="matrix(0.043827160493827164,0,0,0.043827160493827164,30.59135802469136,0)" xlink:href="#aB"/><use transform="matrix(0.043827160493827164,0,0,0.043827160493827164,39.35679012345679,0)" xlink:href="#aw"/><use transform="matrix(0.043827160493827164,0,0,0.043827160493827164,42.819135802469134,0)" xlink:href="#aC"/><use transform="matrix(0.043827160493827164,0,0,0.043827160493827164,51.584567901234564,0)" xlink:href="#al"/></g><path fill="#333" d="M141-36C126-15 110 5 73 4 37 3 15-17 15-53c-1-64 63-63 125-63 3-35-9-54-41-54-24 1-41 7-42 31l-33-3c5-37 33-52 76-52 45 0 72 20 72 64v82c-1 20 7 32 28 27v20c-31 9-61-2-59-35zM48-53c0 20 12 33 32 33 41-3 63-29 60-74-43 2-92-5-92 41zm62-158l-58-49v-5h36c12 19 30 32 38 54h-16" id="aD"/><use transform="matrix(0.043827160493827164,0,0,0.043827160493827164,0,0)" xlink:href="#aD" id="l"/><path fill="#333" d="M210-169c-67 3-38 105-44 169h-31v-121c0-29-5-50-35-48C34-165 62-65 56 0H25l-1-190h30c1 10-1 24 2 32 10-44 99-50 107 0 11-21 27-35 58-36 85-2 47 119 55 194h-31v-121c0-29-5-49-35-48" id="aE"/><g id="m"><use transform="matrix(0.043827160493827164,0,0,0.043827160493827164,0,0)" xlink:href="#aB"/><use transform="matrix(0.043827160493827164,0,0,0.043827160493827164,8.765432098765432,0)" xlink:href="#aE"/><use transform="matrix(0.043827160493827164,0,0,0.043827160493827164,21.869753086419756,0)" xlink:href="#ax"/></g><path fill="#333" d="M115-194c55 1 70 41 70 98S169 2 115 4C84 4 66-9 55-30l1 105H24l-1-265h31l2 30c10-21 28-34 59-34zm-8 174c40 0 45-34 45-75s-6-73-45-74c-42 0-51 32-51 76 0 43 10 73 51 73" id="aF"/><path fill="#333" d="M100-194c63 0 86 42 84 106H49c0 40 14 67 53 68 26 1 43-12 49-29l28 8c-11 28-37 45-77 45C44 4 14-33 15-96c1-61 26-98 85-98zm52 81c6-60-76-77-97-28-3 7-6 17-6 28h103" id="aG"/><path fill="#333" d="M103-251c84 0 111 97 45 133-19 10-37 24-39 52H78c0-63 77-55 77-114 0-30-21-42-52-43-32 0-53 17-56 46l-32-2c7-45 34-72 88-72zM77 0v-35h34V0H77" id="aH"/><g id="n"><use transform="matrix(0.043827160493827164,0,0,0.043827160493827164,0,0)" xlink:href="#aF"/><use transform="matrix(0.043827160493827164,0,0,0.043827160493827164,8.765432098765432,0)" xlink:href="#az"/><use transform="matrix(0.043827160493827164,0,0,0.043827160493827164,13.980864197530863,0)" xlink:href="#al"/><use transform="matrix(0.043827160493827164,0,0,0.043827160493827164,22.746296296296293,0)" xlink:href="#aF"/><use transform="matrix(0.043827160493827164,0,0,0.043827160493827164,31.511728395061727,0)" xlink:href="#az"/><use transform="matrix(0.043827160493827164,0,0,0.043827160493827164,36.72716049382716,0)" xlink:href="#aw"/><use transform="matrix(0.043827160493827164,0,0,0.043827160493827164,40.1895061728395,0)" xlink:href="#aG"/><use transform="matrix(0.043827160493827164,0,0,0.043827160493827164,48.95493827160493,0)" xlink:href="#aC"/><use transform="matrix(0.043827160493827164,0,0,0.043827160493827164,57.72037037037036,0)" xlink:href="#ax"/><use transform="matrix(0.043827160493827164,0,0,0.043827160493827164,66.48580246913579,0)" xlink:href="#aC"/><use transform="matrix(0.043827160493827164,0,0,0.043827160493827164,75.25123456790122,0)" xlink:href="#aG"/><use transform="matrix(0.043827160493827164,0,0,0.043827160493827164,84.01666666666665,0)" xlink:href="#aH"/></g><path fill="#fff" d="M119 0H84L31-248h34l41 218 126-218h36" id="aI"/><path fill="#fff" d="M55-144c13 50 104 24 104 88C159 21 15 23 1-39l26-10c6 40 102 42 102-4-13-50-104-23-104-87 0-71 143-71 148-8l-29 4c-5-35-85-37-89 0" id="aJ"/><g id="o"><use transform="matrix(0.04938271604938272,0,0,0.04938271604938272,0,0)" xlink:href="#aI"/><use transform="matrix(0.04938271604938272,0,0,0.04938271604938272,11.506172839506174,0)" xlink:href="#Z"/><use transform="matrix(0.04938271604938272,0,0,0.04938271604938272,15.407407407407408,0)" xlink:href="#aJ"/><use transform="matrix(0.04938271604938272,0,0,0.04938271604938272,24.296296296296298,0)" xlink:href="#ac"/><use transform="matrix(0.04938271604938272,0,0,0.04938271604938272,34.17283950617284,0)" xlink:href="#X"/><use transform="matrix(0.04938271604938272,0,0,0.04938271604938272,44.04938271604939,0)" xlink:href="#Y"/><use transform="matrix(0.04938271604938272,0,0,0.04938271604938272,47.95061728395062,0)" xlink:href="#Z"/><use transform="matrix(0.04938271604938272,0,0,0.04938271604938272,51.851851851851855,0)" xlink:href="#aa"/><use transform="matrix(0.04938271604938272,0,0,0.04938271604938272,60.74074074074075,0)" xlink:href="#X"/><use transform="matrix(0.04938271604938272,0,0,0.04938271604938272,70.61728395061729,0)" xlink:href="#ab"/></g><g id="p"><use transform="matrix(0.04938271604938272,0,0,0.04938271604938272,0,0)" xlink:href="#ap"/><use transform="matrix(0.04938271604938272,0,0,0.04938271604938272,9.876543209876544,0)" xlink:href="#ab"/><use transform="matrix(0.04938271604938272,0,0,0.04938271604938272,15.753086419753087,0)" xlink:href="#ai"/><use transform="matrix(0.04938271604938272,0,0,0.04938271604938272,25.629629629629633,0)" xlink:href="#ap"/><use transform="matrix(0.04938271604938272,0,0,0.04938271604938272,35.50617283950618,0)" xlink:href="#ab"/><use transform="matrix(0.04938271604938272,0,0,0.04938271604938272,41.38271604938272,0)" xlink:href="#Z"/><use transform="matrix(0.04938271604938272,0,0,0.04938271604938272,45.283950617283956,0)" xlink:href="#W"/><use transform="matrix(0.04938271604938272,0,0,0.04938271604938272,55.1604938271605,0)" xlink:href="#as"/><use transform="matrix(0.04938271604938272,0,0,0.04938271604938272,65.03703703703704,0)" xlink:href="#X"/><use transform="matrix(0.04938271604938272,0,0,0.04938271604938272,74.91358024691358,0)" xlink:href="#as"/><use transform="matrix(0.04938271604938272,0,0,0.04938271604938272,84.79012345679013,0)" xlink:href="#W"/></g><g id="q"><use transform="matrix(0.04938271604938272,0,0,0.04938271604938272,0,0)" xlink:href="#am"/><use transform="matrix(0.04938271604938272,0,0,0.04938271604938272,11.851851851851853,0)" xlink:href="#Y"/><use transform="matrix(0.04938271604938272,0,0,0.04938271604938272,15.753086419753087,0)" xlink:href="#ad"/><use transform="matrix(0.04938271604938272,0,0,0.04938271604938272,20.69135802469136,0)" xlink:href="#W"/><use transform="matrix(0.04938271604938272,0,0,0.04938271604938272,30.567901234567906,0)" xlink:href="#ab"/><use transform="matrix(0.04938271604938272,0,0,0.04938271604938272,36.44444444444445,0)" xlink:href="#X"/><use transform="matrix(0.04938271604938272,0,0,0.04938271604938272,46.320987654320994,0)" xlink:href="#ab"/></g><g id="r"><use transform="matrix(0.04938271604938272,0,0,0.04938271604938272,0,0)" xlink:href="#as"/><use transform="matrix(0.04938271604938272,0,0,0.04938271604938272,9.876543209876544,0)" xlink:href="#X"/><use transform="matrix(0.04938271604938272,0,0,0.04938271604938272,19.75308641975309,0)" xlink:href="#as"/><use transform="matrix(0.04938271604938272,0,0,0.04938271604938272,29.629629629629633,0)" xlink:href="#ai"/><use transform="matrix(0.04938271604938272,0,0,0.04938271604938272,39.50617283950618,0)" xlink:href="#aJ"/></g><g id="s"><use transform="matrix(0.04938271604938272,0,0,0.04938271604938272,0,0)" xlink:href="#as"/><use transform="matrix(0.04938271604938272,0,0,0.04938271604938272,9.876543209876544,0)" xlink:href="#X"/></g><g id="t"><use transform="matrix(0.04938271604938272,0,0,0.04938271604938272,0,0)" xlink:href="#af"/><use transform="matrix(0.04938271604938272,0,0,0.04938271604938272,8.88888888888889,0)" xlink:href="#ai"/><use transform="matrix(0.04938271604938272,0,0,0.04938271604938272,18.765432098765434,0)" xlink:href="#ae"/><use transform="matrix(0.04938271604938272,0,0,0.04938271604938272,28.641975308641978,0)" xlink:href="#ad"/><use transform="matrix(0.04938271604938272,0,0,0.04938271604938272,33.580246913580254,0)" xlink:href="#X"/></g><path fill="#333" d="M185-189c-5-48-123-54-124 2 14 75 158 14 163 119 3 78-121 87-175 55-17-10-28-26-33-46l33-7c5 56 141 63 141-1 0-78-155-14-162-118-5-82 145-84 179-34 5 7 8 16 11 25" id="aK"/><g id="u"><use transform="matrix(0.05,0,0,0.05,0,0)" xlink:href="#aK"/><use transform="matrix(0.05,0,0,0.05,12,0)" xlink:href="#aw"/><use transform="matrix(0.05,0,0,0.05,15.949999999999998,0)" xlink:href="#aE"/></g><path fill="#fff" d="M111-194c62-3 86 47 72 106H45c-7 38 6 69 45 68 27-1 43-14 53-32l24 11C152-15 129 4 87 4 38 3 12-23 12-71c0-70 32-119 99-123zm44 81c14-66-71-72-95-28-4 8-8 17-11 28h106zm-10-149c9 18 24 30 30 51-29 2-32-20-49-30-22 10-32 32-67 30v-4l51-47h35" id="aL"/><g id="v"><use transform="matrix(0.04938271604938272,0,0,0.04938271604938272,0,0)" xlink:href="#ap"/><use transform="matrix(0.04938271604938272,0,0,0.04938271604938272,9.876543209876544,0)" xlink:href="#W"/><use transform="matrix(0.04938271604938272,0,0,0.04938271604938272,19.75308641975309,0)" xlink:href="#ae"/><use transform="matrix(0.04938271604938272,0,0,0.04938271604938272,29.629629629629633,0)" xlink:href="#as"/><use transform="matrix(0.04938271604938272,0,0,0.04938271604938272,39.50617283950618,0)" xlink:href="#aL"/><use transform="matrix(0.04938271604938272,0,0,0.04938271604938272,49.38271604938272,0)" xlink:href="#ae"/><use transform="matrix(0.04938271604938272,0,0,0.04938271604938272,59.25925925925927,0)" xlink:href="#af"/><use transform="matrix(0.04938271604938272,0,0,0.04938271604938272,68.14814814814815,0)" xlink:href="#Z"/><use transform="matrix(0.04938271604938272,0,0,0.04938271604938272,72.0493827160494,0)" xlink:href="#X"/><use transform="matrix(0.04938271604938272,0,0,0.04938271604938272,81.92592592592594,0)" xlink:href="#aJ"/></g><path fill="#fff" d="M89 0H52L20-190h33L74-25l89-165h34" id="aM"/><g id="w"><use transform="matrix(0.04938271604938272,0,0,0.04938271604938272,0,0)" xlink:href="#V"/><use transform="matrix(0.04938271604938272,0,0,0.04938271604938272,12.790123456790125,0)" xlink:href="#W"/><use transform="matrix(0.04938271604938272,0,0,0.04938271604938272,22.66666666666667,0)" xlink:href="#ao"/><use transform="matrix(0.04938271604938272,0,0,0.04938271604938272,37.4320987654321,0)" xlink:href="#ai"/><use transform="matrix(0.04938271604938272,0,0,0.04938271604938272,47.308641975308646,0)" xlink:href="#aM"/><use transform="matrix(0.04938271604938272,0,0,0.04938271604938272,56.19753086419754,0)" xlink:href="#W"/><use transform="matrix(0.04938271604938272,0,0,0.04938271604938272,66.07407407407408,0)" xlink:href="#ab"/></g><g id="x"><use transform="matrix(0.04938271604938272,0,0,0.04938271604938272,0,0)" xlink:href="#am"/><use transform="matrix(0.04938271604938272,0,0,0.04938271604938272,11.851851851851853,0)" xlink:href="#ae"/><use transform="matrix(0.04938271604938272,0,0,0.04938271604938272,21.7283950617284,0)" xlink:href="#X"/><use transform="matrix(0.04938271604938272,0,0,0.04938271604938272,31.60493827160494,0)" xlink:href="#Y"/><use transform="matrix(0.04938271604938272,0,0,0.04938271604938272,35.50617283950618,0)" xlink:href="#Z"/><use transform="matrix(0.04938271604938272,0,0,0.04938271604938272,39.40740740740741,0)" xlink:href="#aJ"/><use transform="matrix(0.04938271604938272,0,0,0.04938271604938272,48.296296296296305,0)" xlink:href="#X"/><use transform="matrix(0.04938271604938272,0,0,0.04938271604938272,58.17283950617284,0)" xlink:href="#ab"/></g><path fill="#fff" d="M125-24c46 0 70-25 89-51l25 16C214-24 183 4 123 4 8 4-5-146 60-208c32-50 158-61 191-5 5 7 9 14 11 22l-32 10c-9-28-33-43-69-43-74 0-108 51-108 125 0 46 24 75 72 75" id="aN"/><g id="y"><use transform="matrix(0.04938271604938272,0,0,0.04938271604938272,0,0)" xlink:href="#aN"/><use transform="matrix(0.04938271604938272,0,0,0.04938271604938272,12.790123456790125,0)" xlink:href="#X"/><use transform="matrix(0.04938271604938272,0,0,0.04938271604938272,22.66666666666667,0)" xlink:href="#as"/><use transform="matrix(0.04938271604938272,0,0,0.04938271604938272,32.543209876543216,0)" xlink:href="#W"/><use transform="matrix(0.04938271604938272,0,0,0.04938271604938272,42.41975308641976,0)" xlink:href="#ab"/><use transform="matrix(0.04938271604938272,0,0,0.04938271604938272,48.296296296296305,0)" xlink:href="#ae"/><use transform="matrix(0.04938271604938272,0,0,0.04938271604938272,58.17283950617284,0)" xlink:href="#W"/><use transform="matrix(0.04938271604938272,0,0,0.04938271604938272,68.0493827160494,0)" xlink:href="#ad"/><use transform="matrix(0.04938271604938272,0,0,0.04938271604938272,72.98765432098767,0)" xlink:href="#X"/></g><g id="z"><use transform="matrix(0.04938271604938272,0,0,0.04938271604938272,0,0)" xlink:href="#as"/><use transform="matrix(0.04938271604938272,0,0,0.04938271604938272,9.876543209876544,0)" xlink:href="#W"/></g><g id="A"><use transform="matrix(0.04938271604938272,0,0,0.04938271604938272,0,0)" xlink:href="#aN"/><use transform="matrix(0.04938271604938272,0,0,0.04938271604938272,12.790123456790125,0)" xlink:href="#X"/><use transform="matrix(0.04938271604938272,0,0,0.04938271604938272,22.66666666666667,0)" xlink:href="#ao"/><use transform="matrix(0.04938271604938272,0,0,0.04938271604938272,37.4320987654321,0)" xlink:href="#ap"/><use transform="matrix(0.04938271604938272,0,0,0.04938271604938272,47.308641975308646,0)" xlink:href="#ai"/></g><path fill="#fff" d="M103-194c29 0 47 14 56 36 2-11 5-23 8-32h30L160-5C157 61 82 97 21 62 9 55 4 45 1 30l28-7c7 42 83 31 92-3 4-16 9-38 13-55-13 20-29 36-62 36-40 0-60-25-60-64 0-71 23-131 91-131zm4 24c-53 0-58 54-61 104-2 27 10 44 36 44 49 0 65-50 67-102 1-29-15-46-42-46" id="aO"/><path fill="#fff" d="M31-147c31-64 166-65 159 27C184-49 159 1 87 4 10 8 2-88 31-147zM89-20c53 0 68-48 68-100 0-31-11-51-44-50-52 1-68 46-68 97 0 32 13 53 44 53zm5-191c10-23 31-35 45-54h38l-1 5-66 49H94" id="aP"/><path fill="#fff" d="M124 0L87-78 21 0h-35l86-98-46-92h33l34 74 61-74h37l-83 92 50 98h-34" id="aQ"/><g id="B"><use transform="matrix(0.04938271604938272,0,0,0.04938271604938272,0,0)" xlink:href="#am"/><use transform="matrix(0.04938271604938272,0,0,0.04938271604938272,11.851851851851853,0)" xlink:href="#aO"/><use transform="matrix(0.04938271604938272,0,0,0.04938271604938272,21.7283950617284,0)" xlink:href="#ab"/><use transform="matrix(0.04938271604938272,0,0,0.04938271604938272,27.604938271604947,0)" xlink:href="#ai"/><use transform="matrix(0.04938271604938272,0,0,0.04938271604938272,37.48148148148149,0)" xlink:href="#ad"/><use transform="matrix(0.04938271604938272,0,0,0.04938271604938272,42.41975308641976,0)" xlink:href="#aP"/><use transform="matrix(0.04938271604938272,0,0,0.04938271604938272,52.2962962962963,0)" xlink:href="#aQ"/><use transform="matrix(0.04938271604938272,0,0,0.04938271604938272,61.18518518518519,0)" xlink:href="#Z"/><use transform="matrix(0.04938271604938272,0,0,0.04938271604938272,65.08641975308643,0)" xlink:href="#af"/><use transform="matrix(0.04938271604938272,0,0,0.04938271604938272,73.97530864197532,0)" xlink:href="#ai"/></g><g id="C"><use transform="matrix(0.04938271604938272,0,0,0.04938271604938272,0,0)" xlink:href="#am"/><use transform="matrix(0.04938271604938272,0,0,0.04938271604938272,11.851851851851853,0)" xlink:href="#ap"/><use transform="matrix(0.04938271604938272,0,0,0.04938271604938272,21.7283950617284,0)" xlink:href="#ab"/><use transform="matrix(0.04938271604938272,0,0,0.04938271604938272,27.604938271604947,0)" xlink:href="#ai"/><use transform="matrix(0.04938271604938272,0,0,0.04938271604938272,37.48148148148149,0)" xlink:href="#aM"/><use transform="matrix(0.04938271604938272,0,0,0.04938271604938272,46.37037037037038,0)" xlink:href="#X"/><use transform="matrix(0.04938271604938272,0,0,0.04938271604938272,56.24691358024693,0)" xlink:href="#ab"/></g><g id="D"><use transform="matrix(0.04938271604938272,0,0,0.04938271604938272,0,0)" xlink:href="#aN"/><use transform="matrix(0.04938271604938272,0,0,0.04938271604938272,12.790123456790125,0)" xlink:href="#X"/><use transform="matrix(0.04938271604938272,0,0,0.04938271604938272,22.66666666666667,0)" xlink:href="#as"/><use transform="matrix(0.04938271604938272,0,0,0.04938271604938272,32.543209876543216,0)" xlink:href="#W"/><use transform="matrix(0.04938271604938272,0,0,0.04938271604938272,42.41975308641976,0)" xlink:href="#ab"/><use transform="matrix(0.04938271604938272,0,0,0.04938271604938272,48.296296296296305,0)" xlink:href="#ae"/><use transform="matrix(0.04938271604938272,0,0,0.04938271604938272,58.17283950617284,0)" xlink:href="#W"/><use transform="matrix(0.04938271604938272,0,0,0.04938271604938272,68.0493827160494,0)" xlink:href="#ad"/><use transform="matrix(0.04938271604938272,0,0,0.04938271604938272,72.98765432098767,0)" xlink:href="#X"/></g><path fill="#333" d="M30-248c118-7 216 8 213 122C240-48 200 0 122 0H30v-248zM63-27c89 8 146-16 146-99s-60-101-146-95v194" id="aR"/><path fill="#333" d="M135-143c-3-34-86-38-87 0 15 53 115 12 119 90S17 21 10-45l28-5c4 36 97 45 98 0-10-56-113-15-118-90-4-57 82-63 122-42 12 7 21 19 24 35" id="aS"/><g id="E"><use transform="matrix(0.043827160493827164,0,0,0.043827160493827164,0,0)" xlink:href="#aR"/><use transform="matrix(0.043827160493827164,0,0,0.043827160493827164,11.351234567901235,0)" xlink:href="#ax"/><use transform="matrix(0.043827160493827164,0,0,0.043827160493827164,20.116666666666667,0)" xlink:href="#aC"/><use transform="matrix(0.043827160493827164,0,0,0.043827160493827164,28.882098765432097,0)" xlink:href="#al"/><use transform="matrix(0.043827160493827164,0,0,0.043827160493827164,37.64753086419753,0)" xlink:href="#aS"/></g><g id="F"><use transform="matrix(0.043827160493827164,0,0,0.043827160493827164,0,0)" xlink:href="#aG"/><use transform="matrix(0.043827160493827164,0,0,0.043827160493827164,8.765432098765432,0)" xlink:href="#aS"/><use transform="matrix(0.043827160493827164,0,0,0.043827160493827164,16.654320987654323,0)" xlink:href="#ay"/><use transform="matrix(0.043827160493827164,0,0,0.043827160493827164,21.037037037037038,0)" xlink:href="#ak"/><use transform="matrix(0.043827160493827164,0,0,0.043827160493827164,29.802469135802465,0)" xlink:href="#al"/></g><path fill="#333" d="M96-169c-40 0-48 33-48 73s9 75 48 75c24 0 41-14 43-38l32 2c-6 37-31 61-74 61-59 0-76-41-82-99-10-93 101-131 147-64 4 7 5 14 7 22l-32 3c-4-21-16-35-41-35" id="aT"/><g id="G"><use transform="matrix(0.043827160493827164,0,0,0.043827160493827164,0,0)" xlink:href="#aT"/><use transform="matrix(0.043827160493827164,0,0,0.043827160493827164,7.888888888888889,0)" xlink:href="#al"/><use transform="matrix(0.043827160493827164,0,0,0.043827160493827164,16.654320987654323,0)" xlink:href="#az"/><use transform="matrix(0.043827160493827164,0,0,0.043827160493827164,21.869753086419756,0)" xlink:href="#az"/><use transform="matrix(0.043827160493827164,0,0,0.043827160493827164,27.085185185185185,0)" xlink:href="#aG"/><use transform="matrix(0.043827160493827164,0,0,0.043827160493827164,35.85061728395062,0)" xlink:href="#ay"/><use transform="matrix(0.043827160493827164,0,0,0.043827160493827164,40.233333333333334,0)" xlink:href="#al"/><use transform="matrix(0.043827160493827164,0,0,0.043827160493827164,48.99876543209877,0)" xlink:href="#aS"/><use transform="matrix(0.043827160493827164,0,0,0.043827160493827164,56.88765432098765,0)" xlink:href="#aH"/></g><path fill="#fff" d="M194-120c59 52 2 134-86 124-53-6-90-18-98-63l31-7c8 30 29 43 70 43 46 0 84-17 71-62-32-43-135-20-137-98-3-89 178-90 191-16l-30 9c-8-48-127-53-127 5 0 53 81 35 115 65" id="aU"/><g id="H"><use transform="matrix(0.04938271604938272,0,0,0.04938271604938272,0,0)" xlink:href="#aU"/><use transform="matrix(0.04938271604938272,0,0,0.04938271604938272,11.851851851851853,0)" xlink:href="#ai"/><use transform="matrix(0.04938271604938272,0,0,0.04938271604938272,21.7283950617284,0)" xlink:href="#Y"/><use transform="matrix(0.04938271604938272,0,0,0.04938271604938272,25.629629629629633,0)" xlink:href="#Z"/><use transform="matrix(0.04938271604938272,0,0,0.04938271604938272,29.530864197530867,0)" xlink:href="#af"/><use transform="matrix(0.04938271604938272,0,0,0.04938271604938272,38.41975308641976,0)" xlink:href="#Z"/><use transform="matrix(0.04938271604938272,0,0,0.04938271604938272,42.320987654320994,0)" xlink:href="#ad"/><use transform="matrix(0.04938271604938272,0,0,0.04938271604938272,47.25925925925927,0)" xlink:href="#X"/><use transform="matrix(0.04938271604938272,0,0,0.04938271604938272,57.135802469135804,0)" xlink:href="#ab"/></g><g id="I"><use transform="matrix(0.04938271604938272,0,0,0.04938271604938272,0,0)" xlink:href="#X"/><use transform="matrix(0.04938271604938272,0,0,0.04938271604938272,9.876543209876544,0)" xlink:href="#Y"/><use transform="matrix(0.04938271604938272,0,0,0.04938271604938272,13.777777777777779,0)" xlink:href="#ad"/><use transform="matrix(0.04938271604938272,0,0,0.04938271604938272,18.71604938271605,0)" xlink:href="#W"/><use transform="matrix(0.04938271604938272,0,0,0.04938271604938272,28.592592592592595,0)" xlink:href="#ab"/><use transform="matrix(0.04938271604938272,0,0,0.04938271604938272,34.46913580246914,0)" xlink:href="#X"/><use transform="matrix(0.04938271604938272,0,0,0.04938271604938272,44.345679012345684,0)" xlink:href="#ag"/><use transform="matrix(0.04938271604938272,0,0,0.04938271604938272,53.23456790123457,0)" xlink:href="#ah"/><use transform="matrix(0.04938271604938272,0,0,0.04938271604938272,63.111111111111114,0)" xlink:href="#ai"/></g><g id="J"><use transform="matrix(0.05,0,0,0.05,0,0)" xlink:href="#aj"/><use transform="matrix(0.05,0,0,0.05,12.950000000000001,0)" xlink:href="#ak"/><use transform="matrix(0.05,0,0,0.05,22.950000000000003,0)" xlink:href="#al"/></g><g id="K"><use transform="matrix(0.04938271604938272,0,0,0.04938271604938272,0,0)" xlink:href="#aU"/><use transform="matrix(0.04938271604938272,0,0,0.04938271604938272,11.851851851851853,0)" xlink:href="#W"/><use transform="matrix(0.04938271604938272,0,0,0.04938271604938272,21.7283950617284,0)" xlink:href="#Y"/><use transform="matrix(0.04938271604938272,0,0,0.04938271604938272,25.629629629629633,0)" xlink:href="#W"/><use transform="matrix(0.04938271604938272,0,0,0.04938271604938272,35.50617283950618,0)" xlink:href="#af"/><use transform="matrix(0.04938271604938272,0,0,0.04938271604938272,44.39506172839506,0)" xlink:href="#Z"/><use transform="matrix(0.04938271604938272,0,0,0.04938271604938272,48.2962962962963,0)" xlink:href="#ai"/><use transform="matrix(0.04938271604938272,0,0,0.04938271604938272,58.17283950617284,0)" xlink:href="#ae"/><use transform="matrix(0.04938271604938272,0,0,0.04938271604938272,68.0493827160494,0)" xlink:href="#X"/><use transform="matrix(0.04938271604938272,0,0,0.04938271604938272,77.92592592592594,0)" xlink:href="#ab"/></g><g id="L"><use transform="matrix(0.04938271604938272,0,0,0.04938271604938272,0,0)" xlink:href="#X"/><use transform="matrix(0.04938271604938272,0,0,0.04938271604938272,9.876543209876544,0)" xlink:href="#aO"/><use transform="matrix(0.04938271604938272,0,0,0.04938271604938272,19.75308641975309,0)" xlink:href="#ab"/><use transform="matrix(0.04938271604938272,0,0,0.04938271604938272,25.629629629629633,0)" xlink:href="#ai"/><use transform="matrix(0.04938271604938272,0,0,0.04938271604938272,35.50617283950618,0)" xlink:href="#ad"/><use transform="matrix(0.04938271604938272,0,0,0.04938271604938272,40.44444444444445,0)" xlink:href="#aP"/><use transform="matrix(0.04938271604938272,0,0,0.04938271604938272,50.320987654320994,0)" xlink:href="#aQ"/><use transform="matrix(0.04938271604938272,0,0,0.04938271604938272,59.209876543209894,0)" xlink:href="#Z"/><use transform="matrix(0.04938271604938272,0,0,0.04938271604938272,63.111111111111114,0)" xlink:href="#af"/><use transform="matrix(0.04938271604938272,0,0,0.04938271604938272,72.00000000000001,0)" xlink:href="#ai"/></g><path fill="#333" d="M205 0l-28-72H64L36 0H1l101-248h38L239 0h-34zm-38-99l-47-123c-12 45-31 82-46 123h93" id="aV"/><path fill="#333" d="M177-190C167-65 218 103 67 71c-23-6-38-20-44-43l32-5c15 47 100 32 89-28v-30C133-14 115 1 83 1 29 1 15-40 15-95c0-56 16-97 71-98 29-1 48 16 59 35 1-10 0-23 2-32h30zM94-22c36 0 50-32 50-73 0-42-14-75-50-75-39 0-46 34-46 75s6 73 46 73" id="aW"/><path fill="#333" d="M100-194c62-1 85 37 85 99 1 63-27 99-86 99S16-35 15-95c0-66 28-99 85-99zM99-20c44 1 53-31 53-75 0-43-8-75-51-75s-53 32-53 75 10 74 51 75zM76-211c8-23 27-35 38-54h36v5l-58 49H76" id="aX"/><path fill="#333" d="M141 0L90-78 38 0H4l68-98-65-92h35l48 74 47-74h35l-64 92 68 98h-35" id="aY"/><g id="M"><use transform="matrix(0.043827160493827164,0,0,0.043827160493827164,0,0)" xlink:href="#aV"/><use transform="matrix(0.043827160493827164,0,0,0.043827160493827164,10.518518518518519,0)" xlink:href="#aW"/><use transform="matrix(0.043827160493827164,0,0,0.043827160493827164,19.28395061728395,0)" xlink:href="#az"/><use transform="matrix(0.043827160493827164,0,0,0.043827160493827164,24.499382716049386,0)" xlink:href="#al"/><use transform="matrix(0.043827160493827164,0,0,0.043827160493827164,33.26481481481481,0)" xlink:href="#ay"/><use transform="matrix(0.043827160493827164,0,0,0.043827160493827164,37.64753086419753,0)" xlink:href="#aX"/><use transform="matrix(0.043827160493827164,0,0,0.043827160493827164,46.41296296296296,0)" xlink:href="#aY"/><use transform="matrix(0.043827160493827164,0,0,0.043827160493827164,54.30185185185184,0)" xlink:href="#aw"/><use transform="matrix(0.043827160493827164,0,0,0.043827160493827164,57.764197530864195,0)" xlink:href="#aT"/><use transform="matrix(0.043827160493827164,0,0,0.043827160493827164,65.65308641975308,0)" xlink:href="#al"/></g><path fill="#333" d="M24-231v-30h32v30H24zM-9 49c24 4 33-6 33-30v-209h32V24c2 40-23 58-65 49V49" id="aZ"/><g id="N"><use transform="matrix(0.043827160493827164,0,0,0.043827160493827164,0,0)" xlink:href="#aZ"/><use transform="matrix(0.043827160493827164,0,0,0.043827160493827164,3.462345679012346,0)" xlink:href="#au"/></g><g id="O"><use transform="matrix(0.043827160493827164,0,0,0.043827160493827164,0,0)" xlink:href="#aG"/><use transform="matrix(0.043827160493827164,0,0,0.043827160493827164,8.765432098765432,0)" xlink:href="#aS"/><use transform="matrix(0.043827160493827164,0,0,0.043827160493827164,16.654320987654323,0)" xlink:href="#ay"/><use transform="matrix(0.043827160493827164,0,0,0.043827160493827164,21.037037037037038,0)" xlink:href="#au"/></g><g id="P"><use transform="matrix(0.043827160493827164,0,0,0.043827160493827164,0,0)" xlink:href="#aT"/><use transform="matrix(0.043827160493827164,0,0,0.043827160493827164,7.888888888888889,0)" xlink:href="#ax"/><use transform="matrix(0.043827160493827164,0,0,0.043827160493827164,16.654320987654323,0)" xlink:href="#aC"/><use transform="matrix(0.043827160493827164,0,0,0.043827160493827164,25.419753086419753,0)" xlink:href="#ax"/><use transform="matrix(0.043827160493827164,0,0,0.043827160493827164,34.18518518518518,0)" xlink:href="#aS"/><use transform="matrix(0.043827160493827164,0,0,0.043827160493827164,42.074074074074076,0)" xlink:href="#ay"/><use transform="matrix(0.043827160493827164,0,0,0.043827160493827164,46.45679012345679,0)" xlink:href="#az"/><use transform="matrix(0.043827160493827164,0,0,0.043827160493827164,51.672222222222224,0)" xlink:href="#ax"/><use transform="matrix(0.043827160493827164,0,0,0.043827160493827164,60.43765432098766,0)" xlink:href="#aC"/><use transform="matrix(0.043827160493827164,0,0,0.043827160493827164,69.20308641975309,0)" xlink:href="#al"/><use transform="matrix(0.043827160493827164,0,0,0.043827160493827164,77.96851851851852,0)" xlink:href="#aH"/></g><path fill="#fff" d="M238-179c0 84-86 86-175 82L45 0H11l48-248c82 0 179-12 179 69zm-34 1c0-53-64-42-116-43l-19 98c63 0 135 9 135-55" id="ba"/><g id="Q"><use transform="matrix(0.04938271604938272,0,0,0.04938271604938272,0,0)" xlink:href="#ba"/><use transform="matrix(0.04938271604938272,0,0,0.04938271604938272,11.851851851851853,0)" xlink:href="#ab"/><use transform="matrix(0.04938271604938272,0,0,0.04938271604938272,17.728395061728396,0)" xlink:href="#W"/><use transform="matrix(0.04938271604938272,0,0,0.04938271604938272,27.60493827160494,0)" xlink:href="#W"/><use transform="matrix(0.04938271604938272,0,0,0.04938271604938272,37.48148148148148,0)" xlink:href="#ae"/><use transform="matrix(0.04938271604938272,0,0,0.04938271604938272,47.358024691358025,0)" xlink:href="#af"/><use transform="matrix(0.04938271604938272,0,0,0.04938271604938272,56.246913580246904,0)" xlink:href="#aq"/><use transform="matrix(0.04938271604938272,0,0,0.04938271604938272,66.12345679012346,0)" xlink:href="#W"/><use transform="matrix(0.04938271604938272,0,0,0.04938271604938272,76,0)" xlink:href="#ab"/></g><g id="R"><use transform="matrix(0.04938271604938272,0,0,0.04938271604938272,0,0)" xlink:href="#as"/><use transform="matrix(0.04938271604938272,0,0,0.04938271604938272,9.876543209876544,0)" xlink:href="#X"/><use transform="matrix(0.04938271604938272,0,0,0.04938271604938272,19.75308641975309,0)" xlink:href="#as"/><use transform="matrix(0.04938271604938272,0,0,0.04938271604938272,29.629629629629633,0)" xlink:href="#ai"/><use transform="matrix(0.04938271604938272,0,0,0.04938271604938272,39.50617283950618,0)" xlink:href="#aJ"/></g><g id="S"><use transform="matrix(0.04938271604938272,0,0,0.04938271604938272,0,0)" xlink:href="#as"/><use transform="matrix(0.04938271604938272,0,0,0.04938271604938272,9.876543209876544,0)" xlink:href="#ai"/></g><g id="T"><use transform="matrix(0.04938271604938272,0,0,0.04938271604938272,0,0)" xlink:href="#ae"/><use transform="matrix(0.04938271604938272,0,0,0.04938271604938272,9.876543209876544,0)" xlink:href="#ai"/><use transform="matrix(0.04938271604938272,0,0,0.04938271604938272,19.75308641975309,0)" xlink:href="#aM"/><use transform="matrix(0.04938271604938272,0,0,0.04938271604938272,28.641975308641978,0)" xlink:href="#ai"/></g><g id="U"><use transform="matrix(0.04938271604938272,0,0,0.04938271604938272,0,0)" xlink:href="#X"/><use transform="matrix(0.04938271604938272,0,0,0.04938271604938272,9.876543209876544,0)" xlink:href="#aO"/><use transform="matrix(0.04938271604938272,0,0,0.04938271604938272,19.75308641975309,0)" xlink:href="#ab"/><use transform="matrix(0.04938271604938272,0,0,0.04938271604938272,25.629629629629633,0)" xlink:href="#ai"/><use transform="matrix(0.04938271604938272,0,0,0.04938271604938272,35.50617283950618,0)" xlink:href="#ad"/><use transform="matrix(0.04938271604938272,0,0,0.04938271604938272,40.44444444444445,0)" xlink:href="#aP"/><use transform="matrix(0.04938271604938272,0,0,0.04938271604938272,50.320987654320994,0)" xlink:href="#aQ"/><use transform="matrix(0.04938271604938272,0,0,0.04938271604938272,59.209876543209894,0)" xlink:href="#Z"/><use transform="matrix(0.04938271604938272,0,0,0.04938271604938272,63.111111111111114,0)" xlink:href="#af"/><use transform="matrix(0.04938271604938272,0,0,0.04938271604938272,72.00000000000001,0)" xlink:href="#ai"/></g></defs></g></svg>