<svg xmlns="http://www.w3.org/2000/svg" xmlns:xlink="http://www.w3.org/1999/xlink" xmlns:lucid="lucid" width="2040" height="1240"><g transform="translate(-240 -180)" lucid:page-tab-id="0_0"><path d="M0 0h2320v1898.46H0z" fill="#fff"/><path d="M260 208c0-4.42 3.58-8 8-8h204c4.42 0 8 3.58 8 8v4.93c0 3.9-2.24 9.3-5 12.07-2.76 2.76-8.17 5-12.07 5H268c-4.42 0-8-3.58-8-8z" fill="#fff"/><path d="M480 200v20l-10 10H260" stroke="#333" fill="none"/><path d="M260 208c0-4.42 3.58-8 8-8h1984c4.42 0 8 3.58 8 8v1184c0 4.42-3.58 8-8 8H268c-4.42 0-8-3.58-8-8z" stroke="#333" fill="none"/><use xlink:href="#a" transform="matrix(1,0,0,1,268,200) translate(23.074074074074076 18.555555555555557)"/><use xlink:href="#b" transform="matrix(1,0,0,1,268,200) translate(101.93827160493828 18.555555555555557)"/><path d="M698.7 342.5l.04 9.88m.05 9.87l.08 19.75m.05 9.88l.1 19.75m.04 9.87l.1 19.76m.05 9.87l.1 19.75m.04 9.88l.1 19.75m.04 9.88l.1 19.75m.05 9.88l.1 19.76m.04 9.88l.1 19.75m.03 9.86l.1 19.75m.05 9.9l.1 19.74m.04 9.88l.1 19.75m.05 9.87l.1 19.75m.04 9.87l.1 19.75m.05 9.88l.1 19.75m.05 9.87l.1 19.75m.04 9.88l.1 19.75m.04 9.88l.1 19.75m.05 9.87l.1 19.75m.04 9.88l.1 19.75m.04 9.88l.1 19.75m.06 9.88l.1 19.75m.04 9.88l.1 19.76m.04 9.88l.1 19.75m.05 9.86l.08 19.75m.05 9.9l.1 19.74m.05 9.87l.1 19.77m.04 9.87l.1 19.75m.04 9.87l.1 19.75m.05 9.87l.1 19.75m.05 9.87l.1 19.75m.04 9.88l.1 19.75m.04 9.87l.05 9.88" stroke="#333" fill="none"/><path d="M699.2 342.5l-1 .02V342h1z" stroke="#333" stroke-width=".05" fill="#333"/><path d="M703.28 1290.54l.02 3.5" stroke="#333" fill="none"/><path d="M679.76 488c0-4.42 3.58-8 8-8h24c4.42 0 8 3.58 8 8v244c0 4.42-3.58 8-8 8h-24c-4.42 0-8-3.58-8-8z" stroke="#f2f2f2" fill="#ced4db"/><path d="M1059.52 342.5v9.97m0 9.96v19.93m0 9.97v19.93m0 9.97v19.93m0 9.96v19.94m0 9.96v19.93m0 9.97v19.93m0 9.97v19.93m0 9.97v19.93m0 9.96v19.95m0 9.96v19.94m0 9.97v19.94m0 9.97v19.94m0 9.96v19.94m0 9.96v19.93m0 9.97v19.93m0 9.97v19.93m0 9.96v9.96l.07.17.16.07.17.07.07.17v9.97m0 9.97v19.93m0 9.97V921m0 9.97v19.93m0 9.96v19.94m0 9.96v19.93m0 9.96v19.93m0 9.96v19.93m0 9.95v19.94m0 9.95v19.93m0 9.97v19.93m0 9.97v19.93m0 9.97v19.93m0 9.96v19.94m0 9.96v19.93m0 9.97v19.93m0 9.97v19.93m0 9.96v9.97" stroke="#333" fill="none"/><path d="M1060.02 342.5h-1v-.5h1z" stroke="#333" stroke-width=".05" fill="#333"/><path d="M1060 1359.5v.5" stroke="#333" fill="none"/><path d="M660 1264.5c0-4.42 3.58-8 8-8h70.57c4.42 0 8 3.58 8 8v64c0 4.4-3.58 8-8 8H668c-4.42 0-8-3.6-8-8z" fill="none"/><path d="M668.66 1264.5l69.26 64m0-64l-69.26 64" stroke="#5d646f" stroke-width="8" fill="none"/><path d="M1040 548c0-4.42 3.58-8 8-8h24c4.42 0 8 3.58 8 8v104c0 4.42-3.58 8-8 8h-24c-4.42 0-8-3.58-8-8z" stroke="#f2f2f2" fill="#ced4db"/><path d="M603.65 228c0-4.42 3.58-8 8-8h174.07c4.42 0 8 3.58 8 8v106c0 4.42-3.58 8-8 8H611.65c-4.42 0-8-3.58-8-8z" stroke="#000" stroke-opacity="0" fill="#ffaf28"/><use xlink:href="#c" transform="matrix(1,0,0,1,611.6496896262572,228) translate(-2.2530864197531173 56.55555555555555)"/><path d="M964.48 228c0-4.42 3.6-8 8-8h174.08c4.42 0 8 3.58 8 8v106c0 4.42-3.58 8-8 8H972.48c-4.4 0-8-3.58-8-8z" stroke="#000" stroke-opacity="0" fill="#ffcc78"/><use xlink:href="#d" transform="matrix(1,0,0,1,972.4836879544767,228) translate(-0.2037037037037095 56.55555555555555)"/><path d="M403.4 277.42c0 10.9-8.84 19.75-19.75 19.75-10.9 0-19.75-8.85-19.75-19.75s8.84-19.75 19.75-19.75c10.9 0 19.75 8.84 19.75 19.75z" stroke="#333" fill="#fff"/><path d="M383.65 297.17v47.3c0 4.4 1.92 11.02 4.28 14.76l35.72 56.44m-40-63.2l-40 63.2m0-98.75h80" stroke="#333" fill="none"/><path d="M343.65 265.67c0-4.42 3.58-8 8-8h64c4.42 0 8 3.58 8 8v164c0 4.4-3.58 8-8 8h-64c-4.42 0-8-3.6-8-8z" fill="none"/><use xlink:href="#e" transform="matrix(1,0,0,1,263.6496896262572,415.6655519423589) translate(85.97530864197532 14.555555555555555)"/><path d="M384.15 353.4l2.06.85.86 2.06v9.95m0 9.94v19.88m0 9.94v19.88m0 9.94v19.9m0 9.93v19.88m0 9.95v19.88m0 9.94v19.88m0 9.95v19.88m0 9.94v19.9m0 9.93v19.88m0 9.94v19.9m0 9.93v19.88m0 9.95v19.88m0 9.94V754m0 9.93v19.88m0 9.95v19.9m0 9.93v19.88m0 9.94v19.9m0 9.93v19.88m0 9.96v19.88m0 9.94v19.9m0 9.93v19.9m0 9.93v19.9m0 9.93v19.88m0 9.95v19.87m0 9.94v19.9m0 9.94v19.88m0 9.94v9.94M384.16 353.4h-3.5M387.06 1161.6v.5M380.5 495.67h282.38M380.5 495.67h-.5" stroke="#333" fill="none"/><path d="M677.64 495.67l-14.26 4.63v-9.27z" stroke="#333" fill="#333"/><use xlink:href="#f" transform="matrix(1,0,0,1,368.1983238493211,504.3008068579831) translate(0 14.222222222222223)"/><use xlink:href="#g" transform="matrix(1,0,0,1,368.1983238493211,504.3008068579831) translate(19.75308641975309 14.222222222222223)"/><use xlink:href="#h" transform="matrix(1,0,0,1,368.1983238493211,504.3008068579831) translate(39.50617283950618 14.222222222222223)"/><use xlink:href="#i" transform="matrix(1,0,0,1,368.1983238493211,504.3008068579831) translate(104.59259259259261 14.222222222222223)"/><use xlink:href="#j" transform="matrix(1,0,0,1,368.1983238493211,504.3008068579831) translate(157.92592592592595 14.222222222222223)"/><use xlink:href="#k" transform="matrix(1,0,0,1,368.1983238493211,504.3008068579831) translate(182.61728395061732 14.222222222222223)"/><use xlink:href="#l" transform="matrix(1,0,0,1,368.1983238493211,504.3008068579831) translate(216.19753086419757 14.222222222222223)"/><path d="M1325.32 228c0-4.42 3.58-8 8-8h174.07c4.4 0 8 3.58 8 8v106c0 4.42-3.6 8-8 8H1333.3c-4.42 0-8-3.58-8-8z" stroke="#000" stroke-opacity="0" fill="#ffcc78"/><use xlink:href="#m" transform="matrix(1,0,0,1,1333.3176862826963,228) translate(36.709876543209866 56.55555555555555)"/><path d="M1420.36 342.5v9.97m0 9.97v19.94m0 9.97v19.94m0 9.96v19.95m0 9.98v19.94m0 9.97v19.93m0 9.97v19.94m0 9.97v19.95m0 9.97v19.94m0 9.98v19.94m0 9.97v19.94m0 9.96v19.94m0 9.97v19.94m0 9.98v19.94m0 9.97v19.94m0 9.97v19.95m0 9.97v19.94m0 9.97v19.94m0 9.97v19.94m0 9.97v19.94m0 9.96v19.95m0 9.98v19.94m0 9.97v19.93m0 9.97v19.94m0 9.97v19.95m0 9.97v19.94m0 9.98v19.94m0 9.97v19.94m0 9.96V1190m0 9.97v19.94m0 9.98v19.94m0 9.97v19.94m0 9.97v19.95m0 9.97v19.94m0 9.97v9.97" stroke="#333" fill="none"/><path d="M1420.86 342.5h-1v-.5h1z" stroke="#333" stroke-width=".05" fill="#333"/><path d="M1420.36 1359.5v.5" stroke="#333" fill="none"/><path d="M1686.15 228c0-4.42 3.58-8 8-8h174.08c4.42 0 8 3.58 8 8v106c0 4.42-3.58 8-8 8h-174.08c-4.42 0-8-3.58-8-8z" stroke="#000" stroke-opacity="0" fill="#ffcc78"/><use xlink:href="#n" transform="matrix(1,0,0,1,1694.151684610916,228) translate(21.006172839506164 56.55555555555555)"/><path d="M2040 228c0-4.42 3.58-8 8-8h174.08c4.4 0 8 3.58 8 8v106c0 4.42-3.6 8-8 8H2048c-4.42 0-8-3.58-8-8z" stroke="#000" stroke-opacity="0" fill="#ffcc78"/><use xlink:href="#o" transform="matrix(1,0,0,1,2048,228) translate(57.919753086419746 56.55555555555555)"/><path d="M678.76 689.18h-5.1m-5.1 0h-10.2m-5.1 0h-10.2m-5.1 0h-10.22m-5.1 0h-10.2m-5.1 0h-10.2m-5.1 0h-10.2m-5.1 0H566.5m-5.1 0h-10.2m-5.1 0h-10.2m-5.1 0h-10.2m-5.1 0H505.3m-5.1 0H490m-5.1 0h-10.2m-5.1 0h-10.2m-5.1 0h-10.22m-5.1 0h-10.2m-5.1 0h-10.2m-5.1 0h-10.2m-5.1 0h-5.1" stroke="#333" fill="none"/><path d="M679.26 689.68h-.5v-1h.5z" stroke="#333" stroke-width=".05" fill="#333"/><path d="M405.25 679l-17.2 10.18 17.2 10.18" stroke="#333" fill="none"/><use xlink:href="#p" transform="matrix(1,0,0,1,411.3341049890959,693.1788100055812) translate(0.0049999999999954525 14.4)"/><use xlink:href="#q" transform="matrix(1,0,0,1,411.3341049890959,693.1788100055812) translate(38.905 14.4)"/><use xlink:href="#r" transform="matrix(1,0,0,1,411.3341049890959,693.1788100055812) translate(72.905 14.4)"/><use xlink:href="#s" transform="matrix(1,0,0,1,411.3341049890959,693.1788100055812) translate(173.755 14.4)"/><use xlink:href="#t" transform="matrix(1,0,0,1,411.3341049890959,693.1788100055812) translate(56.40499999999999 36)"/><use xlink:href="#u" transform="matrix(1,0,0,1,411.3341049890959,693.1788100055812) translate(71.40499999999999 36)"/><use xlink:href="#v" transform="matrix(1,0,0,1,411.3341049890959,693.1788100055812) translate(100.35499999999999 36)"/><use xlink:href="#w" transform="matrix(1,0,0,1,411.3341049890959,693.1788100055812) translate(125.35499999999999 36)"/><path d="M1780 342.5v9.86m0 9.85v19.73m0 9.86v19.7m0 9.86v19.7m0 9.87v19.7m0 9.87v19.7m0 9.87v19.72m0 9.84v19.72m0 9.85v19.73m0 9.86v19.7m0 9.86v19.7m0 9.87v19.7m0 9.87v19.7m0 9.87v19.72m0 9.84v19.72m0 9.85v19.73m0 9.86v19.7m0 9.86v19.7m0 9.87v19.7m0 9.87v19.7m0 9.87v19.72m0 9.84v19.72m0 9.85v19.73m0 9.86v19.7m0 9.86v19.7m0 9.87v19.7m0 9.87v19.7m0 9.87v19.72m0 9.84v19.72m0 9.85v19.73m0 9.86v19.7m0 9.86v19.7m0 9.87v19.7m0 9.87v19.7m0 9.87v19.72m0 9.84v9.86" stroke="#333" fill="none"/><path d="M1780.5 342.5h-1v-.5h1z" stroke="#333" stroke-width=".05" fill="#333"/><path d="M1780 1377.5v.5M2135.04 342.5v9.86m0 9.85v19.73m0 9.86v19.7m0 9.86v19.7m0 9.87v19.7m0 9.87v19.7m0 9.87v19.72m0 9.84v19.72m0 9.85v19.73m0 9.86v19.7m0 9.86v19.7m0 9.87v19.7m0 9.87v19.7m0 9.87v19.72m0 9.84v19.72m0 9.85v19.73m0 9.86v19.7m0 9.86v19.7m0 9.87v19.7m0 9.87v19.7m0 9.87v19.72m0 9.84v19.72m0 9.85v19.73m0 9.86v19.7m0 9.86v19.7m0 9.87v19.7m0 9.87v19.7m0 9.87v19.72m0 9.84v19.72m0 9.85v19.73m0 9.86v19.7m0 9.86v19.7m0 9.87v19.7m0 9.87v19.7m0 9.87v19.72m0 9.84v9.86" stroke="#333" fill="none"/><path d="M2135.54 342.5h-1v-.5h1z" stroke="#333" stroke-width=".05" fill="#333"/><path d="M2135.04 1377.5v.5M720.76 544h303.48" stroke="#333" fill="none"/><path d="M720.77 544.5h-.5v-1h.5z" stroke="#333" stroke-width=".05" fill="#333"/><path d="M1039 544l-14.27 4.64v-9.27z" stroke="#333" fill="#333"/><use xlink:href="#x" transform="matrix(1,0,0,1,783.0896326488657,548.0068464981051) translate(0.0049999999999954525 14.4)"/><use xlink:href="#y" transform="matrix(1,0,0,1,783.0896326488657,548.0068464981051) translate(35.004999999999995 14.4)"/><path d="M1039 633.76h-5.04m-5.05 0h-10.08m-5.04 0h-10.1m-5.04 0h-10.1m-5.03 0h-10.08m-5.05 0h-10.1m-5.03 0h-10.1m-5.04 0H928m-5.03 0h-10.1m-5.04 0h-10.1m-5.03 0h-10.1m-5.04 0h-10.1m-5.03 0h-10.1m-5.04 0h-10.1m-5.04 0h-10.1m-5.04 0h-10.1m-5.03 0h-10.1m-5.05 0h-10.1m-5.03 0h-10.1m-5.04 0h-10.1m-5.03 0h-10.1m-5.04 0h-5.03" stroke="#333" fill="none"/><path d="M1039.5 634.26h-.5v-1h.5z" stroke="#333" stroke-width=".05" fill="#333"/><path d="M738.46 623.58l-17.22 10.18 17.22 10.18" stroke="#333" fill="none"/><use xlink:href="#z" transform="matrix(1,0,0,1,851.4304226147532,637.7588178058732) translate(0.004999999999999005 14.4)"/><path d="M1400.36 568c0-4.42 3.58-8 8-8h24c4.4 0 8 3.58 8 8v64c0 4.42-3.6 8-8 8h-24c-4.42 0-8-3.58-8-8z" stroke="#f2f2f2" fill="#ced4db"/><path d="M1081 564.36h303.35" stroke="#333" fill="none"/><path d="M1081 564.86h-.5v-1h.5z" stroke="#333" stroke-width=".05" fill="#333"/><path d="M1399.1 564.36l-14.25 4.64v-9.27z" stroke="#333" fill="#333"/><use xlink:href="#A" transform="matrix(1,0,0,1,1192.1913790245624,568.3642488788232) translate(0.005000000000002558 14.4)"/><use xlink:href="#B" transform="matrix(1,0,0,1,1192.1913790245624,568.3642488788232) translate(35.005 14.4)"/><path d="M1399.36 616.5h-5.05m-5.04 0h-10.1m-5.04 0h-10.1m-5.04 0h-10.1m-5.04 0h-10.1m-5.04 0h-10.1m-5.04 0h-10.1m-5.04 0h-10.1m-5.04 0h-10.1m-5.04 0h-10.1m-5.04 0h-10.1m-5.04 0h-10.1m-5.04 0h-10.1m-5.04 0h-10.1m-5.04 0h-10.1m-5.04 0h-10.1m-5.04 0h-10.1m-5.04 0h-10.1m-5.04 0h-10.1m-5.04 0h-10.1m-5.04 0h-10.1m-5.04 0h-5.05" stroke="#333" fill="none"/><path d="M1399.86 617h-.52v-1h.52z" stroke="#333" stroke-width=".05" fill="#333"/><path d="M1098.7 606.33l-17.22 10.18 17.22 10.2" stroke="#333" fill="none"/><use xlink:href="#z" transform="matrix(1,0,0,1,1211.7276526738099,620.5102960254011) translate(0.004999999999999005 14.4)"/><path d="M724.3 881.03H1743.1" stroke="#333" fill="none"/><path d="M724.3 881.53h-.5v-1h.5z" stroke="#333" stroke-width=".05" fill="#333"/><path d="M1757.88 881.03l-14.26 4.64v-9.27z" stroke="#333" fill="#333"/><use xlink:href="#C" transform="matrix(1,0,0,1,1172.7687313631086,855.4346571231933) translate(0.0049999999999954525 14.4)"/><use xlink:href="#D" transform="matrix(1,0,0,1,1172.7687313631086,855.4346571231933) translate(35.004999999999995 14.4)"/><path d="M724.7 980.82h5m5 0h9.98m5 0h10m5 0h9.98m5 0h10m5 0h9.98m5 0h10m5 0h9.98m5 0h10m5 0h9.98m5 0h10m5 0h9.98m5 0h10m5 0h9.98m5 0h10m5 0h9.98m5 0h10m5 0h9.98m5 0h10m5 0h9.98m5 0h10m5 0h9.98m5 0h10m5 0h9.98m5 0h10m5 0h9.98m5 0h10m5 0h9.98m5 0h10m5 0h9.98m5 0h10m5 0h9.98m5 0h10m5 0h9.98m5 0h10m5 0h9.98m5 0h10m5 0h9.98m5 0h10m5 0h9.98m5 0h10m5 0h9.98m5 0h10m5 0h9.98m5 0h10m5 0h9.98m5 0h10m5 0h9.98m5 0h10m5 0h9.98m5 0h10m5 0h9.98m5 0h10m4.98 0h10m5 0h10m4.98 0h10m5 0h10m4.98 0h10m5 0h10m4.98 0h10m5 0h10m4.98 0h10m5 0h10m4.98 0h10m5 0h10m4.98 0h10m5 0h10m4.98 0h10m5 0h10m4.98 0h5M741.98 970.64l-17.2 10.18 17.2 10.18" stroke="#333" fill="none"/><path d="M1759.5 981.32h-.5v-1h.5z" stroke="#333" stroke-width=".05" fill="#333"/><use xlink:href="#z" transform="matrix(1,0,0,1,1213.1937313631086,984.8171694447395) translate(0.004999999999999005 14.4)"/><path d="M683.3 848c0-4.42 3.57-8 8-8h24c4.4 0 8 3.58 8 8v204c0 4.42-3.6 8-8 8h-24c-4.43 0-8-3.58-8-8z" stroke="#f2f2f2" fill="#ced4db"/><path d="M666.4 855.4H387.56" stroke="#333" fill="none"/><path d="M681.17 855.4l-14.27 4.63v-9.27z" stroke="#333" fill="#333"/><path d="M387.57 855.4h-.5" stroke="#333" fill="none"/><g><use xlink:href="#E" transform="matrix(1,0,0,1,418.5224137374513,859.3912367495452) translate(0.0049999999999954525 14.4)"/><use xlink:href="#F" transform="matrix(1,0,0,1,418.5224137374513,859.3912367495452) translate(35.004999999999995 14.4)"/><use xlink:href="#G" transform="matrix(1,0,0,1,418.5224137374513,859.3912367495452) translate(100.905 14.4)"/><use xlink:href="#H" transform="matrix(1,0,0,1,418.5224137374513,859.3912367495452) translate(154.905 14.4)"/><use xlink:href="#I" transform="matrix(1,0,0,1,418.5224137374513,859.3912367495452) translate(179.905 14.4)"/></g><path d="M682.3 1025.33h-4.92m-4.9 0h-9.8m-4.92 0h-9.8m-4.92 0h-9.8m-4.9 0h-9.82m-4.9 0h-9.82m-4.9 0h-9.8m-4.92 0h-9.8m-4.92 0h-9.8m-4.9 0h-9.82m-4.9 0h-9.82m-4.9 0h-9.8m-4.92 0h-9.8m-4.92 0h-9.8m-4.9 0h-9.82m-4.9 0h-9.82m-4.9 0h-9.8m-4.92 0h-9.8m-4.92 0h-9.8m-4.9 0h-9.82m-4.9 0h-4.9" stroke="#333" fill="none"/><path d="M682.8 1025.83h-.53v-1h.52z" stroke="#333" stroke-width=".05" fill="#333"/><path d="M405.25 1015.15l-17.2 10.18 17.2 10.18" stroke="#333" fill="none"/><g><use xlink:href="#p" transform="matrix(1,0,0,1,391.1724137374513,1039.5083393228795) translate(0.0049999999999954525 14.4)"/><use xlink:href="#J" transform="matrix(1,0,0,1,391.1724137374513,1039.5083393228795) translate(38.905 14.4)"/><use xlink:href="#K" transform="matrix(1,0,0,1,391.1724137374513,1039.5083393228795) translate(68.855 14.4)"/><use xlink:href="#L" transform="matrix(1,0,0,1,391.1724137374513,1039.5083393228795) translate(126.75500000000001 14.4)"/><use xlink:href="#v" transform="matrix(1,0,0,1,391.1724137374513,1039.5083393228795) translate(200.60500000000002 14.4)"/><use xlink:href="#w" transform="matrix(1,0,0,1,391.1724137374513,1039.5083393228795) translate(225.60500000000002 14.4)"/></g><path d="M1760 868c0-4.42 3.58-8 8-8h24c4.42 0 8 3.58 8 8v124c0 4.42-3.58 8-8 8h-24c-4.42 0-8-3.58-8-8zM2115.04 888c0-4.42 3.58-8 8-8h24c4.42 0 8 3.58 8 8v64c0 4.42-3.58 8-8 8h-24c-4.42 0-8-3.58-8-8z" stroke="#f2f2f2" fill="#ced4db"/><path d="M1801 906.4h297.15" stroke="#333" fill="none"/><path d="M1801 906.9h-.5v-1h.5z" stroke="#333" stroke-width=".05" fill="#333"/><path d="M2112.92 906.4l-14.27 4.64v-9.27z" stroke="#333" fill="#333"/><g><use xlink:href="#M" transform="matrix(1,0,0,1,1909.0938095324618,880.8029700753681) translate(0.005000000000002558 14.4)"/><use xlink:href="#B" transform="matrix(1,0,0,1,1909.0938095324618,880.8029700753681) translate(35.005 14.4)"/></g><path d="M2114.56 954.66h-5.2m-5.22 0h-10.42m-5.2 0h-10.43m-5.22 0h-10.42m-5.22 0h-10.42m-5.2 0h-10.43m-5.22 0h-10.42m-5.2 0h-10.43m-5.22 0h-10.4m-5.22 0h-10.42m-5.2 0h-5.22l-.32.13-.14.32-.13.32-.32.13h-5.2m-5.2 0h-10.4m-5.2 0h-10.4m-5.18 0h-10.4m-5.2 0h-10.4m-5.2 0h-10.38m-5.2 0h-10.4m-5.2 0H1843m-5.2 0h-10.4m-5.2 0h-10.4m-5.2 0h-5.2" stroke="#333" fill="none"/><path d="M2115.17 955.16h-.62v-1h.4z" stroke="#333" stroke-width=".05" fill="#333"/><path d="M1818.7 945.4l-17.22 10.17 17.22 10.18" stroke="#333" fill="none"/><g><use xlink:href="#z" transform="matrix(1,0,0,1,1929.3697304513928,959.5657101799163) translate(0.004999999999999005 14.4)"/></g><defs><path fill="#333" d="M187 0l-14-72H61L19 0h-37l149-248h38L221 0h-34zm-19-99l-22-123L76-99h92" id="N"/><path fill="#333" d="M133-28C103 26-5 8 13-77c13-62 24-115 90-117 29-1 46 15 56 35l19-102h32L160 0h-30zM45-64c-2 27 10 43 35 43 54-1 69-50 69-103 0-29-15-46-42-46-53-1-58 58-62 106" id="O"/><path fill="#333" d="M50-231l6-30h32l-6 30H50zM6 0l37-190h31L37 0H6" id="P"/><path fill="#333" d="M44-68c0 29 11 47 38 47 30 0 42-19 51-41l28 9C148-21 126 4 82 4 31 4 10-29 12-85c3-77 74-140 146-93 12 8 15 23 18 40l-31 5c-1-22-13-36-36-36-52 0-65 49-65 101" id="Q"/><path fill="#333" d="M30-147c31-64 166-65 159 27C183-49 158 1 86 4 9 8 1-88 30-147zM88-20c53 0 68-48 68-100 0-31-11-51-44-50-52 1-68 46-68 97 0 32 13 53 44 53" id="R"/><path fill="#333" d="M67-158c22-48 132-52 116 29L158 0h-32l25-140c3-38-53-32-70-12C52-117 51-52 38 0H6l36-190h30" id="S"/><path fill="#333" d="M165-48c-4 18 1 34 23 27l-3 20c-29 8-62 0-52-35h-2C116-14 99 4 63 4 30 4 8-16 8-49c0-68 71-67 138-67 10-26 0-56-31-54-26 1-42 9-47 31l-32-5c8-67 160-71 144 15-5 28-9 54-15 81zM42-50c3 52 80 24 89-6 7-12 7-24 11-38-47 1-103-4-100 44" id="T"/><path fill="#333" d="M66-151c12-25 30-51 66-40l-6 26C45-176 58-65 38 0H6l36-190h30" id="U"/><g id="a"><use transform="matrix(0.04938271604938272,0,0,0.04938271604938272,0,0)" xlink:href="#N"/><use transform="matrix(0.04938271604938272,0,0,0.04938271604938272,11.851851851851853,0)" xlink:href="#O"/><use transform="matrix(0.04938271604938272,0,0,0.04938271604938272,21.7283950617284,0)" xlink:href="#P"/><use transform="matrix(0.04938271604938272,0,0,0.04938271604938272,25.629629629629633,0)" xlink:href="#Q"/><use transform="matrix(0.04938271604938272,0,0,0.04938271604938272,34.51851851851852,0)" xlink:href="#P"/><use transform="matrix(0.04938271604938272,0,0,0.04938271604938272,38.41975308641975,0)" xlink:href="#R"/><use transform="matrix(0.04938271604938272,0,0,0.04938271604938272,48.2962962962963,0)" xlink:href="#S"/><use transform="matrix(0.04938271604938272,0,0,0.04938271604938272,58.17283950617284,0)" xlink:href="#T"/><use transform="matrix(0.04938271604938272,0,0,0.04938271604938272,68.0493827160494,0)" xlink:href="#U"/></g><path fill="#333" d="M67-162c32-53 139-36 121 50C175-51 163 2 97 4 68 4 52-11 42-31 38 6 28 39 22 75H-9l50-265h29c-1 10 0 20-3 28zm89 36c0-26-10-43-35-43-54 0-67 50-69 103-1 29 14 45 42 46 53 0 62-58 62-106" id="V"/><path fill="#333" d="M6 0l50-261h32L37 0H6" id="W"/><path fill="#333" d="M51-54c-9 22 5 41 31 30L79-1C43 14 10-4 19-52l22-115H19l5-23h22l19-43h21l-9 43h35l-4 23H73" id="X"/><path fill="#333" d="M44-68c0 29 11 47 38 47 30 0 42-19 51-41l28 9C148-21 126 4 82 4 31 4 10-29 12-85c3-77 74-140 146-93 12 8 15 23 18 40l-31 5c-1-22-13-36-36-36-52 0-65 49-65 101zM85 43c0-13-18-15-31-12L71 0h19L80 17c16 1 28 8 28 24 0 34-40 36-72 32l4-16c19 4 44 4 45-14" id="Y"/><path fill="#333" d="M166-48c-4 18 1 34 23 27l-3 20c-29 8-62 0-52-35h-2C117-14 100 4 64 4 31 4 9-16 9-49c0-68 71-67 138-67 10-26 0-56-31-54-26 1-42 9-47 31l-32-5c8-67 160-71 144 15-5 28-9 54-15 81zM43-50c3 52 80 24 89-6 7-12 7-24 11-38-47 1-103-4-100 44zm150-208c-8 21-15 46-44 47-22 0-30-19-50-21-14 0-21 10-25 21H58c8-21 14-47 44-47 22 0 32 18 50 21 13-1 21-10 25-21h16" id="Z"/><g id="b"><use transform="matrix(0.04938271604938272,0,0,0.04938271604938272,0,0)" xlink:href="#V"/><use transform="matrix(0.04938271604938272,0,0,0.04938271604938272,9.876543209876544,0)" xlink:href="#W"/><use transform="matrix(0.04938271604938272,0,0,0.04938271604938272,13.777777777777779,0)" xlink:href="#T"/><use transform="matrix(0.04938271604938272,0,0,0.04938271604938272,23.654320987654323,0)" xlink:href="#S"/><use transform="matrix(0.04938271604938272,0,0,0.04938271604938272,33.53086419753087,0)" xlink:href="#X"/><use transform="matrix(0.04938271604938272,0,0,0.04938271604938272,38.46913580246914,0)" xlink:href="#T"/><use transform="matrix(0.04938271604938272,0,0,0.04938271604938272,48.345679012345684,0)" xlink:href="#Y"/><use transform="matrix(0.04938271604938272,0,0,0.04938271604938272,57.23456790123457,0)" xlink:href="#Z"/><use transform="matrix(0.04938271604938272,0,0,0.04938271604938272,67.11111111111111,0)" xlink:href="#R"/></g><path fill="#333" d="M44-154l7-36h35l-8 36H44zM14 0l7-36h35L49 0H14" id="aa"/><path fill="#333" d="M111-194c62-3 86 47 72 106H45c-7 38 6 69 45 68 27-1 43-14 53-32l24 11C152-15 129 4 87 4 38 3 12-23 12-71c0-70 32-119 99-123zm44 81c14-66-71-72-95-28-4 8-8 17-11 28h106" id="ab"/><path fill="#333" d="M76-167L44 0H12l33-167H18l4-23h27c3-47 25-81 82-69l-4 24c-35-8-44 15-46 45h37l-5 23H76" id="ac"/><path fill="#333" d="M-28 44V31h207v13H-28" id="ad"/><path fill="#333" d="M238-179c0 84-86 86-175 82L45 0H11l48-248c82 0 179-12 179 69zm-34 1c0-53-64-42-116-43l-19 98c63 0 135 9 135-55" id="ae"/><g id="c"><use transform="matrix(0.04938271604938272,0,0,0.04938271604938272,0,0)" xlink:href="#aa"/><use transform="matrix(0.04938271604938272,0,0,0.04938271604938272,4.938271604938272,0)" xlink:href="#P"/><use transform="matrix(0.04938271604938272,0,0,0.04938271604938272,8.839506172839506,0)" xlink:href="#S"/><use transform="matrix(0.04938271604938272,0,0,0.04938271604938272,18.71604938271605,0)" xlink:href="#X"/><use transform="matrix(0.04938271604938272,0,0,0.04938271604938272,23.654320987654323,0)" xlink:href="#ab"/><use transform="matrix(0.04938271604938272,0,0,0.04938271604938272,33.53086419753087,0)" xlink:href="#U"/><use transform="matrix(0.04938271604938272,0,0,0.04938271604938272,39.40740740740741,0)" xlink:href="#ac"/><use transform="matrix(0.04938271604938272,0,0,0.04938271604938272,44.345679012345684,0)" xlink:href="#T"/><use transform="matrix(0.04938271604938272,0,0,0.04938271604938272,54.22222222222223,0)" xlink:href="#Q"/><use transform="matrix(0.04938271604938272,0,0,0.04938271604938272,63.111111111111114,0)" xlink:href="#ab"/><use transform="matrix(0.04938271604938272,0,0,0.04938271604938272,72.98765432098766,0)" xlink:href="#ad"/><use transform="matrix(0.04938271604938272,0,0,0.04938271604938272,82.8641975308642,0)" xlink:href="#ae"/><use transform="matrix(0.04938271604938272,0,0,0.04938271604938272,94.71604938271605,0)" xlink:href="#U"/><use transform="matrix(0.04938271604938272,0,0,0.04938271604938272,100.5925925925926,0)" xlink:href="#R"/><use transform="matrix(0.04938271604938272,0,0,0.04938271604938272,110.46913580246914,0)" xlink:href="#V"/><use transform="matrix(0.04938271604938272,0,0,0.04938271604938272,120.34567901234568,0)" xlink:href="#U"/><use transform="matrix(0.04938271604938272,0,0,0.04938271604938272,126.22222222222223,0)" xlink:href="#P"/><use transform="matrix(0.04938271604938272,0,0,0.04938271604938272,130.12345679012347,0)" xlink:href="#ab"/><use transform="matrix(0.04938271604938272,0,0,0.04938271604938272,140,0)" xlink:href="#O"/><use transform="matrix(0.04938271604938272,0,0,0.04938271604938272,149.87654320987656,0)" xlink:href="#T"/><use transform="matrix(0.04938271604938272,0,0,0.04938271604938272,159.75308641975312,0)" xlink:href="#O"/><use transform="matrix(0.04938271604938272,0,0,0.04938271604938272,169.62962962962968,0)" xlink:href="#ab"/><path fill="#333" d="M-.9 1.23h181.3v1.3H-.9z"/></g><path fill="#333" d="M194-120c59 52 2 134-86 124-53-6-90-18-98-63l31-7c8 30 29 43 70 43 46 0 84-17 71-62-32-43-135-20-137-98-3-89 178-90 191-16l-30 9c-8-48-127-53-127 5 0 53 81 35 115 65" id="af"/><path fill="#333" d="M-8 0l5-24 140-142H31l5-24h145l-5 24L36-24h119l-5 24H-8" id="ag"/><g id="d"><use transform="matrix(0.04938271604938272,0,0,0.04938271604938272,0,0)" xlink:href="#aa"/><use transform="matrix(0.04938271604938272,0,0,0.04938271604938272,4.938271604938272,0)" xlink:href="#ae"/><use transform="matrix(0.04938271604938272,0,0,0.04938271604938272,16.790123456790127,0)" xlink:href="#U"/><use transform="matrix(0.04938271604938272,0,0,0.04938271604938272,22.66666666666667,0)" xlink:href="#R"/><use transform="matrix(0.04938271604938272,0,0,0.04938271604938272,32.543209876543216,0)" xlink:href="#V"/><use transform="matrix(0.04938271604938272,0,0,0.04938271604938272,42.41975308641976,0)" xlink:href="#U"/><use transform="matrix(0.04938271604938272,0,0,0.04938271604938272,48.296296296296305,0)" xlink:href="#P"/><use transform="matrix(0.04938271604938272,0,0,0.04938271604938272,52.19753086419754,0)" xlink:href="#ab"/><use transform="matrix(0.04938271604938272,0,0,0.04938271604938272,62.074074074074076,0)" xlink:href="#O"/><use transform="matrix(0.04938271604938272,0,0,0.04938271604938272,71.95061728395063,0)" xlink:href="#T"/><use transform="matrix(0.04938271604938272,0,0,0.04938271604938272,81.82716049382718,0)" xlink:href="#O"/><use transform="matrix(0.04938271604938272,0,0,0.04938271604938272,91.70370370370372,0)" xlink:href="#ab"/><use transform="matrix(0.04938271604938272,0,0,0.04938271604938272,101.58024691358028,0)" xlink:href="#af"/><use transform="matrix(0.04938271604938272,0,0,0.04938271604938272,113.4320987654321,0)" xlink:href="#ab"/><use transform="matrix(0.04938271604938272,0,0,0.04938271604938272,123.30864197530865,0)" xlink:href="#U"/><use transform="matrix(0.04938271604938272,0,0,0.04938271604938272,129.1851851851852,0)" xlink:href="#P"/><use transform="matrix(0.04938271604938272,0,0,0.04938271604938272,133.08641975308643,0)" xlink:href="#T"/><use transform="matrix(0.04938271604938272,0,0,0.04938271604938272,142.962962962963,0)" xlink:href="#W"/><use transform="matrix(0.04938271604938272,0,0,0.04938271604938272,146.86419753086423,0)" xlink:href="#P"/><use transform="matrix(0.04938271604938272,0,0,0.04938271604938272,150.76543209876547,0)" xlink:href="#ag"/><use transform="matrix(0.04938271604938272,0,0,0.04938271604938272,159.65432098765436,0)" xlink:href="#ab"/><use transform="matrix(0.04938271604938272,0,0,0.04938271604938272,169.5308641975309,0)" xlink:href="#U"/><path fill="#333" d="M-.9 1.23h177.2v1.3H-.9z"/></g><path fill="#333" d="M67 3c-93-2-31-127-26-193h32L48-50c-3 39 53 32 70 12 30-34 30-101 43-152h32L157 0h-30c1-10 6-24 4-33-14 20-29 37-64 36" id="ah"/><g id="e"><use transform="matrix(0.04938271604938272,0,0,0.04938271604938272,0,0)" xlink:href="#ae"/><use transform="matrix(0.04938271604938272,0,0,0.04938271604938272,11.851851851851853,0)" xlink:href="#U"/><use transform="matrix(0.04938271604938272,0,0,0.04938271604938272,17.728395061728396,0)" xlink:href="#R"/><use transform="matrix(0.04938271604938272,0,0,0.04938271604938272,27.60493827160494,0)" xlink:href="#O"/><use transform="matrix(0.04938271604938272,0,0,0.04938271604938272,37.48148148148148,0)" xlink:href="#ah"/><use transform="matrix(0.04938271604938272,0,0,0.04938271604938272,47.358024691358025,0)" xlink:href="#X"/><use transform="matrix(0.04938271604938272,0,0,0.04938271604938272,52.2962962962963,0)" xlink:href="#R"/><use transform="matrix(0.04938271604938272,0,0,0.04938271604938272,62.17283950617284,0)" xlink:href="#U"/></g><path fill="#333" d="M9 0l6-27h63l36-188-63 39 6-31 66-41h29L110-27h60l-5 27H9" id="ai"/><g id="g"><use transform="matrix(0.04938271604938272,0,0,0.04938271604938272,0,0)" xlink:href="#ai"/><use transform="matrix(0.04938271604938272,0,0,0.04938271604938272,9.876543209876544,0)" xlink:href="#aa"/></g><path fill="#333" d="M14 0l48-248h34L48 0H14" id="aj"/><path fill="#333" d="M248-111c6-24 9-61-24-58-72 9-57 108-77 169h-31l26-142c3-37-50-30-64-10C52-115 50-51 37 0H6l36-190h30c-1 10-6 24-4 32 13-43 101-52 105 5 13-22 29-41 61-41 90 0 28 129 23 194h-31" id="ak"/><g id="h"><use transform="matrix(0.04938271604938272,0,0,0.04938271604938272,0,0)" xlink:href="#aj"/><use transform="matrix(0.04938271604938272,0,0,0.04938271604938272,4.938271604938272,0)" xlink:href="#S"/><use transform="matrix(0.04938271604938272,0,0,0.04938271604938272,14.814814814814817,0)" xlink:href="#ac"/><use transform="matrix(0.04938271604938272,0,0,0.04938271604938272,19.75308641975309,0)" xlink:href="#R"/><use transform="matrix(0.04938271604938272,0,0,0.04938271604938272,29.629629629629633,0)" xlink:href="#U"/><use transform="matrix(0.04938271604938272,0,0,0.04938271604938272,35.50617283950618,0)" xlink:href="#ak"/><use transform="matrix(0.04938271604938272,0,0,0.04938271604938272,50.27160493827161,0)" xlink:href="#T"/></g><path fill="#333" d="M55-144c13 50 104 24 104 88C159 21 15 23 1-39l26-10c6 40 102 42 102-4-13-50-104-23-104-87 0-71 143-71 148-8l-29 4c-5-35-85-37-89 0" id="al"/><g id="i"><use transform="matrix(0.04938271604938272,0,0,0.04938271604938272,0,0)" xlink:href="#O"/><use transform="matrix(0.04938271604938272,0,0,0.04938271604938272,9.876543209876544,0)" xlink:href="#T"/><use transform="matrix(0.04938271604938272,0,0,0.04938271604938272,19.75308641975309,0)" xlink:href="#O"/><use transform="matrix(0.04938271604938272,0,0,0.04938271604938272,29.629629629629633,0)" xlink:href="#R"/><use transform="matrix(0.04938271604938272,0,0,0.04938271604938272,39.50617283950618,0)" xlink:href="#al"/></g><g id="j"><use transform="matrix(0.04938271604938272,0,0,0.04938271604938272,0,0)" xlink:href="#O"/><use transform="matrix(0.04938271604938272,0,0,0.04938271604938272,9.876543209876544,0)" xlink:href="#T"/></g><g id="k"><use transform="matrix(0.04938271604938272,0,0,0.04938271604938272,0,0)" xlink:href="#al"/><use transform="matrix(0.04938271604938272,0,0,0.04938271604938272,8.88888888888889,0)" xlink:href="#ah"/><use transform="matrix(0.04938271604938272,0,0,0.04938271604938272,18.765432098765434,0)" xlink:href="#T"/></g><g id="l"><use transform="matrix(0.04938271604938272,0,0,0.04938271604938272,0,0)" xlink:href="#V"/><use transform="matrix(0.04938271604938272,0,0,0.04938271604938272,9.876543209876544,0)" xlink:href="#U"/><use transform="matrix(0.04938271604938272,0,0,0.04938271604938272,15.753086419753087,0)" xlink:href="#R"/><use transform="matrix(0.04938271604938272,0,0,0.04938271604938272,25.629629629629633,0)" xlink:href="#V"/><use transform="matrix(0.04938271604938272,0,0,0.04938271604938272,35.50617283950618,0)" xlink:href="#U"/><use transform="matrix(0.04938271604938272,0,0,0.04938271604938272,41.38271604938272,0)" xlink:href="#P"/><use transform="matrix(0.04938271604938272,0,0,0.04938271604938272,45.283950617283956,0)" xlink:href="#ab"/><use transform="matrix(0.04938271604938272,0,0,0.04938271604938272,55.1604938271605,0)" xlink:href="#O"/><use transform="matrix(0.04938271604938272,0,0,0.04938271604938272,65.03703703703704,0)" xlink:href="#T"/><use transform="matrix(0.04938271604938272,0,0,0.04938271604938272,74.91358024691358,0)" xlink:href="#O"/><use transform="matrix(0.04938271604938272,0,0,0.04938271604938272,84.79012345679013,0)" xlink:href="#ab"/></g><g id="m"><use transform="matrix(0.04938271604938272,0,0,0.04938271604938272,0,0)" xlink:href="#aa"/><use transform="matrix(0.04938271604938272,0,0,0.04938271604938272,4.938271604938272,0)" xlink:href="#ae"/><use transform="matrix(0.04938271604938272,0,0,0.04938271604938272,16.790123456790127,0)" xlink:href="#U"/><use transform="matrix(0.04938271604938272,0,0,0.04938271604938272,22.66666666666667,0)" xlink:href="#R"/><use transform="matrix(0.04938271604938272,0,0,0.04938271604938272,32.543209876543216,0)" xlink:href="#V"/><use transform="matrix(0.04938271604938272,0,0,0.04938271604938272,42.41975308641976,0)" xlink:href="#U"/><use transform="matrix(0.04938271604938272,0,0,0.04938271604938272,48.296296296296305,0)" xlink:href="#P"/><use transform="matrix(0.04938271604938272,0,0,0.04938271604938272,52.19753086419754,0)" xlink:href="#ab"/><use transform="matrix(0.04938271604938272,0,0,0.04938271604938272,62.074074074074076,0)" xlink:href="#O"/><use transform="matrix(0.04938271604938272,0,0,0.04938271604938272,71.95061728395063,0)" xlink:href="#T"/><use transform="matrix(0.04938271604938272,0,0,0.04938271604938272,81.82716049382718,0)" xlink:href="#O"/><use transform="matrix(0.04938271604938272,0,0,0.04938271604938272,91.70370370370372,0)" xlink:href="#ab"/><path fill="#333" d="M-.9 1.23h103.37v1.3H-.9z"/></g><g id="n"><use transform="matrix(0.04938271604938272,0,0,0.04938271604938272,0,0)" xlink:href="#aa"/><use transform="matrix(0.04938271604938272,0,0,0.04938271604938272,4.938271604938272,0)" xlink:href="#ae"/><use transform="matrix(0.04938271604938272,0,0,0.04938271604938272,16.790123456790127,0)" xlink:href="#W"/><use transform="matrix(0.04938271604938272,0,0,0.04938271604938272,20.69135802469136,0)" xlink:href="#T"/><use transform="matrix(0.04938271604938272,0,0,0.04938271604938272,30.567901234567906,0)" xlink:href="#S"/><use transform="matrix(0.04938271604938272,0,0,0.04938271604938272,40.44444444444445,0)" xlink:href="#X"/><use transform="matrix(0.04938271604938272,0,0,0.04938271604938272,45.38271604938272,0)" xlink:href="#P"/><use transform="matrix(0.04938271604938272,0,0,0.04938271604938272,49.283950617283956,0)" xlink:href="#R"/><use transform="matrix(0.04938271604938272,0,0,0.04938271604938272,59.1604938271605,0)" xlink:href="#af"/><use transform="matrix(0.04938271604938272,0,0,0.04938271604938272,71.01234567901236,0)" xlink:href="#ab"/><use transform="matrix(0.04938271604938272,0,0,0.04938271604938272,80.8888888888889,0)" xlink:href="#U"/><use transform="matrix(0.04938271604938272,0,0,0.04938271604938272,86.76543209876544,0)" xlink:href="#P"/><use transform="matrix(0.04938271604938272,0,0,0.04938271604938272,90.66666666666669,0)" xlink:href="#T"/><use transform="matrix(0.04938271604938272,0,0,0.04938271604938272,100.54320987654323,0)" xlink:href="#W"/><use transform="matrix(0.04938271604938272,0,0,0.04938271604938272,104.44444444444447,0)" xlink:href="#P"/><use transform="matrix(0.04938271604938272,0,0,0.04938271604938272,108.34567901234571,0)" xlink:href="#ag"/><use transform="matrix(0.04938271604938272,0,0,0.04938271604938272,117.2345679012346,0)" xlink:href="#ab"/><use transform="matrix(0.04938271604938272,0,0,0.04938271604938272,127.11111111111114,0)" xlink:href="#U"/><path fill="#333" d="M-.9 1.23H133.9v1.3H-.9z"/></g><g id="o"><use transform="matrix(0.04938271604938272,0,0,0.04938271604938272,0,0)" xlink:href="#aa"/><use transform="matrix(0.04938271604938272,0,0,0.04938271604938272,4.938271604938272,0)" xlink:href="#ae"/><use transform="matrix(0.04938271604938272,0,0,0.04938271604938272,16.790123456790127,0)" xlink:href="#W"/><use transform="matrix(0.04938271604938272,0,0,0.04938271604938272,20.69135802469136,0)" xlink:href="#T"/><use transform="matrix(0.04938271604938272,0,0,0.04938271604938272,30.567901234567906,0)" xlink:href="#S"/><use transform="matrix(0.04938271604938272,0,0,0.04938271604938272,40.44444444444445,0)" xlink:href="#X"/><use transform="matrix(0.04938271604938272,0,0,0.04938271604938272,45.38271604938272,0)" xlink:href="#P"/><use transform="matrix(0.04938271604938272,0,0,0.04938271604938272,49.283950617283956,0)" xlink:href="#R"/><path fill="#333" d="M-.9 1.23h60.95v1.3H-.9z"/></g><path fill="#333" d="M127-220V0H93v-220H8v-28h204v28h-85" id="am"/><path fill="#333" d="M100-194c63 0 86 42 84 106H49c0 40 14 67 53 68 26 1 43-12 49-29l28 8c-11 28-37 45-77 45C44 4 14-33 15-96c1-61 26-98 85-98zm52 81c6-60-76-77-97-28-3 7-6 17-6 28h103" id="an"/><path fill="#333" d="M210-169c-67 3-38 105-44 169h-31v-121c0-29-5-50-35-48C34-165 62-65 56 0H25l-1-190h30c1 10-1 24 2 32 10-44 99-50 107 0 11-21 27-35 58-36 85-2 47 119 55 194h-31v-121c0-29-5-49-35-48" id="ao"/><g id="p"><use transform="matrix(0.05,0,0,0.05,0,0)" xlink:href="#am"/><use transform="matrix(0.05,0,0,0.05,8.950000000000001,0)" xlink:href="#an"/><use transform="matrix(0.05,0,0,0.05,18.950000000000003,0)" xlink:href="#ao"/></g><path fill="#333" d="M135-143c-3-34-86-38-87 0 15 53 115 12 119 90S17 21 10-45l28-5c4 36 97 45 98 0-10-56-113-15-118-90-4-57 82-63 122-42 12 7 21 19 24 35" id="ap"/><path fill="#333" d="M84 4C-5 8 30-112 23-190h32v120c0 31 7 50 39 49 72-2 45-101 50-169h31l1 190h-30c-1-10 1-25-2-33-11 22-28 36-60 37" id="aq"/><path fill="#333" d="M141-36C126-15 110 5 73 4 37 3 15-17 15-53c-1-64 63-63 125-63 3-35-9-54-41-54-24 1-41 7-42 31l-33-3c5-37 33-52 76-52 45 0 72 20 72 64v82c-1 20 7 32 28 27v20c-31 9-61-2-59-35zM48-53c0 20 12 33 32 33 41-3 63-29 60-74-43 2-92-5-92 41" id="ar"/><g id="q"><use transform="matrix(0.05,0,0,0.05,0,0)" xlink:href="#ap"/><use transform="matrix(0.05,0,0,0.05,9,0)" xlink:href="#aq"/><use transform="matrix(0.05,0,0,0.05,19,0)" xlink:href="#ar"/></g><path fill="#333" d="M115-194c55 1 70 41 70 98S169 2 115 4C84 4 66-9 55-30l1 105H24l-1-265h31l2 30c10-21 28-34 59-34zm-8 174c40 0 45-34 45-75s-6-73-45-74c-42 0-51 32-51 76 0 43 10 73 51 73" id="as"/><path fill="#333" d="M114-163C36-179 61-72 57 0H25l-1-190h30c1 12-1 29 2 39 6-27 23-49 58-41v29" id="at"/><path fill="#333" d="M100-194c62-1 85 37 85 99 1 63-27 99-86 99S16-35 15-95c0-66 28-99 85-99zM99-20c44 1 53-31 53-75 0-43-8-75-51-75s-53 32-53 75 10 74 51 75" id="au"/><path fill="#333" d="M24-231v-30h32v30H24zM24 0v-190h32V0H24" id="av"/><path fill="#333" d="M85-194c31 0 48 13 60 33l-1-100h32l1 261h-30c-2-10 0-23-3-31C134-8 116 4 85 4 32 4 16-35 15-94c0-66 23-100 70-100zm9 24c-40 0-46 34-46 75 0 40 6 74 45 74 42 0 51-32 51-76 0-42-9-74-50-73" id="aw"/><g id="r"><use transform="matrix(0.05,0,0,0.05,0,0)" xlink:href="#as"/><use transform="matrix(0.05,0,0,0.05,10,0)" xlink:href="#at"/><use transform="matrix(0.05,0,0,0.05,15.949999999999998,0)" xlink:href="#au"/><use transform="matrix(0.05,0,0,0.05,25.950000000000003,0)" xlink:href="#as"/><use transform="matrix(0.05,0,0,0.05,35.95,0)" xlink:href="#at"/><use transform="matrix(0.05,0,0,0.05,41.900000000000006,0)" xlink:href="#av"/><use transform="matrix(0.05,0,0,0.05,45.85000000000001,0)" xlink:href="#an"/><use transform="matrix(0.05,0,0,0.05,55.85,0)" xlink:href="#aw"/><use transform="matrix(0.05,0,0,0.05,65.85000000000001,0)" xlink:href="#ar"/><use transform="matrix(0.05,0,0,0.05,75.85000000000001,0)" xlink:href="#aw"/><use transform="matrix(0.05,0,0,0.05,85.85000000000001,0)" xlink:href="#an"/></g><path fill="#333" d="M59-47c-2 24 18 29 38 22v24C64 9 27 4 27-40v-127H5v-23h24l9-43h21v43h35v23H59v120" id="ax"/><path fill="#333" d="M115-194c53 0 69 39 70 98 0 66-23 100-70 100C84 3 66-7 56-30L54 0H23l1-261h32v101c10-23 28-34 59-34zm-8 174c40 0 45-34 45-75 0-40-5-75-45-74-42 0-51 32-51 76 0 43 10 73 51 73" id="ay"/><path fill="#333" d="M34 0v-190h32V0H34zM24-211c8-23 27-35 38-54h36v5l-58 49H24" id="az"/><g id="s"><use transform="matrix(0.05,0,0,0.05,0,0)" xlink:href="#ar"/><use transform="matrix(0.05,0,0,0.05,10,0)" xlink:href="#ax"/><use transform="matrix(0.05,0,0,0.05,15,0)" xlink:href="#at"/><use transform="matrix(0.05,0,0,0.05,20.95,0)" xlink:href="#av"/><use transform="matrix(0.05,0,0,0.05,24.9,0)" xlink:href="#ay"/><use transform="matrix(0.05,0,0,0.05,34.9,0)" xlink:href="#aq"/><use transform="matrix(0.05,0,0,0.05,44.9,0)" xlink:href="#az"/><use transform="matrix(0.05,0,0,0.05,49.9,0)" xlink:href="#aw"/><use transform="matrix(0.05,0,0,0.05,59.900000000000006,0)" xlink:href="#ar"/></g><use transform="matrix(0.05,0,0,0.05,0,0)" xlink:href="#ar" id="t"/><path fill="#333" d="M24 0v-261h32V0H24" id="aA"/><g id="u"><use transform="matrix(0.05,0,0,0.05,0,0)" xlink:href="#an"/><use transform="matrix(0.05,0,0,0.05,10,0)" xlink:href="#aA"/><use transform="matrix(0.05,0,0,0.05,13.949999999999998,0)" xlink:href="#an"/></g><path fill="#333" d="M117-194c89-4 53 116 60 194h-32v-121c0-31-8-49-39-48C34-167 62-67 57 0H25l-1-190h30c1 10-1 24 2 32 11-22 29-35 61-36" id="aB"/><g id="v"><use transform="matrix(0.05,0,0,0.05,0,0)" xlink:href="#aB"/><use transform="matrix(0.05,0,0,0.05,10,0)" xlink:href="#au"/></g><g id="w"><use transform="matrix(0.05,0,0,0.05,0,0)" xlink:href="#ap"/><use transform="matrix(0.05,0,0,0.05,9,0)" xlink:href="#av"/><use transform="matrix(0.05,0,0,0.05,12.949999999999998,0)" xlink:href="#ap"/><use transform="matrix(0.05,0,0,0.05,21.95,0)" xlink:href="#ax"/><use transform="matrix(0.05,0,0,0.05,26.950000000000003,0)" xlink:href="#an"/><use transform="matrix(0.05,0,0,0.05,36.95,0)" xlink:href="#ao"/><use transform="matrix(0.05,0,0,0.05,51.900000000000006,0)" xlink:href="#ar"/></g><path fill="#333" d="M27 0v-27h64v-190l-56 39v-29l58-41h29v221h61V0H27" id="aC"/><path fill="#333" d="M33 0v-38h34V0H33" id="aD"/><path fill="#333" d="M33-154v-36h34v36H33zM33 0v-36h34V0H33" id="aE"/><g id="x"><use transform="matrix(0.05,0,0,0.05,0,0)" xlink:href="#aC"/><use transform="matrix(0.05,0,0,0.05,10,0)" xlink:href="#aD"/><use transform="matrix(0.05,0,0,0.05,15,0)" xlink:href="#aC"/><use transform="matrix(0.05,0,0,0.05,25,0)" xlink:href="#aE"/></g><path fill="#333" d="M96-169c-40 0-48 33-48 73s9 75 48 75c24 0 41-14 43-38l32 2c-6 37-31 61-74 61-59 0-76-41-82-99-10-93 101-131 147-64 4 7 5 14 7 22l-32 3c-4-21-16-35-41-35" id="aF"/><path fill="#333" d="M30-248c87 1 191-15 191 75 0 78-77 80-158 76V0H30v-248zm33 125c57 0 124 11 124-50 0-59-68-47-124-48v98" id="aG"/><path fill="#333" d="M87 75C49 33 22-17 22-94c0-76 28-126 65-167h31c-38 41-64 92-64 168S80 34 118 75H87" id="aH"/><path fill="#333" d="M33-261c38 41 65 92 65 168S71 34 33 75H2C39 34 66-17 66-93S39-220 2-261h31" id="aI"/><g id="y"><use transform="matrix(0.05,0,0,0.05,0,0)" xlink:href="#aF"/><use transform="matrix(0.05,0,0,0.05,9,0)" xlink:href="#at"/><use transform="matrix(0.05,0,0,0.05,14.949999999999998,0)" xlink:href="#an"/><use transform="matrix(0.05,0,0,0.05,24.95,0)" xlink:href="#ar"/><use transform="matrix(0.05,0,0,0.05,34.95,0)" xlink:href="#ax"/><use transform="matrix(0.05,0,0,0.05,39.95,0)" xlink:href="#an"/><use transform="matrix(0.05,0,0,0.05,49.95,0)" xlink:href="#aG"/><use transform="matrix(0.05,0,0,0.05,61.95,0)" xlink:href="#at"/><use transform="matrix(0.05,0,0,0.05,67.9,0)" xlink:href="#au"/><use transform="matrix(0.05,0,0,0.05,77.9,0)" xlink:href="#as"/><use transform="matrix(0.05,0,0,0.05,87.9,0)" xlink:href="#at"/><use transform="matrix(0.05,0,0,0.05,93.85000000000001,0)" xlink:href="#av"/><use transform="matrix(0.05,0,0,0.05,97.80000000000001,0)" xlink:href="#an"/><use transform="matrix(0.05,0,0,0.05,107.80000000000001,0)" xlink:href="#aw"/><use transform="matrix(0.05,0,0,0.05,117.80000000000001,0)" xlink:href="#ar"/><use transform="matrix(0.05,0,0,0.05,127.80000000000001,0)" xlink:href="#aw"/><use transform="matrix(0.05,0,0,0.05,137.8,0)" xlink:href="#an"/><use transform="matrix(0.05,0,0,0.05,147.8,0)" xlink:href="#aH"/><use transform="matrix(0.05,0,0,0.05,153.75,0)" xlink:href="#aI"/></g><g id="z"><use transform="matrix(0.05,0,0,0.05,0,0)" xlink:href="#at"/><use transform="matrix(0.05,0,0,0.05,5.95,0)" xlink:href="#an"/><use transform="matrix(0.05,0,0,0.05,15.949999999999998,0)" xlink:href="#ax"/><use transform="matrix(0.05,0,0,0.05,20.95,0)" xlink:href="#au"/><use transform="matrix(0.05,0,0,0.05,30.950000000000003,0)" xlink:href="#at"/><use transform="matrix(0.05,0,0,0.05,36.9,0)" xlink:href="#aB"/><use transform="matrix(0.05,0,0,0.05,46.9,0)" xlink:href="#au"/></g><path fill="#333" d="M101-251c82-7 93 87 43 132L82-64C71-53 59-42 53-27h129V0H18c2-99 128-94 128-182 0-28-16-43-45-43s-46 15-49 41l-32-3c6-41 34-60 81-64" id="aJ"/><g id="A"><use transform="matrix(0.05,0,0,0.05,0,0)" xlink:href="#aC"/><use transform="matrix(0.05,0,0,0.05,10,0)" xlink:href="#aD"/><use transform="matrix(0.05,0,0,0.05,15,0)" xlink:href="#aJ"/><use transform="matrix(0.05,0,0,0.05,25,0)" xlink:href="#aE"/></g><g id="B"><use transform="matrix(0.05,0,0,0.05,0,0)" xlink:href="#aF"/><use transform="matrix(0.05,0,0,0.05,9,0)" xlink:href="#at"/><use transform="matrix(0.05,0,0,0.05,14.949999999999998,0)" xlink:href="#an"/><use transform="matrix(0.05,0,0,0.05,24.95,0)" xlink:href="#ar"/><use transform="matrix(0.05,0,0,0.05,34.95,0)" xlink:href="#ax"/><use transform="matrix(0.05,0,0,0.05,39.95,0)" xlink:href="#an"/><use transform="matrix(0.05,0,0,0.05,49.95,0)" xlink:href="#aH"/><use transform="matrix(0.05,0,0,0.05,55.900000000000006,0)" xlink:href="#aI"/></g><path fill="#333" d="M155-56V0h-30v-56H8v-25l114-167h33v167h35v25h-35zm-30-156c-27 46-58 90-88 131h88v-131" id="aK"/><g id="C"><use transform="matrix(0.05,0,0,0.05,0,0)" xlink:href="#aC"/><use transform="matrix(0.05,0,0,0.05,10,0)" xlink:href="#aD"/><use transform="matrix(0.05,0,0,0.05,15,0)" xlink:href="#aK"/><use transform="matrix(0.05,0,0,0.05,25,0)" xlink:href="#aE"/></g><path fill="#333" d="M33 0v-248h34V0H33" id="aL"/><path fill="#333" d="M101-234c-31-9-42 10-38 44h38v23H63V0H32v-167H5v-23h27c-7-52 17-82 69-68v24" id="aM"/><g id="D"><use transform="matrix(0.05,0,0,0.05,0,0)" xlink:href="#aL"/><use transform="matrix(0.05,0,0,0.05,5,0)" xlink:href="#aB"/><use transform="matrix(0.05,0,0,0.05,15,0)" xlink:href="#aM"/><use transform="matrix(0.05,0,0,0.05,20,0)" xlink:href="#au"/><use transform="matrix(0.05,0,0,0.05,30,0)" xlink:href="#aG"/><use transform="matrix(0.05,0,0,0.05,42,0)" xlink:href="#aA"/><use transform="matrix(0.05,0,0,0.05,45.95,0)" xlink:href="#ar"/><use transform="matrix(0.05,0,0,0.05,55.95,0)" xlink:href="#aB"/><use transform="matrix(0.05,0,0,0.05,65.95,0)" xlink:href="#at"/><use transform="matrix(0.05,0,0,0.05,71.9,0)" xlink:href="#ax"/><use transform="matrix(0.05,0,0,0.05,76.9,0)" xlink:href="#av"/><use transform="matrix(0.05,0,0,0.05,80.85000000000001,0)" xlink:href="#au"/><use transform="matrix(0.05,0,0,0.05,90.85000000000001,0)" xlink:href="#aH"/><use transform="matrix(0.05,0,0,0.05,96.80000000000001,0)" xlink:href="#aI"/></g><path fill="#333" d="M126-127c33 6 58 20 58 59 0 88-139 92-164 29-3-8-5-16-6-25l32-3c6 27 21 44 54 44 32 0 52-15 52-46 0-38-36-46-79-43v-28c39 1 72-4 72-42 0-27-17-43-46-43-28 0-47 15-49 41l-32-3c6-42 35-63 81-64 48-1 79 21 79 65 0 36-21 52-52 59" id="aN"/><g id="E"><use transform="matrix(0.05,0,0,0.05,0,0)" xlink:href="#aC"/><use transform="matrix(0.05,0,0,0.05,10,0)" xlink:href="#aD"/><use transform="matrix(0.05,0,0,0.05,15,0)" xlink:href="#aN"/><use transform="matrix(0.05,0,0,0.05,25,0)" xlink:href="#aE"/></g><g id="F"><use transform="matrix(0.05,0,0,0.05,0,0)" xlink:href="#aL"/><use transform="matrix(0.05,0,0,0.05,5,0)" xlink:href="#aB"/><use transform="matrix(0.05,0,0,0.05,15,0)" xlink:href="#aM"/><use transform="matrix(0.05,0,0,0.05,20,0)" xlink:href="#au"/><use transform="matrix(0.05,0,0,0.05,30,0)" xlink:href="#at"/><use transform="matrix(0.05,0,0,0.05,35.95,0)" xlink:href="#ao"/><use transform="matrix(0.05,0,0,0.05,50.900000000000006,0)" xlink:href="#ar"/></g><g id="G"><use transform="matrix(0.05,0,0,0.05,0,0)" xlink:href="#aw"/><use transform="matrix(0.05,0,0,0.05,10,0)" xlink:href="#ar"/><use transform="matrix(0.05,0,0,0.05,20,0)" xlink:href="#aw"/><use transform="matrix(0.05,0,0,0.05,30,0)" xlink:href="#au"/><use transform="matrix(0.05,0,0,0.05,40,0)" xlink:href="#ap"/></g><g id="H"><use transform="matrix(0.05,0,0,0.05,0,0)" xlink:href="#aw"/><use transform="matrix(0.05,0,0,0.05,10,0)" xlink:href="#au"/></g><g id="I"><use transform="matrix(0.05,0,0,0.05,0,0)" xlink:href="#as"/><use transform="matrix(0.05,0,0,0.05,10,0)" xlink:href="#aA"/><use transform="matrix(0.05,0,0,0.05,13.949999999999998,0)" xlink:href="#ar"/><use transform="matrix(0.05,0,0,0.05,23.95,0)" xlink:href="#aB"/><use transform="matrix(0.05,0,0,0.05,33.95,0)" xlink:href="#ax"/><use transform="matrix(0.05,0,0,0.05,38.95,0)" xlink:href="#av"/><use transform="matrix(0.05,0,0,0.05,42.900000000000006,0)" xlink:href="#au"/></g><g id="J"><use transform="matrix(0.05,0,0,0.05,0,0)" xlink:href="#aq"/><use transform="matrix(0.05,0,0,0.05,10,0)" xlink:href="#ao"/></g><g id="K"><use transform="matrix(0.05,0,0,0.05,0,0)" xlink:href="#as"/><use transform="matrix(0.05,0,0,0.05,10,0)" xlink:href="#aA"/><use transform="matrix(0.05,0,0,0.05,13.949999999999998,0)" xlink:href="#ar"/><use transform="matrix(0.05,0,0,0.05,23.95,0)" xlink:href="#aB"/><use transform="matrix(0.05,0,0,0.05,33.95,0)" xlink:href="#ax"/><use transform="matrix(0.05,0,0,0.05,38.95,0)" xlink:href="#av"/><use transform="matrix(0.05,0,0,0.05,42.900000000000006,0)" xlink:href="#au"/></g><g id="L"><use transform="matrix(0.05,0,0,0.05,0,0)" xlink:href="#ar"/><use transform="matrix(0.05,0,0,0.05,10,0)" xlink:href="#ax"/><use transform="matrix(0.05,0,0,0.05,15,0)" xlink:href="#at"/><use transform="matrix(0.05,0,0,0.05,20.95,0)" xlink:href="#av"/><use transform="matrix(0.05,0,0,0.05,24.9,0)" xlink:href="#ay"/><use transform="matrix(0.05,0,0,0.05,34.9,0)" xlink:href="#aq"/><use transform="matrix(0.05,0,0,0.05,44.9,0)" xlink:href="#av"/><use transform="matrix(0.05,0,0,0.05,48.85,0)" xlink:href="#aw"/><use transform="matrix(0.05,0,0,0.05,58.85,0)" xlink:href="#au"/></g><path fill="#333" d="M54-142c48-35 137-8 131 61C196 18 31 33 14-55l32-4c7 23 22 37 52 37 35-1 51-22 54-58 4-55-73-65-99-34H22l8-134h141v27H59" id="aO"/><g id="M"><use transform="matrix(0.05,0,0,0.05,0,0)" xlink:href="#aC"/><use transform="matrix(0.05,0,0,0.05,10,0)" xlink:href="#aD"/><use transform="matrix(0.05,0,0,0.05,15,0)" xlink:href="#aO"/><use transform="matrix(0.05,0,0,0.05,25,0)" xlink:href="#aE"/></g></defs></g></svg>