<svg xmlns="http://www.w3.org/2000/svg" xmlns:xlink="http://www.w3.org/1999/xlink" xmlns:lucid="lucid" width="1420" height="1000"><g transform="translate(-240 -180)" lucid:page-tab-id="0_0"><path d="M0 0h2320v1898.46H0z" fill="#fff"/><path d="M260 208c0-4.42 3.58-8 8-8h204c4.42 0 8 3.58 8 8v4.93c0 3.9-2.24 9.3-5 12.07-2.76 2.76-8.17 5-12.07 5H268c-4.42 0-8-3.58-8-8z" fill="#fff"/><path d="M480 200v20l-10 10H260" stroke="#333" fill="none"/><path d="M260 208c0-4.42 3.58-8 8-8h1364c4.42 0 8 3.58 8 8v944c0 4.42-3.58 8-8 8H268c-4.42 0-8-3.58-8-8z" stroke="#333" fill="none"/><use xlink:href="#a" transform="matrix(1,0,0,1,268,200) translate(23.148148148148138 18.555555555555557)"/><use xlink:href="#b" transform="matrix(1,0,0,1,268,200) translate(84.18518518518519 18.555555555555557)"/><path d="M702.9 342.5l.02 9.9m0 9.88v19.8m.02 9.88v19.78m0 9.9l.02 19.78m0 9.9v19.77m.02 9.88v19.8m0 9.88l.02 19.78m0 9.9l.02 19.78m0 9.9v19.77m.02 9.88v19.8m0 9.88l.02 19.78m0 9.9l.02 19.78m0 9.9v19.77m0 9.9l.02 19.77m0 9.9l.02 19.77m0 9.9v19.78m.02 9.9v19.77m0 9.9l.02 19.77m0 9.9l.02 19.77m0 9.9v19.78m.02 9.9v19.77m0 9.9l.02 19.77m0 9.9v19.77m.02 9.9v19.78m0 9.9l.02 19.78m0 9.9l.02 19.77m0 9.9v9.88" stroke="#333" fill="none"/><path d="M703.4 342.5h-1v-.5h1z" stroke="#333" stroke-width=".05" fill="#333"/><path d="M703.3 1114.04v3.5" stroke="#333" fill="none"/><path d="M679.76 488c0-4.42 3.58-8 8-8h24c4.42 0 8 3.58 8 8v284c0 4.42-3.58 8-8 8h-24c-4.42 0-8-3.58-8-8z" stroke="#f2f2f2" fill="#ced4db"/><path d="M1057.1 340.5v10.2m0 10.2v20.43m0 10.2v20.4m0 10.22v20.4m0 10.22v20.4m0 10.22v20.4m0 10.2v20.42m0 10.2v20.42m0 10.2v20.42m0 10.2v20.42m0 10.2v20.4m0 10.22v20.4m0 10.22v20.4m0 10.22v10.2l.4 1.03 1.04.43 1.03.43.43 1.03v10.2m0 10.2v20.42m0 10.2v20.42m0 10.2v20.42m0 10.2v20.42m0 10.2v20.42m0 10.2v20.4m0 10.22v20.4m0 10.22v20.4m0 10.22v20.4m0 10.22v20.4m0 10.22v20.4m0 10.2v20.43m0 10.2v10.2" stroke="#333" fill="none"/><path d="M1057.6 340.5h-1v-.5h1z" stroke="#333" stroke-width=".05" fill="#333"/><path d="M1060 1139.5v.5" stroke="#333" fill="none"/><path d="M660 1088c0-4.42 3.58-8 8-8h70.57c4.42 0 8 3.58 8 8v64c0 4.42-3.58 8-8 8H668c-4.42 0-8-3.58-8-8z" fill="none"/><path d="M668.66 1088l69.26 64m0-64l-69.26 64" stroke="#5d646f" stroke-width="8" fill="none"/><path d="M1040 548c0-4.42 3.58-8 8-8h24c4.42 0 8 3.58 8 8v184c0 4.42-3.58 8-8 8h-24c-4.42 0-8-3.58-8-8z" stroke="#f2f2f2" fill="#ced4db"/><path d="M565.82 228c0-4.42 3.6-8 8-8H832c4.42 0 8 3.58 8 8v106c0 4.42-3.58 8-8 8H573.82c-4.4 0-8-3.58-8-8z" stroke="#000" stroke-opacity="0" fill="#ffaf28"/><use xlink:href="#c" transform="matrix(1,0,0,1,573.824160813123,228) translate(62.75925925925927 56.55555555555555)"/><path d="M920 228c0-4.42 3.58-8 8-8h258.18c4.4 0 8 3.58 8 8v104c0 4.42-3.6 8-8 8H928c-4.42 0-8-3.58-8-8z" stroke="#000" stroke-opacity="0" fill="#ffcc78"/><use xlink:href="#d" transform="matrix(1,0,0,1,928,228) translate(59.87037037037037 55.55555555555555)"/><path d="M403.4 277.42c0 10.9-8.84 19.75-19.75 19.75-10.9 0-19.75-8.85-19.75-19.75s8.84-19.75 19.75-19.75c10.9 0 19.75 8.84 19.75 19.75z" stroke="#333" fill="#fff"/><path d="M383.65 297.17v47.3c0 4.4 1.92 11.02 4.28 14.76l35.72 56.44m-40-63.2l-40 63.2m0-98.75h80" stroke="#333" fill="none"/><path d="M343.65 265.67c0-4.42 3.58-8 8-8h64c4.42 0 8 3.58 8 8v164c0 4.4-3.58 8-8 8h-64c-4.42 0-8-3.6-8-8z" fill="none"/><use xlink:href="#e" transform="matrix(1,0,0,1,263.6496896262572,415.6655519423589) translate(88.93827160493827 14.555555555555555)"/><path d="M384.15 353.4l2.06.85.86 2.06v9.95m0 9.94v19.88m0 9.94v19.88m0 9.94v19.9m0 9.93v19.88m0 9.95v19.88m0 9.94v19.88m0 9.95v19.88m0 9.94v19.9m0 9.93v19.88m0 9.94v19.9m0 9.93v19.88m0 9.95v19.88m0 9.94V754m0 9.93v19.88m0 9.95v19.9m0 9.93v19.88m0 9.94v19.9m0 9.93v19.88m0 9.96v19.88m0 9.94v19.9m0 9.93v19.9m0 9.93v19.9m0 9.93v19.88m0 9.95v19.87m0 9.94v19.9m0 9.94v19.88m0 9.94v9.94M384.16 353.4h-3.5M387.06 1161.6v.5M387.56 495.67h275.32M387.57 495.67h-.5" stroke="#333" fill="none"/><path d="M677.64 495.67l-14.26 4.63v-9.27z" stroke="#333" fill="#333"/><use xlink:href="#f" transform="matrix(1,0,0,1,404.39367289033055,499.66555194235895) translate(0 14.222222222222223)"/><use xlink:href="#g" transform="matrix(1,0,0,1,404.39367289033055,499.66555194235895) translate(19.75308641975309 14.222222222222223)"/><use xlink:href="#h" transform="matrix(1,0,0,1,404.39367289033055,499.66555194235895) translate(84.83950617283952 14.222222222222223)"/><use xlink:href="#i" transform="matrix(1,0,0,1,404.39367289033055,499.66555194235895) translate(138.17283950617286 14.222222222222223)"/><use xlink:href="#j" transform="matrix(1,0,0,1,404.39367289033055,499.66555194235895) translate(162.86419753086423 14.222222222222223)"/><use xlink:href="#k" transform="matrix(1,0,0,1,404.39367289033055,499.66555194235895) translate(0 35.55555555555556)"/><use xlink:href="#l" transform="matrix(1,0,0,1,404.39367289033055,499.66555194235895) translate(88.88888888888894 35.55555555555556)"/><use xlink:href="#m" transform="matrix(1,0,0,1,404.39367289033055,499.66555194235895) translate(113.58024691358031 35.55555555555556)"/><path d="M1325.32 228c0-4.42 3.58-8 8-8h174.07c4.4 0 8 3.58 8 8v106c0 4.42-3.6 8-8 8H1333.3c-4.42 0-8-3.58-8-8z" stroke="#000" stroke-opacity="0" fill="#ffcc78"/><use xlink:href="#n" transform="matrix(1,0,0,1,1333.3176862826963,228) translate(54.78395061728395 56.55555555555555)"/><path d="M1420.36 342.5v9.84m0 9.84v19.68m0 9.84v19.68m0 9.84v19.68m0 9.83v19.68m0 9.85v19.68m0 9.84v19.68m0 9.84v19.67m0 9.84v19.7m0 9.83V618m0 9.85v19.67m0 9.84v19.68m0 9.84v19.68m0 9.84v19.68m0 9.84v19.68m0 9.84v19.68m0 9.84v19.68m0 9.84v19.67m0 9.84v19.67m0 9.84v19.7m0 9.83v19.68m0 9.85v19.68m0 9.84v19.68m0 9.84v19.67m0 9.83v19.68m0 9.84v19.68m0 9.84v19.68m0 9.84v9.84" stroke="#333" fill="none"/><path d="M1420.86 342.5h-1v-.5h1z" stroke="#333" stroke-width=".05" fill="#333"/><path d="M1420.36 1139.5v.5M678.76 749.33h-5.1m-5.1 0h-10.2m-5.1 0h-10.2m-5.1 0h-10.22m-5.1 0h-10.2m-5.1 0h-10.2m-5.1 0h-10.2m-5.1 0H566.5m-5.1 0h-10.2m-5.1 0h-10.2m-5.1 0h-10.2m-5.1 0H505.3m-5.1 0H490m-5.1 0h-10.2m-5.1 0h-10.2m-5.1 0h-10.22m-5.1 0h-10.2m-5.1 0h-10.2m-5.1 0h-10.2m-5.1 0h-5.1" stroke="#333" fill="none"/><path d="M679.26 749.83h-.5v-1h.5z" stroke="#333" stroke-width=".05" fill="#333"/><path d="M405.25 739.15l-17.2 10.18 17.2 10.18" stroke="#333" fill="none"/><use xlink:href="#o" transform="matrix(1,0,0,1,447.309104989096,753.3333333333335) translate(0.0049999999999954525 14.4)"/><use xlink:href="#p" transform="matrix(1,0,0,1,447.309104989096,753.3333333333335) translate(102.855 14.4)"/><path d="M720.76 544h303.48" stroke="#333" fill="none"/><path d="M720.77 544.5h-.5v-1h.5z" stroke="#333" stroke-width=".05" fill="#333"/><path d="M1039 544l-14.27 4.64v-9.27z" stroke="#333" fill="#333"/><use xlink:href="#q" transform="matrix(1,0,0,1,780.6646326488658,548.0068464981051) translate(0.0049999999999954525 14.4)"/><use xlink:href="#r" transform="matrix(1,0,0,1,780.6646326488658,548.0068464981051) translate(35.004999999999995 14.4)"/><path d="M1039 717.33h-5.04m-5.05 0h-10.08m-5.04 0h-10.1m-5.04 0h-10.1m-5.03 0h-10.08m-5.05 0h-10.1m-5.03 0h-10.1m-5.04 0H928m-5.03 0h-10.1m-5.04 0h-10.1m-5.03 0h-10.1m-5.04 0h-10.1m-5.03 0h-10.1m-5.04 0h-10.1m-5.04 0h-10.1m-5.04 0h-10.1m-5.03 0h-10.1m-5.05 0h-10.1m-5.03 0h-10.1m-5.04 0h-10.1m-5.03 0h-10.1m-5.04 0h-5.03" stroke="#333" fill="none"/><path d="M1039.5 717.83h-.5v-1h.5z" stroke="#333" stroke-width=".05" fill="#333"/><path d="M738.46 707.15l-17.22 10.18 17.22 10.18" stroke="#333" fill="none"/><use xlink:href="#s" transform="matrix(1,0,0,1,851.4304226147532,721.3333333333334) translate(0.004999999999999005 14.4)"/><path d="M1400.36 568c0-4.42 3.58-8 8-8h24c4.4 0 8 3.58 8 8v124c0 4.42-3.6 8-8 8h-24c-4.42 0-8-3.58-8-8z" stroke="#f2f2f2" fill="#ced4db"/><path d="M1081 564.36h303.35" stroke="#333" fill="none"/><path d="M1081 564.86h-.5v-1h.5z" stroke="#333" stroke-width=".05" fill="#333"/><path d="M1399.1 564.36l-14.25 4.64v-9.27z" stroke="#333" fill="#333"/><g><use xlink:href="#t" transform="matrix(1,0,0,1,1189.6663790245623,568.3642488788232) translate(0.005000000000002558 14.4)"/><use xlink:href="#u" transform="matrix(1,0,0,1,1189.6663790245623,568.3642488788232) translate(35.005 14.4)"/></g><path d="M1399.36 688h-4.83m-4.82 0h-9.64m-4.82 0h-9.65m-4.83 0h-9.65m-4.82 0h-9.65m-4.82 0h-9.65m-4.83 0h-9.64m-4.82 0h-9.64m-4.83 0h-9.63m-4.83 0h-9.64m-4.83 0h-9.65m-4.82 0H1235.38m-4.82 0h-9.63m-4.8 0h-9.63m-4.8 0h-9.63m-4.8 0h-9.64m-4.8 0h-9.63m-4.8 0h-9.63m-4.82 0h-9.62m-4.8 0h-9.63m-4.8 0h-9.63m-4.82 0h-9.62m-4.8 0h-4.82" stroke="#333" fill="none"/><path d="M1399.86 688.5h-.52v-1h.52z" stroke="#333" stroke-width=".05" fill="#333"/><path d="M1098.7 677.82L1081.48 688l17.22 10.18" stroke="#333" fill="none"/><g><use xlink:href="#v" transform="matrix(1,0,0,1,1211.7276526738099,692) translate(0.004999999999999005 14.4)"/></g><defs><path fill="#333" d="M187 0l-14-72H61L19 0h-37l149-248h38L221 0h-34zm-19-99l-22-123L76-99h92" id="w"/><path fill="#333" d="M51-54c-9 22 5 41 31 30L79-1C43 14 10-4 19-52l22-115H19l5-23h22l19-43h21l-9 43h35l-4 23H73" id="x"/><path fill="#333" d="M66-151c12-25 30-51 66-40l-6 26C45-176 58-65 38 0H6l36-190h30" id="y"/><path fill="#333" d="M50-231l6-30h32l-6 30H50zM6 0l37-190h31L37 0H6" id="z"/><path fill="#333" d="M68-162c25-46 127-43 121 31C183-60 169 1 98 4 69 5 53-11 43-31L36 0H5l52-261h31zm88 36c2-27-9-43-34-43-55 0-70 51-70 103 0 29 15 45 43 46 52 0 58-58 61-106" id="A"/><path fill="#333" d="M67 3c-93-2-31-127-26-193h32L48-50c-3 39 53 32 70 12 30-34 30-101 43-152h32L157 0h-30c1-10 6-24 4-33-14 20-29 37-64 36" id="B"/><g id="a"><use transform="matrix(0.04938271604938272,0,0,0.04938271604938272,0,0)" xlink:href="#w"/><use transform="matrix(0.04938271604938272,0,0,0.04938271604938272,11.851851851851853,0)" xlink:href="#x"/><use transform="matrix(0.04938271604938272,0,0,0.04938271604938272,16.790123456790127,0)" xlink:href="#y"/><use transform="matrix(0.04938271604938272,0,0,0.04938271604938272,22.66666666666667,0)" xlink:href="#z"/><use transform="matrix(0.04938271604938272,0,0,0.04938271604938272,26.567901234567902,0)" xlink:href="#A"/><use transform="matrix(0.04938271604938272,0,0,0.04938271604938272,36.44444444444445,0)" xlink:href="#B"/><use transform="matrix(0.04938271604938272,0,0,0.04938271604938272,46.320987654320994,0)" xlink:href="#z"/><use transform="matrix(0.04938271604938272,0,0,0.04938271604938272,50.22222222222223,0)" xlink:href="#y"/></g><path fill="#333" d="M67-162c32-53 139-36 121 50C175-51 163 2 97 4 68 4 52-11 42-31 38 6 28 39 22 75H-9l50-265h29c-1 10 0 20-3 28zm89 36c0-26-10-43-35-43-54 0-67 50-69 103-1 29 14 45 42 46 53 0 62-58 62-106" id="C"/><path fill="#333" d="M30-147c31-64 166-65 159 27C183-49 158 1 86 4 9 8 1-88 30-147zM88-20c53 0 68-48 68-100 0-31-11-51-44-50-52 1-68 46-68 97 0 32 13 53 44 53" id="D"/><path fill="#333" d="M111-194c62-3 86 47 72 106H45c-7 38 6 69 45 68 27-1 43-14 53-32l24 11C152-15 129 4 87 4 38 3 12-23 12-71c0-70 32-119 99-123zm44 81c14-66-71-72-95-28-4 8-8 17-11 28h106" id="E"/><path fill="#333" d="M133-28C103 26-5 8 13-77c13-62 24-115 90-117 29-1 46 15 56 35l19-102h32L160 0h-30zM45-64c-2 27 10 43 35 43 54-1 69-50 69-103 0-29-15-46-42-46-53-1-58 58-62 106" id="F"/><path fill="#333" d="M165-48c-4 18 1 34 23 27l-3 20c-29 8-62 0-52-35h-2C116-14 99 4 63 4 30 4 8-16 8-49c0-68 71-67 138-67 10-26 0-56-31-54-26 1-42 9-47 31l-32-5c8-67 160-71 144 15-5 28-9 54-15 81zM42-50c3 52 80 24 89-6 7-12 7-24 11-38-47 1-103-4-100 44" id="G"/><g id="b"><use transform="matrix(0.04938271604938272,0,0,0.04938271604938272,0,0)" xlink:href="#C"/><use transform="matrix(0.04938271604938272,0,0,0.04938271604938272,9.876543209876544,0)" xlink:href="#y"/><use transform="matrix(0.04938271604938272,0,0,0.04938271604938272,15.753086419753087,0)" xlink:href="#D"/><use transform="matrix(0.04938271604938272,0,0,0.04938271604938272,25.629629629629633,0)" xlink:href="#C"/><use transform="matrix(0.04938271604938272,0,0,0.04938271604938272,35.50617283950618,0)" xlink:href="#y"/><use transform="matrix(0.04938271604938272,0,0,0.04938271604938272,41.38271604938272,0)" xlink:href="#z"/><use transform="matrix(0.04938271604938272,0,0,0.04938271604938272,45.283950617283956,0)" xlink:href="#E"/><use transform="matrix(0.04938271604938272,0,0,0.04938271604938272,55.1604938271605,0)" xlink:href="#F"/><use transform="matrix(0.04938271604938272,0,0,0.04938271604938272,65.03703703703704,0)" xlink:href="#G"/><use transform="matrix(0.04938271604938272,0,0,0.04938271604938272,74.91358024691358,0)" xlink:href="#F"/><use transform="matrix(0.04938271604938272,0,0,0.04938271604938272,84.79012345679013,0)" xlink:href="#E"/></g><path fill="#333" d="M44-154l7-36h35l-8 36H44zM14 0l7-36h35L49 0H14" id="H"/><path fill="#333" d="M67-158c22-48 132-52 116 29L158 0h-32l25-140c3-38-53-32-70-12C52-117 51-52 38 0H6l36-190h30" id="I"/><path fill="#333" d="M76-167L44 0H12l33-167H18l4-23h27c3-47 25-81 82-69l-4 24c-35-8-44 15-46 45h37l-5 23H76" id="J"/><path fill="#333" d="M44-68c0 29 11 47 38 47 30 0 42-19 51-41l28 9C148-21 126 4 82 4 31 4 10-29 12-85c3-77 74-140 146-93 12 8 15 23 18 40l-31 5c-1-22-13-36-36-36-52 0-65 49-65 101" id="K"/><path fill="#333" d="M151-220L108 0H75l42-220H32l6-28h203l-5 28h-85" id="L"/><g id="c"><use transform="matrix(0.04938271604938272,0,0,0.04938271604938272,0,0)" xlink:href="#H"/><use transform="matrix(0.04938271604938272,0,0,0.04938271604938272,4.938271604938272,0)" xlink:href="#z"/><use transform="matrix(0.04938271604938272,0,0,0.04938271604938272,8.839506172839506,0)" xlink:href="#I"/><use transform="matrix(0.04938271604938272,0,0,0.04938271604938272,18.71604938271605,0)" xlink:href="#x"/><use transform="matrix(0.04938271604938272,0,0,0.04938271604938272,23.654320987654323,0)" xlink:href="#E"/><use transform="matrix(0.04938271604938272,0,0,0.04938271604938272,33.53086419753087,0)" xlink:href="#y"/><use transform="matrix(0.04938271604938272,0,0,0.04938271604938272,39.40740740740741,0)" xlink:href="#J"/><use transform="matrix(0.04938271604938272,0,0,0.04938271604938272,44.345679012345684,0)" xlink:href="#G"/><use transform="matrix(0.04938271604938272,0,0,0.04938271604938272,54.22222222222223,0)" xlink:href="#K"/><use transform="matrix(0.04938271604938272,0,0,0.04938271604938272,63.111111111111114,0)" xlink:href="#E"/><use transform="matrix(0.04938271604938272,0,0,0.04938271604938272,72.98765432098766,0)" xlink:href="#L"/><use transform="matrix(0.04938271604938272,0,0,0.04938271604938272,82.17283950617283,0)" xlink:href="#E"/><use transform="matrix(0.04938271604938272,0,0,0.04938271604938272,92.04938271604938,0)" xlink:href="#K"/><use transform="matrix(0.04938271604938272,0,0,0.04938271604938272,100.93827160493827,0)" xlink:href="#I"/><use transform="matrix(0.04938271604938272,0,0,0.04938271604938272,110.8148148148148,0)" xlink:href="#z"/><use transform="matrix(0.04938271604938272,0,0,0.04938271604938272,114.71604938271606,0)" xlink:href="#K"/><use transform="matrix(0.04938271604938272,0,0,0.04938271604938272,123.60493827160492,0)" xlink:href="#D"/><path fill="#333" d="M-.9 1.23h135.27v1.3H-.9z"/></g><path fill="#333" d="M194-120c59 52 2 134-86 124-53-6-90-18-98-63l31-7c8 30 29 43 70 43 46 0 84-17 71-62-32-43-135-20-137-98-3-89 178-90 191-16l-30 9c-8-48-127-53-127 5 0 53 81 35 115 65" id="M"/><path fill="#333" d="M6 0l50-261h32L37 0H6" id="N"/><path fill="#333" d="M-8 0l5-24 140-142H31l5-24h145l-5 24L36-24h119l-5 24H-8" id="O"/><g id="d"><use transform="matrix(0.04938271604938272,0,0,0.04938271604938272,0,0)" xlink:href="#H"/><use transform="matrix(0.04938271604938272,0,0,0.04938271604938272,4.938271604938272,0)" xlink:href="#L"/><use transform="matrix(0.04938271604938272,0,0,0.04938271604938272,14.123456790123457,0)" xlink:href="#E"/><use transform="matrix(0.04938271604938272,0,0,0.04938271604938272,24,0)" xlink:href="#K"/><use transform="matrix(0.04938271604938272,0,0,0.04938271604938272,32.888888888888886,0)" xlink:href="#I"/><use transform="matrix(0.04938271604938272,0,0,0.04938271604938272,42.76543209876543,0)" xlink:href="#z"/><use transform="matrix(0.04938271604938272,0,0,0.04938271604938272,46.666666666666664,0)" xlink:href="#K"/><use transform="matrix(0.04938271604938272,0,0,0.04938271604938272,55.55555555555556,0)" xlink:href="#D"/><use transform="matrix(0.04938271604938272,0,0,0.04938271604938272,65.4320987654321,0)" xlink:href="#M"/><use transform="matrix(0.04938271604938272,0,0,0.04938271604938272,77.28395061728395,0)" xlink:href="#E"/><use transform="matrix(0.04938271604938272,0,0,0.04938271604938272,87.1604938271605,0)" xlink:href="#y"/><use transform="matrix(0.04938271604938272,0,0,0.04938271604938272,93.03703703703704,0)" xlink:href="#z"/><use transform="matrix(0.04938271604938272,0,0,0.04938271604938272,96.93827160493828,0)" xlink:href="#G"/><use transform="matrix(0.04938271604938272,0,0,0.04938271604938272,106.81481481481482,0)" xlink:href="#N"/><use transform="matrix(0.04938271604938272,0,0,0.04938271604938272,110.71604938271606,0)" xlink:href="#z"/><use transform="matrix(0.04938271604938272,0,0,0.04938271604938272,114.61728395061732,0)" xlink:href="#O"/><use transform="matrix(0.04938271604938272,0,0,0.04938271604938272,123.50617283950618,0)" xlink:href="#E"/><use transform="matrix(0.04938271604938272,0,0,0.04938271604938272,133.38271604938274,0)" xlink:href="#y"/><path fill="#333" d="M-.9 1.23h141.05v1.3H-.9z"/></g><path fill="#333" d="M111-194c62-3 86 47 72 106H45c-7 38 6 69 45 68 27-1 43-14 53-32l24 11C152-15 129 4 87 4 38 3 12-23 12-71c0-70 32-119 99-123zm44 81c14-66-71-72-95-28-4 8-8 17-11 28h106zm-61-98c10-23 31-35 45-54h38l-1 5-66 49H94" id="P"/><g id="e"><use transform="matrix(0.04938271604938272,0,0,0.04938271604938272,0,0)" xlink:href="#L"/><use transform="matrix(0.04938271604938272,0,0,0.04938271604938272,10.814814814814815,0)" xlink:href="#P"/><use transform="matrix(0.04938271604938272,0,0,0.04938271604938272,20.69135802469136,0)" xlink:href="#K"/><use transform="matrix(0.04938271604938272,0,0,0.04938271604938272,29.58024691358025,0)" xlink:href="#I"/><use transform="matrix(0.04938271604938272,0,0,0.04938271604938272,39.4567901234568,0)" xlink:href="#z"/><use transform="matrix(0.04938271604938272,0,0,0.04938271604938272,43.35802469135803,0)" xlink:href="#K"/><use transform="matrix(0.04938271604938272,0,0,0.04938271604938272,52.24691358024693,0)" xlink:href="#D"/></g><path fill="#333" d="M9 0l6-27h63l36-188-63 39 6-31 66-41h29L110-27h60l-5 27H9" id="Q"/><g id="f"><use transform="matrix(0.04938271604938272,0,0,0.04938271604938272,0,0)" xlink:href="#Q"/><use transform="matrix(0.04938271604938272,0,0,0.04938271604938272,9.876543209876544,0)" xlink:href="#H"/></g><path fill="#333" d="M14 0l48-248h34L48 0H14" id="R"/><path fill="#333" d="M248-111c6-24 9-61-24-58-72 9-57 108-77 169h-31l26-142c3-37-50-30-64-10C52-115 50-51 37 0H6l36-190h30c-1 10-6 24-4 32 13-43 101-52 105 5 13-22 29-41 61-41 90 0 28 129 23 194h-31" id="S"/><g id="g"><use transform="matrix(0.04938271604938272,0,0,0.04938271604938272,0,0)" xlink:href="#R"/><use transform="matrix(0.04938271604938272,0,0,0.04938271604938272,4.938271604938272,0)" xlink:href="#I"/><use transform="matrix(0.04938271604938272,0,0,0.04938271604938272,14.814814814814817,0)" xlink:href="#J"/><use transform="matrix(0.04938271604938272,0,0,0.04938271604938272,19.75308641975309,0)" xlink:href="#D"/><use transform="matrix(0.04938271604938272,0,0,0.04938271604938272,29.629629629629633,0)" xlink:href="#y"/><use transform="matrix(0.04938271604938272,0,0,0.04938271604938272,35.50617283950618,0)" xlink:href="#S"/><use transform="matrix(0.04938271604938272,0,0,0.04938271604938272,50.27160493827161,0)" xlink:href="#G"/></g><path fill="#333" d="M55-144c13 50 104 24 104 88C159 21 15 23 1-39l26-10c6 40 102 42 102-4-13-50-104-23-104-87 0-71 143-71 148-8l-29 4c-5-35-85-37-89 0" id="T"/><g id="h"><use transform="matrix(0.04938271604938272,0,0,0.04938271604938272,0,0)" xlink:href="#F"/><use transform="matrix(0.04938271604938272,0,0,0.04938271604938272,9.876543209876544,0)" xlink:href="#G"/><use transform="matrix(0.04938271604938272,0,0,0.04938271604938272,19.75308641975309,0)" xlink:href="#F"/><use transform="matrix(0.04938271604938272,0,0,0.04938271604938272,29.629629629629633,0)" xlink:href="#D"/><use transform="matrix(0.04938271604938272,0,0,0.04938271604938272,39.50617283950618,0)" xlink:href="#T"/></g><g id="i"><use transform="matrix(0.04938271604938272,0,0,0.04938271604938272,0,0)" xlink:href="#F"/><use transform="matrix(0.04938271604938272,0,0,0.04938271604938272,9.876543209876544,0)" xlink:href="#G"/></g><g id="j"><use transform="matrix(0.04938271604938272,0,0,0.04938271604938272,0,0)" xlink:href="#C"/><use transform="matrix(0.04938271604938272,0,0,0.04938271604938272,9.876543209876544,0)" xlink:href="#y"/><use transform="matrix(0.04938271604938272,0,0,0.04938271604938272,15.753086419753087,0)" xlink:href="#D"/><use transform="matrix(0.04938271604938272,0,0,0.04938271604938272,25.629629629629633,0)" xlink:href="#C"/><use transform="matrix(0.04938271604938272,0,0,0.04938271604938272,35.50617283950618,0)" xlink:href="#y"/><use transform="matrix(0.04938271604938272,0,0,0.04938271604938272,41.38271604938272,0)" xlink:href="#z"/><use transform="matrix(0.04938271604938272,0,0,0.04938271604938272,45.283950617283956,0)" xlink:href="#E"/><use transform="matrix(0.04938271604938272,0,0,0.04938271604938272,55.1604938271605,0)" xlink:href="#F"/><use transform="matrix(0.04938271604938272,0,0,0.04938271604938272,65.03703703703704,0)" xlink:href="#G"/><use transform="matrix(0.04938271604938272,0,0,0.04938271604938272,74.91358024691358,0)" xlink:href="#F"/><use transform="matrix(0.04938271604938272,0,0,0.04938271604938272,84.79012345679013,0)" xlink:href="#E"/></g><g id="l"><use transform="matrix(0.04938271604938272,0,0,0.04938271604938272,0,0)" xlink:href="#F"/><use transform="matrix(0.04938271604938272,0,0,0.04938271604938272,9.876543209876544,0)" xlink:href="#D"/></g><g id="m"><use transform="matrix(0.04938271604938272,0,0,0.04938271604938272,0,0)" xlink:href="#x"/><use transform="matrix(0.04938271604938272,0,0,0.04938271604938272,4.938271604938272,0)" xlink:href="#P"/><use transform="matrix(0.04938271604938272,0,0,0.04938271604938272,14.814814814814817,0)" xlink:href="#K"/><use transform="matrix(0.04938271604938272,0,0,0.04938271604938272,23.703703703703706,0)" xlink:href="#I"/><use transform="matrix(0.04938271604938272,0,0,0.04938271604938272,33.580246913580254,0)" xlink:href="#z"/><use transform="matrix(0.04938271604938272,0,0,0.04938271604938272,37.48148148148149,0)" xlink:href="#K"/><use transform="matrix(0.04938271604938272,0,0,0.04938271604938272,46.37037037037038,0)" xlink:href="#D"/></g><g id="n"><use transform="matrix(0.04938271604938272,0,0,0.04938271604938272,0,0)" xlink:href="#H"/><use transform="matrix(0.04938271604938272,0,0,0.04938271604938272,4.938271604938272,0)" xlink:href="#L"/><use transform="matrix(0.04938271604938272,0,0,0.04938271604938272,14.123456790123457,0)" xlink:href="#E"/><use transform="matrix(0.04938271604938272,0,0,0.04938271604938272,24,0)" xlink:href="#K"/><use transform="matrix(0.04938271604938272,0,0,0.04938271604938272,32.888888888888886,0)" xlink:href="#I"/><use transform="matrix(0.04938271604938272,0,0,0.04938271604938272,42.76543209876543,0)" xlink:href="#z"/><use transform="matrix(0.04938271604938272,0,0,0.04938271604938272,46.666666666666664,0)" xlink:href="#K"/><use transform="matrix(0.04938271604938272,0,0,0.04938271604938272,55.55555555555556,0)" xlink:href="#D"/><path fill="#333" d="M-.9 1.23h67.22v1.3H-.88z"/></g><path fill="#333" d="M30-248c87 1 191-15 191 75 0 78-77 80-158 76V0H30v-248zm33 125c57 0 124 11 124-50 0-59-68-47-124-48v98" id="U"/><path fill="#333" d="M114-163C36-179 61-72 57 0H25l-1-190h30c1 12-1 29 2 39 6-27 23-49 58-41v29" id="V"/><path fill="#333" d="M100-194c62-1 85 37 85 99 1 63-27 99-86 99S16-35 15-95c0-66 28-99 85-99zM99-20c44 1 53-31 53-75 0-43-8-75-51-75s-53 32-53 75 10 74 51 75" id="W"/><path fill="#333" d="M115-194c55 1 70 41 70 98S169 2 115 4C84 4 66-9 55-30l1 105H24l-1-265h31l2 30c10-21 28-34 59-34zm-8 174c40 0 45-34 45-75s-6-73-45-74c-42 0-51 32-51 76 0 43 10 73 51 73" id="X"/><path fill="#333" d="M24-231v-30h32v30H24zM24 0v-190h32V0H24" id="Y"/><path fill="#333" d="M100-194c63 0 86 42 84 106H49c0 40 14 67 53 68 26 1 43-12 49-29l28 8c-11 28-37 45-77 45C44 4 14-33 15-96c1-61 26-98 85-98zm52 81c6-60-76-77-97-28-3 7-6 17-6 28h103" id="Z"/><path fill="#333" d="M85-194c31 0 48 13 60 33l-1-100h32l1 261h-30c-2-10 0-23-3-31C134-8 116 4 85 4 32 4 16-35 15-94c0-66 23-100 70-100zm9 24c-40 0-46 34-46 75 0 40 6 74 45 74 42 0 51-32 51-76 0-42-9-74-50-73" id="aa"/><path fill="#333" d="M141-36C126-15 110 5 73 4 37 3 15-17 15-53c-1-64 63-63 125-63 3-35-9-54-41-54-24 1-41 7-42 31l-33-3c5-37 33-52 76-52 45 0 72 20 72 64v82c-1 20 7 32 28 27v20c-31 9-61-2-59-35zM48-53c0 20 12 33 32 33 41-3 63-29 60-74-43 2-92-5-92 41" id="ab"/><g id="o"><use transform="matrix(0.05,0,0,0.05,0,0)" xlink:href="#U"/><use transform="matrix(0.05,0,0,0.05,12,0)" xlink:href="#V"/><use transform="matrix(0.05,0,0,0.05,17.95,0)" xlink:href="#W"/><use transform="matrix(0.05,0,0,0.05,27.950000000000003,0)" xlink:href="#X"/><use transform="matrix(0.05,0,0,0.05,37.95,0)" xlink:href="#V"/><use transform="matrix(0.05,0,0,0.05,43.900000000000006,0)" xlink:href="#Y"/><use transform="matrix(0.05,0,0,0.05,47.85000000000001,0)" xlink:href="#Z"/><use transform="matrix(0.05,0,0,0.05,57.85,0)" xlink:href="#aa"/><use transform="matrix(0.05,0,0,0.05,67.85000000000001,0)" xlink:href="#ab"/><use transform="matrix(0.05,0,0,0.05,77.85000000000001,0)" xlink:href="#aa"/><use transform="matrix(0.05,0,0,0.05,87.85000000000001,0)" xlink:href="#Z"/></g><path fill="#333" d="M59-47c-2 24 18 29 38 22v24C64 9 27 4 27-40v-127H5v-23h24l9-43h21v43h35v23H59v120" id="ac"/><path fill="#333" d="M115-194c53 0 69 39 70 98 0 66-23 100-70 100C84 3 66-7 56-30L54 0H23l1-261h32v101c10-23 28-34 59-34zm-8 174c40 0 45-34 45-75 0-40-5-75-45-74-42 0-51 32-51 76 0 43 10 73 51 73" id="ad"/><path fill="#333" d="M84 4C-5 8 30-112 23-190h32v120c0 31 7 50 39 49 72-2 45-101 50-169h31l1 190h-30c-1-10 1-25-2-33-11 22-28 36-60 37" id="ae"/><g id="p"><use transform="matrix(0.05,0,0,0.05,0,0)" xlink:href="#ab"/><use transform="matrix(0.05,0,0,0.05,10,0)" xlink:href="#ac"/><use transform="matrix(0.05,0,0,0.05,15,0)" xlink:href="#V"/><use transform="matrix(0.05,0,0,0.05,20.95,0)" xlink:href="#Y"/><use transform="matrix(0.05,0,0,0.05,24.9,0)" xlink:href="#ad"/><use transform="matrix(0.05,0,0,0.05,34.9,0)" xlink:href="#ae"/><use transform="matrix(0.05,0,0,0.05,44.9,0)" xlink:href="#Y"/><use transform="matrix(0.05,0,0,0.05,48.85,0)" xlink:href="#aa"/><use transform="matrix(0.05,0,0,0.05,58.85,0)" xlink:href="#ab"/></g><path fill="#333" d="M27 0v-27h64v-190l-56 39v-29l58-41h29v221h61V0H27" id="af"/><path fill="#333" d="M33 0v-38h34V0H33" id="ag"/><path fill="#333" d="M33-154v-36h34v36H33zM33 0v-36h34V0H33" id="ah"/><g id="q"><use transform="matrix(0.05,0,0,0.05,0,0)" xlink:href="#af"/><use transform="matrix(0.05,0,0,0.05,10,0)" xlink:href="#ag"/><use transform="matrix(0.05,0,0,0.05,15,0)" xlink:href="#af"/><use transform="matrix(0.05,0,0,0.05,25,0)" xlink:href="#ah"/></g><path fill="#333" d="M87 75C49 33 22-17 22-94c0-76 28-126 65-167h31c-38 41-64 92-64 168S80 34 118 75H87" id="ai"/><path fill="#333" d="M33-261c38 41 65 92 65 168S71 34 33 75H2C39 34 66-17 66-93S39-220 2-261h31" id="aj"/><g id="r"><use transform="matrix(0.05,0,0,0.05,0,0)" xlink:href="#ab"/><use transform="matrix(0.05,0,0,0.05,10,0)" xlink:href="#ac"/><use transform="matrix(0.05,0,0,0.05,15,0)" xlink:href="#V"/><use transform="matrix(0.05,0,0,0.05,20.95,0)" xlink:href="#Y"/><use transform="matrix(0.05,0,0,0.05,24.9,0)" xlink:href="#ad"/><use transform="matrix(0.05,0,0,0.05,34.9,0)" xlink:href="#ae"/><use transform="matrix(0.05,0,0,0.05,44.9,0)" xlink:href="#Y"/><use transform="matrix(0.05,0,0,0.05,48.85,0)" xlink:href="#V"/><use transform="matrix(0.05,0,0,0.05,54.800000000000004,0)" xlink:href="#U"/><use transform="matrix(0.05,0,0,0.05,66.80000000000001,0)" xlink:href="#V"/><use transform="matrix(0.05,0,0,0.05,72.75000000000001,0)" xlink:href="#W"/><use transform="matrix(0.05,0,0,0.05,82.75000000000001,0)" xlink:href="#X"/><use transform="matrix(0.05,0,0,0.05,92.75000000000001,0)" xlink:href="#V"/><use transform="matrix(0.05,0,0,0.05,98.70000000000002,0)" xlink:href="#Y"/><use transform="matrix(0.05,0,0,0.05,102.65000000000003,0)" xlink:href="#Z"/><use transform="matrix(0.05,0,0,0.05,112.65000000000003,0)" xlink:href="#aa"/><use transform="matrix(0.05,0,0,0.05,122.65000000000003,0)" xlink:href="#ab"/><use transform="matrix(0.05,0,0,0.05,132.65000000000003,0)" xlink:href="#aa"/><use transform="matrix(0.05,0,0,0.05,142.65000000000003,0)" xlink:href="#Z"/><use transform="matrix(0.05,0,0,0.05,152.65000000000003,0)" xlink:href="#ai"/><use transform="matrix(0.05,0,0,0.05,158.60000000000002,0)" xlink:href="#aj"/></g><path fill="#333" d="M117-194c89-4 53 116 60 194h-32v-121c0-31-8-49-39-48C34-167 62-67 57 0H25l-1-190h30c1 10-1 24 2 32 11-22 29-35 61-36" id="ak"/><g id="s"><use transform="matrix(0.05,0,0,0.05,0,0)" xlink:href="#V"/><use transform="matrix(0.05,0,0,0.05,5.95,0)" xlink:href="#Z"/><use transform="matrix(0.05,0,0,0.05,15.949999999999998,0)" xlink:href="#ac"/><use transform="matrix(0.05,0,0,0.05,20.95,0)" xlink:href="#W"/><use transform="matrix(0.05,0,0,0.05,30.950000000000003,0)" xlink:href="#V"/><use transform="matrix(0.05,0,0,0.05,36.9,0)" xlink:href="#ak"/><use transform="matrix(0.05,0,0,0.05,46.9,0)" xlink:href="#W"/></g><path fill="#333" d="M101-251c82-7 93 87 43 132L82-64C71-53 59-42 53-27h129V0H18c2-99 128-94 128-182 0-28-16-43-45-43s-46 15-49 41l-32-3c6-41 34-60 81-64" id="al"/><g id="t"><use transform="matrix(0.05,0,0,0.05,0,0)" xlink:href="#af"/><use transform="matrix(0.05,0,0,0.05,10,0)" xlink:href="#ag"/><use transform="matrix(0.05,0,0,0.05,15,0)" xlink:href="#al"/><use transform="matrix(0.05,0,0,0.05,25,0)" xlink:href="#ah"/></g><g id="u"><use transform="matrix(0.05,0,0,0.05,0,0)" xlink:href="#ae"/><use transform="matrix(0.05,0,0,0.05,10,0)" xlink:href="#X"/><use transform="matrix(0.05,0,0,0.05,20,0)" xlink:href="#aa"/><use transform="matrix(0.05,0,0,0.05,30,0)" xlink:href="#ab"/><use transform="matrix(0.05,0,0,0.05,40,0)" xlink:href="#ac"/><use transform="matrix(0.05,0,0,0.05,45,0)" xlink:href="#Z"/><use transform="matrix(0.05,0,0,0.05,55,0)" xlink:href="#ai"/><use transform="matrix(0.05,0,0,0.05,60.95,0)" xlink:href="#aj"/></g><g id="v"><use transform="matrix(0.05,0,0,0.05,0,0)" xlink:href="#V"/><use transform="matrix(0.05,0,0,0.05,5.95,0)" xlink:href="#Z"/><use transform="matrix(0.05,0,0,0.05,15.949999999999998,0)" xlink:href="#ac"/><use transform="matrix(0.05,0,0,0.05,20.95,0)" xlink:href="#W"/><use transform="matrix(0.05,0,0,0.05,30.950000000000003,0)" xlink:href="#V"/><use transform="matrix(0.05,0,0,0.05,36.9,0)" xlink:href="#ak"/><use transform="matrix(0.05,0,0,0.05,46.9,0)" xlink:href="#W"/></g></defs></g></svg>