<svg width="115" height="184" viewBox="0 0 115 184" fill="none" xmlns="http://www.w3.org/2000/svg">
<path d="M80.7838 180.737C70.0455 186.647 55.098 183.199 48.9666 180.737C39.1369 169.113 37.9394 153.345 40.5419 138.152C34.8192 126.333 20.4629 123.957 14 124.247C40.9547 115.608 46.5774 116.559 46.0289 118.135C49.1019 109.837 52.7605 102.543 55.9266 97.3058C60.8946 89.3965 61.43 78.195 59.8809 66.8882C59.4017 63.3906 58.7231 59.8828 57.9145 56.4594C35.5098 47.0734 25.9314 46.465 23.9429 47.3341C41.6034 33.7765 50.8275 37.3397 53.2319 40.816C52.6252 39.1368 52.0129 37.5374 51.4084 36.0361C50.5671 33.9465 49.741 32.047 48.9666 30.3871C50.447 31.2821 54.5238 35.0462 55.9029 36.0195C54.6062 35.0352 63.3191 28.4002 80.7838 23C77.5826 24.1588 69.8397 29.791 64.4773 43.0498C91.0635 72.9002 73.5813 115.919 67.858 138.152C67.43 139.815 67.2038 141.563 67.1477 143.367C67.6967 140.47 75.2359 132.59 101 124.247C94.2612 128.882 78.8631 143.019 71.1803 162.486C74.0757 169.844 77.9468 176.535 80.7838 180.737Z" fill="white"/>
<path d="M10.6829 121.117C9.09676 118.027 7.26574 113.649 3.75948 121.117C0.503676 121.117 -2.75213 125.752 3.75948 127.813C5.67957 131.16 7.01529 134.765 10.6829 127.813C10.6829 127.813 17.7845 124.465 10.6829 121.117Z" fill="white"/>
<path d="M20.0796 43.7359C17.8406 39.4307 15.256 33.3317 10.3067 43.7359C5.71097 43.7359 1.1152 50.1937 10.3067 53.0638C13.0171 57.7278 14.9025 62.7505 20.0796 53.0638C20.0796 53.0638 30.1039 48.3999 20.0796 43.7359Z" fill="white"/>
<path d="M111.683 121.117C110.097 118.027 108.266 113.649 104.759 121.117C101.504 121.117 98.2479 125.752 104.759 127.813C106.68 131.16 108.015 134.765 111.683 127.813C111.683 127.813 118.784 124.465 111.683 121.117Z" fill="white"/>
<path d="M55.1728 15.1661C52.4746 10.538 49.3598 3.98153 43.3953 15.1661C37.8568 15.1661 32.3183 22.1082 43.3953 25.1936C46.6616 30.2074 48.9338 35.6068 55.1728 25.1936C55.1728 25.1936 67.2534 20.1799 55.1728 15.1661Z" fill="white"/>
<path d="M86.6299 6.45288C84.1039 1.60953 81.188 -5.25188 75.6042 6.45289C70.4192 6.45288 65.2342 13.7179 75.6042 16.9468C78.662 22.1938 80.7891 27.8443 86.6299 16.9468C86.6299 16.9468 97.9394 11.6998 86.6299 6.45288Z" fill="white"/>
</svg>
